<svg width="727" height="610" viewBox="0 0 727 610" fill="none" xmlns="http://www.w3.org/2000/svg">
<path d="M321.414 470.803C408.671 422.673 395.136 323.795 382.389 280.417C350.701 236.982 349.826 197.676 359.906 185.086C371.183 174.244 381.471 137.819 332.409 78.8525C271.082 5.14487 210.237 117.817 199.914 153.754C190.914 185.086 158.238 183.005 134.941 201.3C104.093 217.824 67.2438 264.481 67.9138 310.254C68.5838 356.027 102.346 385.044 119.914 394.754C151.414 412.164 139.596 412.443 173.515 462.324C207.434 512.205 286.247 488.76 321.414 470.803Z" fill="#780000"/>
<path d="M626.763 239.097C562.649 162.81 468.263 195.234 428.174 216.139C391.697 255.638 353.304 264.107 339 256.656C326.18 247.691 288.452 244.65 240.101 304.201C179.663 378.639 269.276 413.254 306.667 413.254C347.667 413.254 376.006 454.91 398.466 474.224C420.651 501.288 473.868 531.147 518.645 521.627C563.422 512.107 580.789 476.87 586.914 457.754C597.968 423.254 604.713 428.774 647.082 385.839C689.451 342.904 651.19 270.121 626.763 239.097Z" fill="#AB2F2F"/>
<path d="M450.414 20.7537C350.948 26.8296 334.629 79.9619 327.55 124.617C337.558 177.443 321.498 213.329 306.994 220.382C292.158 225.343 267.247 253.84 286.294 328.146C310.102 421.028 419.078 395.7 424.798 358.749C429.373 329.189 488.298 308.716 517.189 302.175C552.143 300.47 626.804 286.651 645.821 245.01C664.838 203.369 650.414 187.254 635.914 148.754C619.914 116.754 608.235 124.294 585.914 68.2551C562.414 9.25513 489.884 19.606 450.414 20.7537Z" fill="#C54E4E"/>
<path d="M187.417 321.346V365.15L227.637 373.494V310.412C230.338 287.968 247.892 242.851 296.504 241.931C316.952 241.739 360.741 255.569 366.528 312.426V395.65L380.414 399V156.254C369.708 156.254 352.292 159.992 343.958 163.379L198.413 220.063C189.385 223.746 187.321 230.613 187.417 233.586V238.478C187.417 244.463 193.397 246.918 196.387 247.398H207.961V312.426H196.387C190.6 312.426 187.996 318.372 187.417 321.346Z" fill="white"/>
<path d="M571.411 321.346V365.15L531.191 373.494V310.412C528.49 287.968 510.936 242.851 462.324 241.931C441.876 241.739 398.087 255.569 392.3 312.426V395.65L378.414 399V156.254C389.12 156.254 406.536 159.992 414.87 163.379L560.415 220.063C569.443 223.746 571.507 230.613 571.411 233.586V238.478C571.411 244.463 565.431 246.918 562.441 247.398H550.867V312.426H562.441C568.228 312.426 570.832 318.372 571.411 321.346Z" fill="white"/>
</svg>
