<?xml version="1.0" encoding="utf-8"?>
<!-- Generator: Adobe Illustrator 24.3.0, SVG Export Plug-In . SVG Version: 6.00 Build 0)  -->
<svg version="1.1" id="sketchvalley" xmlns="http://www.w3.org/2000/svg" xmlns:xlink="http://www.w3.org/1999/xlink" x="0px"
	 y="0px" viewBox="0 0 761.04 444.36" style="enable-background:new 0 0 761.04 444.36;" xml:space="preserve">
<style type="text/css">
	.st0{fill:#9F5B72;}
	.st1{fill:#6D3E4E;}
	.st2{fill:#342939;}
	.st3{fill:#543642;}
	.st4{fill:#FFC480;}
	.st5{fill:#FFFFFF;}
	.st6{fill:#F06150;}
	.st7{fill:#3F2E41;}
	.st8{fill:#1F1923;}
	.st9{fill:#619ED7;}
	.st10{fill:#F56451;}
	.st11{fill:#412438;}
	.st12{fill:#764354;}
	.st13{fill:#A95A60;}
	.st14{fill:#341D2F;}
	.st15{fill:#D6F4FC;}
	.st16{fill:#5F3648;}
	.st17{fill:#A1DDFF;}
	.st18{fill:#A25A5E;}
	.st19{fill:#723B41;}
	.st20{fill:#703D50;}
	.st21{fill:#524243;}
	.st22{fill:#453037;}
	.st23{clip-path:url(#SVGID_2_);fill:#F9B8B4;}
	.st24{clip-path:url(#SVGID_2_);fill:#322735;}
	.st25{fill:#D82335;}
</style>
<g>
	<rect x="202.19" y="314.81" class="st0" width="62.52" height="103.59"/>
	<rect x="137.39" y="409.27" class="st1" width="188.61" height="9.13"/>
	<rect x="202.19" y="314.81" class="st2" width="62.52" height="25.1"/>
	<rect x="30.6" y="58.78" class="st3" width="401.15" height="266.07"/>
	<rect x="36.77" y="64.95" class="st4" width="389.8" height="254.23"/>
	<g>
		<path class="st5" d="M103.4,89.79H49.69c-1.66,0-3-1.34-3-3s1.34-3,3-3h53.71c1.66,0,3,1.34,3,3S105.06,89.79,103.4,89.79z"/>
	</g>
	<g>
		<path class="st5" d="M85.05,96.9H48.02c-0.83,0-1.5-0.67-1.5-1.5s0.67-1.5,1.5-1.5h37.03c0.83,0,1.5,0.67,1.5,1.5
			S85.88,96.9,85.05,96.9z"/>
	</g>
	<g>
		<path class="st5" d="M85.05,102.57H48.02c-0.83,0-1.5-0.67-1.5-1.5s0.67-1.5,1.5-1.5h37.03c0.83,0,1.5,0.67,1.5,1.5
			S85.88,102.57,85.05,102.57z"/>
	</g>
	<circle class="st5" cx="346.83" cy="80.95" r="72.41"/>
	<polygon class="st5" points="284.18,145.97 296.46,125.19 307.71,139.61 	"/>
	<path class="st2" d="M192.84,135.28c0,0-14.48-26.31,12.31-38.61c0,0,20.51-29.68,25.34-7.48c0,0,15.69,3.38,10.14,13.51
		c0,0,18.34,2.17,14.72,16.65c-3.62,14.48-55.75,22.93-55.75,22.93L192.84,135.28z"/>
	<path class="st6" d="M250.76,162.56c-0.44,14.89-15.78,14.29-18.62,14.05c-0.15-0.03-0.3-0.05-0.45-0.05l0.56,9.18l1.61,26.29
		h-41.51v-56.71c-9.65,1.69-19.55-13.28-9.65-23.41c9.89-10.14,20.27,5.07,20.27,5.07h3.62v-15.45c13.27,1.45,8.45-20.03,8.45-20.03
		C261.62,95.95,251.24,146.15,250.76,162.56z"/>
	<path class="st7" d="M232.25,185.74l-26.36-16.17c0.64,0.21,21.24,6.95,25.8,6.99L232.25,185.74z"/>
	<path class="st5" d="M224.75,152.98h18.86c0,0-2.79,6.89-7.22,6.89S227.21,156.09,224.75,152.98z"/>
	<g>
		<path d="M230.33,148.26c-0.35,0-0.65-0.26-0.69-0.62c-0.05-0.38,0.23-0.73,0.61-0.78l1.23-0.15c2.33-0.27,4.01-0.47,4.29-0.96
			c0.3-0.54-0.63-2.52-1.31-3.96c-2.75-5.85-0.08-10.32,0.04-10.5c0.2-0.33,0.63-0.43,0.96-0.23c0.33,0.2,0.43,0.63,0.23,0.96l0,0
			c-0.1,0.16-2.38,4.04,0.04,9.18c1.3,2.77,1.85,4.18,1.26,5.24c-0.62,1.12-2.2,1.3-5.35,1.67l-1.22,0.15
			C230.38,148.26,230.36,148.26,230.33,148.26z"/>
	</g>
	<g>
		<path d="M224.75,131.37c-0.22,0-0.44-0.1-0.58-0.3c-2.33-3.34-9.54-1.86-9.61-1.85c-0.38,0.08-0.75-0.16-0.83-0.54
			c-0.08-0.38,0.16-0.75,0.54-0.83c0.33-0.07,8.2-1.69,11.05,2.42c0.22,0.32,0.14,0.75-0.17,0.97
			C225.03,131.33,224.89,131.37,224.75,131.37z"/>
	</g>
	<g>
		<path d="M239.67,134c-0.12,0-0.25-0.03-0.37-0.1c-0.33-0.2-0.43-0.63-0.23-0.96c1.2-1.96,4.46-5.09,8.17-2.86
			c0.33,0.2,0.44,0.63,0.24,0.96s-0.63,0.44-0.96,0.24c-3.46-2.08-6.15,2.21-6.26,2.39C240.14,133.88,239.91,134,239.67,134z"/>
	</g>
	<circle class="st8" cx="220.82" cy="135.59" r="2.62"/>
	<circle class="st8" cx="244.27" cy="136.99" r="2.62"/>
	<path class="st9" d="M122.85,319.18l14.24-78.19l55.26-49.47c0,0,7.48,14.96,20.52,14.24s19.56-17.14,19.56-17.14
		s8.68,13.27,15.92,16.41c7.24,3.14,36.2,23.65,47.54,44.89s11.83,69.26,11.83,69.26H122.85z"/>
	<path class="st10" d="M346.57,319.18c0,0-16.17-58.89-22.2-71.19c0,0,36.92-30.41,39.34-41.03c0,0-14.24,4.1-26.06,15.93
		l-0.86-2.77c0,0,27.77-16.85,28.85-28.04c0,0-20.49,5.26-35.05,16.31l-0.94-1.62c0,0,26.02-16.58,26.02-23.05c0,0,0-0.67-3.1,0
		c-3.1,0.67-31.55,17.39-31.55,17.39s7.28-9.98,7.28-16.99c0,0-34.24,24.13-35.86,36.8c-1.62,12.67-0.67,24.27-0.81,27.23
		c-0.13,2.97-5.26,71.03-5.26,71.03H346.57z"/>
	<g>
		<path d="M315.93,233.92c-0.15,0-0.3-0.07-0.4-0.2c-0.17-0.22-0.12-0.53,0.1-0.7c4.03-3.07,6.16-6.58,6.31-10.42
			c0.29-7.11-6.28-13.1-6.35-13.16l-0.31-0.28l5.3-8.32c0.15-0.23,0.46-0.3,0.69-0.15c0.23,0.15,0.3,0.46,0.15,0.69l-4.85,7.62
			c1.37,1.33,6.64,6.9,6.37,13.65c-0.17,4.15-2.43,7.91-6.71,11.17C316.14,233.88,316.04,233.92,315.93,233.92z"/>
	</g>
	<g>
		<path d="M337.64,223.39c-0.26,0-0.48-0.2-0.5-0.46c-0.61-7.59-10.3-17.41-10.39-17.5c-0.19-0.2-0.19-0.51,0-0.71
			c0.2-0.2,0.51-0.19,0.71,0c0.41,0.41,10.04,10.18,10.68,18.13c0.02,0.28-0.18,0.52-0.46,0.54
			C337.66,223.39,337.65,223.39,337.64,223.39z"/>
	</g>
	<path class="st11" d="M515.71,185.03h-46.98c-4.65,0-8.41-3.77-8.41-8.41V67.19c0-4.65,3.77-8.41,8.41-8.41h46.98
		c4.65,0,8.41,3.77,8.41,8.41v109.43C524.12,181.27,520.35,185.03,515.71,185.03z"/>
	<path class="st9" d="M522.25,67.55v108.76c0,3.67-2.98,6.64-6.65,6.64h-46.27c-3.67,0-6.65-2.97-6.65-6.64V67.55
		c0-3.67,2.98-6.64,6.65-6.64h46.27C519.27,60.91,522.25,63.88,522.25,67.55z"/>
	<circle class="st5" cx="523.26" cy="76.56" r="17.03"/>
	<polygon class="st5" points="511.15,86.27 507.24,92.08 514.3,89.17 	"/>
	<circle class="st12" cx="517.21" cy="75.47" r="1.99"/>
	<circle class="st12" cx="523.21" cy="75.47" r="1.99"/>
	<circle class="st12" cx="529.21" cy="75.47" r="1.99"/>
	<ellipse class="st2" cx="490.18" cy="113.32" rx="23.48" ry="22.88"/>
	<path class="st13" d="M499.11,138.45l0.2,3.14l0.46,7.34H484.7v-19c0,0-6.56,0.13-4.72-6.68c1.31-4.85,8.39-0.66,8.39,1.31
		l1.81,0.13v-11.36c0,0,11.06-4.19,14.57,5.2C504.75,118.53,508.68,137.79,499.11,138.45z"/>
	<path class="st14" d="M499.31,141.59c-3.53-1.7-7.16-4.79-9.18-6.65c3.22,2.27,8.98,3.51,8.98,3.51L499.31,141.59z"/>
	<g>
		<path d="M497.05,122.4c-0.15,0-0.3-0.07-0.4-0.2c-1.01-1.36-3.89-0.64-3.92-0.63c-0.27,0.07-0.54-0.09-0.61-0.35
			c-0.07-0.27,0.09-0.54,0.35-0.61c0.14-0.04,3.55-0.92,4.98,1c0.17,0.22,0.12,0.54-0.1,0.7
			C497.26,122.37,497.16,122.4,497.05,122.4z"/>
	</g>
	<g>
		<path d="M500.94,122.42c-0.14,0-0.28-0.06-0.38-0.18c-0.18-0.21-0.15-0.52,0.06-0.7c0.7-0.59,2.32-1.34,3.5,0.04
			c0.18,0.21,0.16,0.53-0.05,0.71c-0.21,0.18-0.53,0.16-0.71-0.05c-0.81-0.95-1.97-0.03-2.09,0.08
			C501.17,122.38,501.05,122.42,500.94,122.42z"/>
	</g>
	<path class="st5" d="M494.1,127.7l3.65,3.29c0.17,0.16,0.16,0.44-0.03,0.57c-0.6,0.41-1.94,1-3.62-0.28
		C493.21,130.59,491.69,126.76,494.1,127.7z"/>
	<g>
		<path d="M499.59,128.82c-0.02,0-0.05,0-0.07,0l-1.71-0.08c-0.28-0.01-0.49-0.25-0.48-0.52c0.01-0.28,0.22-0.48,0.52-0.48
			l1.71,0.08c0.02,0,0.11,0,0.14-0.02c0.29-0.37-0.26-2.18-0.55-3.15c-0.21-0.68-0.4-1.32-0.49-1.83c-0.05-0.27,0.13-0.53,0.41-0.58
			c0.27-0.05,0.53,0.13,0.58,0.41c0.08,0.45,0.26,1.07,0.46,1.72c0.51,1.69,0.99,3.28,0.38,4.06
			C500.34,128.6,500.07,128.82,499.59,128.82z"/>
	</g>
	<circle cx="495.42" cy="124.35" r="1.17"/>
	<circle cx="502.57" cy="124.35" r="1.17"/>
	<path class="st15" d="M522.25,170.23v6.08c0,3.67-2.98,6.64-6.65,6.64h-46.27c-3.67,0-6.65-2.97-6.65-6.64v-9.6l22.02-24.59
		c0,0,5.9,6.02,9.43,5.11c3.54-0.92,5.21-5.11,5.21-5.11L522.25,170.23z"/>
	<path class="st16" d="M714.31,418.4H449.66V247.95c0-5,4.05-9.06,9.06-9.06h246.54c5,0,9.06,4.05,9.06,9.06V418.4z"/>
	<path class="st17" d="M711.09,251.04v158.54H452.67V251.04c0-4.78,3.88-8.66,8.66-8.66h241.1
		C707.21,242.38,711.09,246.26,711.09,251.04z"/>
	<circle class="st5" cx="501.89" cy="268.69" r="44.57"/>
	<polygon class="st5" points="522.17,305.23 540.45,310.27 533.63,295.92 	"/>
	<circle class="st12" cx="486.03" cy="269.69" r="4.12"/>
	<circle class="st12" cx="501.03" cy="269.69" r="4.12"/>
	<circle class="st12" cx="516.46" cy="269.8" r="4.12"/>
	<ellipse class="st2" cx="609.22" cy="284.07" rx="21.52" ry="22.57"/>
	<path class="st2" d="M550.72,314.26c0,0,13.35-6.04,15.04-10.12c0,0,5.48-17.43,24.59-16.02l16.52,18.39c0,0,2.03,14.22-10.05,15.9
		l-26.84-19.95c0,0-1.96-0.04-2.63,2.12C566.68,306.74,562.44,319.39,550.72,314.26z"/>
	<path class="st18" d="M667.33,409.58H522.56c2.03-7.57,11.87-41.52,28.16-51.35c1.07-0.65,2.12-1.28,3.13-1.89
		c16.36-10.01,25.01-16.41,25.01-16.41v-6.74c-0.03-0.01-0.06-0.02-0.1-0.03c-0.07-0.02-0.17-0.04-0.3-0.08
		c-0.01-0.01-0.02-0.01-0.03-0.01c-1.82-0.56-8.85-3.11-9-9.27c-0.17-7.08,0.54-21.34,0.54-21.34s3.72-7.76,8.89-7.8
		c0,0,2.64,17.15,17.13,14.55c0,0,6.65-1.19,8.05,2.98c1.4,4.17-1.64,10.29-6.34,11.34c0,0-0.07,17.75,0.23,17.97
		c0.06,0.05,2.48,0.88,6.41,2.59l0.36,0.16c1.07,0.47,2.25,1,3.52,1.6l0.47,0.22C625.83,354.26,658.32,373.97,667.33,409.58z"/>
	<path class="st19" d="M587.7,333.58l-8.84,4.23v-4.62C581.39,334.1,587.7,333.58,587.7,333.58z"/>
	<path class="st5" d="M621.44,409.58h-98.88c2.03-7.57,11.87-41.52,28.16-51.35c1.07-0.65,2.12-1.28,3.13-1.89l-6.26,9.84
		c0,0,36,0.38,39.16,2.85l17.59-24.94l0.36,0.16l3.52,1.6l0.47,0.22l-16.3,23.83l13.74,2.47L621.44,409.58z"/>
	<g>
		<path d="M621.98,409.58h-1.07l-17.96-44.07c-0.11-0.26,0.01-0.55,0.27-0.65c0.25-0.11,0.55,0.01,0.65,0.27L621.98,409.58z"/>
	</g>
	<g>
		<path d="M575.41,312.01c-0.14,0-0.28-0.06-0.38-0.17c-1.65-1.86-3.08-1.12-3.14-1.09c-0.24,0.13-0.54,0.04-0.68-0.19
			c-0.13-0.24-0.05-0.54,0.19-0.68c0.74-0.42,2.61-0.7,4.38,1.3c0.18,0.21,0.16,0.52-0.04,0.71
			C575.64,311.97,575.52,312.01,575.41,312.01z"/>
	</g>
	<g>
		<path d="M581.04,312.95c-0.07,0-0.13-0.01-0.19-0.04c-0.25-0.11-0.37-0.4-0.27-0.65c0.03-0.06,0.66-1.53,2.26-2.19
			c1.19-0.48,2.57-0.39,4.11,0.26c0.25,0.11,0.37,0.4,0.26,0.66c-0.11,0.25-0.4,0.37-0.66,0.26c-1.58-0.68-2.9-0.65-3.94,0.07
			c-0.78,0.55-1.12,1.31-1.12,1.32C581.42,312.83,581.23,312.95,581.04,312.95z"/>
	</g>
	<g>
		<path d="M578.97,320.88c-1.13,0-2.46-0.17-2.87-0.89c-0.17-0.31-0.27-0.82,0.28-1.53c1.43-1.88-0.05-5.79-0.07-5.83
			c-0.1-0.26,0.03-0.55,0.29-0.65c0.26-0.1,0.55,0.03,0.65,0.29c0.07,0.18,1.7,4.47-0.07,6.8c-0.21,0.28-0.21,0.41-0.2,0.43
			c0.19,0.34,1.82,0.48,3.42,0.3c0.26-0.03,0.52,0.17,0.55,0.44c0.03,0.27-0.17,0.52-0.44,0.55
			C580.18,320.83,579.61,320.88,578.97,320.88z"/>
	</g>
	<path class="st5" d="M574.38,322.86h8.96c0,0-1.11,3.5-3.58,3.5S575.24,326.18,574.38,322.86z"/>
	<circle class="st2" cx="573.53" cy="314.58" r="1.19"/>
	<circle class="st2" cx="584.19" cy="314.58" r="1.19"/>
	<polygon class="st20" points="408.4,412.13 755.02,412.13 755.02,416.75 737.28,418.4 431.75,418.4 408.4,416.75 	"/>
	<path class="st21" d="M663.71,230.38H558.53c-7.24,0-13.12-5.87-13.12-13.12V69.88c0-7.24,5.87-13.12,13.12-13.12h105.18
		c7.24,0,13.12,5.87,13.12,13.12v147.38C676.82,224.5,670.95,230.38,663.71,230.38z"/>
	<path class="st4" d="M664.02,227.86h-105.7c-5.73,0-10.38-4.65-10.38-10.38V70.02c0-5.73,4.65-10.38,10.38-10.38h105.7
		c5.73,0,10.38,4.65,10.38,10.38v147.46C674.4,223.22,669.75,227.86,664.02,227.86z"/>
	<path class="st5" d="M569.43,208.77c0,0-27.85-28.75,18.27-63.65c0,0-16.3-22.36,1.64-42.27s58.49-5.28,55.54,22.67
		c0,0-1.72,16.4-8.85,20.09c0,0,0.25,43.74-1.97,53.33S569.43,208.77,569.43,208.77z"/>
	<path class="st10" d="M629.44,142.12l5.25,28.56l-26.25,5.25l-0.95-5.98l-1.23-7.78c-0.01,0-0.01,0-0.02,0.01
		c-0.11,0.04-0.79,0.31-1.84,0.46c-3.86,0.56-12.63-0.5-15.15-20.52c-3.26-25.93,2.53-27.02,2.53-27.02s7.79,17.14,29.33,14.45
		c0,0,8.87-8.67,15.21,1.11C638.67,136.21,633.42,141.79,629.44,142.12z"/>
	<path class="st22" d="M621.33,157.74l-13.84,12.21l-1.23-7.78C612.6,160.93,620.82,157.93,621.33,157.74z"/>
	<g>
		<defs>
			<path id="SVGID_1_" d="M664.02,227.86h-105.7c-5.73,0-10.38-4.65-10.38-10.38V70.02c0-5.73,4.65-10.38,10.38-10.38h105.7
				c5.73,0,10.38,4.65,10.38,10.38v147.46C674.4,223.22,669.75,227.86,664.02,227.86z"/>
		</defs>
		<clipPath id="SVGID_2_">
			<use xlink:href="#SVGID_1_"  style="overflow:visible;"/>
		</clipPath>
		<path class="st23" d="M675.6,214.31v6.88c0,0-5.12,6.02-8.5,7.61c-1.61,0.75-26.7,0.79-52.66,0.62
			c-28.81-0.18-58.69-0.62-58.69-0.62s-8.98-4.35-9.29-8.87l61.56-46.62l26.36-4.33L675.6,214.31z"/>
		<path class="st24" d="M675.6,214.31v6.88c0,0-5.12,6.02-8.5,7.61c-1.61,0.75-26.7,0.79-52.66,0.62l19.94-60.44L675.6,214.31z"/>
	</g>
	<g>
		<path d="M603.63,133.77c-0.05,0-0.11-0.01-0.16-0.03c-0.26-0.09-0.4-0.37-0.32-0.63c0.02-0.05,1.58-4.54,8.01-2.79
			c0.27,0.07,0.42,0.35,0.35,0.61c-0.07,0.27-0.34,0.43-0.61,0.35c-5.49-1.49-6.75,1.99-6.8,2.14
			C604.03,133.64,603.84,133.77,603.63,133.77z"/>
	</g>
	<g>
		<path d="M596.54,135.62c-0.14,0-0.27-0.06-0.37-0.17c-2.37-2.64-5.72-0.89-5.86-0.82c-0.24,0.13-0.55,0.04-0.68-0.2
			c-0.13-0.24-0.04-0.55,0.2-0.68c0.04-0.02,4.18-2.2,7.08,1.03c0.18,0.21,0.17,0.52-0.04,0.71
			C596.78,135.58,596.66,135.62,596.54,135.62z"/>
	</g>
	<g>
		<path d="M599.67,146.76c-0.4,0-0.74-0.08-0.96-0.26c-0.18-0.15-0.45-0.49-0.29-1.11c0.49-1.94-0.01-9.44-0.01-9.51
			c-0.02-0.28,0.19-0.51,0.47-0.53c0.26-0.01,0.51,0.19,0.53,0.47c0.02,0.31,0.51,7.74-0.01,9.83c-0.02,0.1-0.02,0.13-0.02,0.13
			c0.35,0.23,2.53-0.4,4.56-1.34c0.25-0.11,0.55-0.01,0.66,0.24c0.12,0.25,0.01,0.55-0.24,0.66
			C603.3,145.82,601.08,146.76,599.67,146.76z"/>
	</g>
	<g>
		<path d="M605.61,153.07c-0.09,0-0.16,0-0.18,0c-0.55-0.02-0.98-0.49-0.96-1.04c0.02-0.54,0.46-0.96,1-0.96c0.01,0,0.02,0,0.04,0
			l0,0c0.05,0,4.9,0.11,7.12-3.53c0.29-0.47,0.91-0.62,1.37-0.33c0.47,0.29,0.62,0.9,0.33,1.37
			C611.74,152.85,606.64,153.07,605.61,153.07z"/>
	</g>
	<circle cx="593.96" cy="138.82" r="1.8"/>
	<circle cx="608.3" cy="135.84" r="1.8"/>
	<circle class="st12" cx="322.82" cy="80.42" r="6.38"/>
	<circle class="st12" cx="346.82" cy="80.42" r="6.38"/>
	<circle class="st12" cx="370.82" cy="80.42" r="6.38"/>
	<circle class="st5" cx="232.17" cy="275.42" r="25.28"/>
	<circle class="st5" cx="610.03" cy="205.15" r="14.5"/>
	<path class="st25" d="M232.18,243.77c-17.48,0-31.65,14.17-31.65,31.65c0,17.48,14.17,31.65,31.65,31.65s31.65-14.17,31.65-31.65
		C263.81,257.95,249.65,243.79,232.18,243.77z M241.22,292.37c-14.35-0.02-25.98-11.64-25.99-25.99c0-2.93,1.62-5.61,4.2-6.99
		c2.58-1.37,5.71-1.21,8.14,0.43c0.25,0.17,0.43,0.44,0.48,0.74l1.7,9.59c0.09,0.49-0.15,0.97-0.59,1.2l-4.45,2.33
		c1.82,4.12,5.11,7.41,9.23,9.23l2.32-4.46c0.23-0.44,0.71-0.68,1.2-0.59l9.59,1.7c0.3,0.05,0.57,0.23,0.74,0.48
		c1.64,2.42,1.8,5.56,0.43,8.14C246.84,290.76,244.15,292.37,241.22,292.37z"/>
	<path class="st25" d="M492.79,154.49c-6.71,0-12.15,5.44-12.15,12.15c0,6.71,5.44,12.15,12.15,12.15s12.15-5.44,12.15-12.15
		C504.94,159.93,499.5,154.49,492.79,154.49z M496.26,173.15c-5.51-0.01-9.98-4.47-9.98-9.98c0-1.12,0.62-2.16,1.61-2.68
		c0.99-0.53,2.19-0.46,3.13,0.17c0.1,0.07,0.16,0.17,0.18,0.28l0.65,3.68c0.03,0.19-0.06,0.37-0.23,0.46l-1.71,0.89
		c0.7,1.58,1.96,2.84,3.54,3.54l0.89-1.71c0.09-0.17,0.27-0.26,0.46-0.23l3.68,0.65c0.12,0.02,0.22,0.09,0.28,0.18
		c0.63,0.93,0.69,2.13,0.16,3.13C498.42,172.53,497.39,173.15,496.26,173.15z"/>
	<path class="st25" d="M610.03,187.65c-9.67,0-17.5,7.84-17.5,17.5c0,9.67,7.84,17.5,17.5,17.5c9.67,0,17.5-7.84,17.5-17.5
		C627.52,195.49,619.69,187.66,610.03,187.65z M615.03,214.53c-7.94-0.01-14.37-6.44-14.38-14.38c0-1.62,0.89-3.1,2.32-3.86
		c1.43-0.76,3.16-0.67,4.5,0.24c0.14,0.09,0.24,0.24,0.27,0.41l0.94,5.3c0.05,0.27-0.08,0.54-0.33,0.66l-2.46,1.29
		c1.01,2.28,2.83,4.1,5.1,5.1l1.29-2.47c0.13-0.24,0.39-0.37,0.66-0.33l5.31,0.94c0.17,0.03,0.31,0.12,0.41,0.26
		c0.91,1.34,1,3.07,0.24,4.5C618.14,213.63,616.65,214.53,615.03,214.53z"/>
	<path class="st25" d="M581.71,375.72c-7.55,0-13.67,6.12-13.67,13.67s6.12,13.67,13.67,13.67c7.55,0,13.67-6.12,13.67-13.67
		C595.37,381.84,589.26,375.73,581.71,375.72z M585.62,396.71c-6.2-0.01-11.22-5.03-11.23-11.23c0-1.26,0.7-2.42,1.81-3.02
		c1.12-0.59,2.47-0.52,3.52,0.19c0.11,0.07,0.18,0.19,0.21,0.32l0.73,4.14c0.04,0.21-0.07,0.42-0.25,0.52l-1.92,1
		c0.79,1.78,2.21,3.2,3.99,3.99l1-1.93c0.1-0.19,0.31-0.29,0.52-0.25l4.14,0.73c0.13,0.02,0.25,0.1,0.32,0.21
		c0.71,1.05,0.78,2.4,0.19,3.52C588.04,396.01,586.88,396.71,585.62,396.71z"/>
	<path class="st5" d="M695.91,258.99h-28.82c-1.72,0-3.12-1.4-3.12-3.12l0,0c0-1.72,1.4-3.12,3.12-3.12h28.82
		c1.72,0,3.12,1.4,3.12,3.12l0,0C699.03,257.59,697.63,258.99,695.91,258.99z"/>
	<path class="st5" d="M697.91,267.11H676.8c-0.62,0-1.12-0.5-1.12-1.12l0,0c0-0.62,0.5-1.12,1.12-1.12h21.11
		c0.62,0,1.12,0.5,1.12,1.12l0,0C699.03,266.61,698.53,267.11,697.91,267.11z"/>
	<path class="st5" d="M697.67,263.05h-21.11c-0.62,0-1.12-0.5-1.12-1.12l0,0c0-0.62,0.5-1.12,1.12-1.12h21.11
		c0.62,0,1.12,0.5,1.12,1.12l0,0C698.79,262.55,698.29,263.05,697.67,263.05z"/>
	<path class="st5" d="M581.19,72.22h-23.76c-1.15,0-2.09-0.94-2.09-2.09v0c0-1.15,0.94-2.09,2.09-2.09h23.76
		c1.15,0,2.09,0.94,2.09,2.09v0C583.28,71.28,582.35,72.22,581.19,72.22z"/>
	<path class="st5" d="M573.59,76.02h-17.2c-0.58,0-1.05-0.47-1.05-1.05l0,0c0-0.58,0.47-1.05,1.05-1.05h17.2
		c0.58,0,1.05,0.47,1.05,1.05l0,0C574.63,75.55,574.16,76.02,573.59,76.02z"/>
	<path class="st5" d="M573.59,79.55h-17.2c-0.58,0-1.05-0.47-1.05-1.05l0,0c0-0.58,0.47-1.05,1.05-1.05h17.2
		c0.58,0,1.05,0.47,1.05,1.05l0,0C574.63,79.09,574.16,79.55,573.59,79.55z"/>
	<path class="st5" d="M486.87,69.08h-17.93c-0.6,0-1.1-0.49-1.1-1.1v0c0-0.6,0.49-1.1,1.1-1.1h17.93c0.6,0,1.1,0.49,1.1,1.1v0
		C487.97,68.59,487.47,69.08,486.87,69.08z"/>
	<path class="st5" d="M480.93,72.27h-12.41c-0.37,0-0.66-0.3-0.66-0.66l0,0c0-0.37,0.3-0.66,0.66-0.66h12.41
		c0.37,0,0.66,0.3,0.66,0.66l0,0C481.59,71.97,481.29,72.27,480.93,72.27z"/>
	<path class="st5" d="M480.93,74.53h-12.41c-0.37,0-0.66-0.3-0.66-0.66l0,0c0-0.37,0.3-0.66,0.66-0.66h12.41
		c0.37,0,0.66,0.3,0.66,0.66l0,0C481.59,74.24,481.29,74.53,480.93,74.53z"/>
</g>
</svg>
