<?xml version="1.0" encoding="utf-8"?>
<!-- Generator: Adobe Illustrator 24.3.0, SVG Export Plug-In . SVG Version: 6.00 Build 0)  -->
<svg version="1.1" id="Layer_13" xmlns="http://www.w3.org/2000/svg" xmlns:xlink="http://www.w3.org/1999/xlink" x="0px" y="0px"
	 viewBox="0 0 430.14 333.13" style="enable-background:new 0 0 430.14 333.13;" xml:space="preserve">
<style type="text/css">
	.st0{fill:#223D4E;}
	.st1{fill:#F8A994;}
	.st2{fill:#F26E71;}
	.st3{fill:#233D4D;}
	.st4{fill:#A1C181;}
	.st5{fill:#FFFFFF;}
	.st6{fill:#F8A799;}
	.st7{fill:none;stroke:#FFFFFF;stroke-width:3;stroke-miterlimit:10;}
	.st8{fill:#1F3B4F;}
	.st9{fill:#EDEAEC;}
	.st10{fill:#F8A690;}
	.st11{fill:#FBCBC1;}
	.st12{fill:#F8A796;}
	.st13{fill:#0D191A;}
	.st14{fill:#E0E0E0;}
	.st15{fill:#FCCC3F;}
</style>
<g>
	<g>
		<path class="st0" d="M134.02,22.58c-13.11-0.33-14.18,8.06-14.18,8.06s-5.09-6.02-12.34-2.31c-7.25,3.7-4.63,10.8-4.63,10.8
			s-10.18,0-11.73,10.34s7.87,14.35,7.87,14.35s-4.32,12.19,8.79,11.26l44.44,3.55c0,0,8.95-4.17,5.55-14.2c0,0,5.7-5.38,0.77-13.88
			c0,0,2.32-6.65-2.93-13.43c-5.25-6.79-10.65-3.55-10.65-3.55S144.65,22.85,134.02,22.58z"/>
	</g>
	<g>
		<path class="st1" d="M172.61,92.5l-0.31,29.95l-42.59,8.02l-10.87-21.53c0,0,13.81-1.61,15.19-3.61c0.41-0.58,0.23-1.54-0.22-2.6
			c-1.09-2.56-3.79-5.73-3.79-5.73c-20.05,5.86-20.21-14.97-20.52-18.36c-0.31-3.39-5.09-12.19-5.09-12.19s4.67-0.66,8.03-5.47
			c2.27-3.26-0.3-8.83-0.3-8.83c3.24,0.71,6.39-2.43,6.39-2.43c7.61,3.55,11.06-2.43,11.06-2.43c2.74,5.17,12.17,4.16,12.79,4.36
			c0.61,0.2,1.52,14.61,1.52,16.03c0,1.42,1.12,3.85,4.06,2.84c2.94-1.01,2.94-10.35,2.94-10.35s6.39,2.23,6.5,7.2
			c0.1,4.97-6.69,6.33-6.69,6.33c0.77,5.09,13.89,20.06,13.89,20.06L172.61,92.5z"/>
	</g>
	<g>
		<path class="st2" d="M133.81,102.72c-1.09-2.56-3.79-5.73-3.79-5.73c16.56-6.7,15.94-16.89,15.94-16.89
			C148.13,94.8,133.81,102.72,133.81,102.72z"/>
	</g>
	<g>
		<path class="st3" d="M127.16,107.65c0,0-0.27,13.65,2.86,15.38c3.13,1.73,26.11-1.26,38.54-14.95l-0.01-14.94l8.51-2.21
			l10.69,146.46H136.7L122.11,112.3l0.85-3.99L127.16,107.65z"/>
	</g>
	<g>
		<path class="st4" d="M170.32,92.67c0,0,34.72-16.32,53.3,4.27s108.42,139.44,108.42,139.44l-150.78,1.1
			C181.26,237.48,168.81,122.33,170.32,92.67z"/>
	</g>
	<g>
		<path class="st4" d="M124.23,108.15c0,0,17.25,127.7,20.9,129.34l-35.76,0.72l-8.87-37.94l-15.38,37.52l-54.42-0.31L72.41,125.9
			c0,0,2.9-8.71,23.84-12.84C117.19,108.94,124.23,108.15,124.23,108.15z"/>
	</g>
	<g>
		<g>
			<polygon class="st5" points="109.38,238.21 93.05,167.79 95.75,164.87 111.51,238.15 			"/>
		</g>
	</g>
	<g>
		<path class="st6" d="M337.27,265.14l-94.7-112.54c0,0-5.23-40.61-29.09-35.19c-23.65,5.38-15.41,29.41-11.55,37.12
			c3.85,7.7,5.95,20.66,0,32.21c-5.95,11.55-12.8,40.83-0.99,58c0,0-16.64,20.93,0.27,34.08
			C218.11,291.98,337.27,265.14,337.27,265.14"/>
	</g>
	<g>
		<path class="st7" d="M337.27,265.14"/>
	</g>
	<g>
		<g>
			<path class="st5" d="M337.27,265.97c-0.24,0-0.47-0.1-0.63-0.29l-94.85-112.72l-0.03-0.24c-0.03-0.24-3.2-23.82-15.08-32.11
				c-3.83-2.67-8.2-3.47-13.01-2.38c-7.62,1.73-12.48,5.61-14.46,11.53c-0.14,0.43-0.61,0.67-1.05,0.52
				c-0.43-0.14-0.67-0.61-0.52-1.05c2.18-6.5,7.45-10.75,15.66-12.62c5.28-1.2,10.1-0.31,14.32,2.64
				c5.26,3.67,9.51,10.4,12.64,19.99c2.05,6.29,2.92,11.81,3.09,13.02l94.54,112.35c0.29,0.35,0.25,0.87-0.1,1.16
				C337.64,265.91,337.46,265.97,337.27,265.97z"/>
		</g>
	</g>
	<g>
		<path class="st8" d="M266.8,77.57L192.25,290.5c-3.14,8.97,3.52,18.36,13.02,18.36h97.36c12.64,0,23.87-8.06,27.92-20.04
			l68.06-201.53c3.32-9.82-3.99-19.99-14.35-19.99H281.28C274.76,67.3,268.96,71.42,266.8,77.57z"/>
	</g>
	<g>
		<path class="st5" d="M272.43,83.55l1.42-3.98c1.44-4.04,5.27-6.74,9.56-6.74h96.76c3.78,0,6.46,3.71,5.26,7.3l-1.13,3.42
			l-66.41,200.14c-1.94,5.85-7.42,9.8-13.58,9.8h-98.52c-4.12,0-7-4.09-5.61-7.97"/>
	</g>
	<g>
		<path class="st9" d="M385.43,80.13l-1.13,3.42H272.43l1.42-3.98c1.44-4.04,5.27-6.74,9.56-6.74h96.76
			C383.95,72.83,386.63,76.54,385.43,80.13z"/>
	</g>
	<g>
		<path class="st10" d="M366.8,110.78c-8.76,7.96-3.2,20.8,1.31,25.74c4.51,4.94,10.32,10.03,10.32,10.03
			c-1.35-1.18-6.59-0.27-8.11-0.03c-7.64,1.21-11.44,6.57-12.86,13.82c-0.78,4.01-1.06,8.95,0.61,12.82c-0.34-0.79-8.23,3.2-9,3.68
			c-4.79,2.98-7.33,6.98-7.62,12.67c-0.27,5.27,1.5,10.59,4.69,14.77c-0.31-0.4-4.09,2.72-4.33,2.95c-4.1,3.9-6.09,9.98-5.8,15.57
			c0.32,5.99,4.1,10.97,7.36,15.73c0,0,2.04,2.98,2.04,2.98l-8.14,23.27c0,0,37.08-13.08,33.01-41.88c0,0,22.39-12.65,10.47-31.12
			c0,0,12.07-8,14.69-16c2.62-8-3.05-17.6-3.05-17.6s12.65-13.52,9.45-32.28S377.85,100.74,366.8,110.78z"/>
	</g>
	<g>
		<g>
			<path class="st2" d="M350.54,249.26c-0.17,0-0.34-0.08-0.45-0.23l-5.11-7.2c-0.18-0.25-0.12-0.59,0.13-0.77
				c0.25-0.18,0.59-0.12,0.77,0.13l5.11,7.2c0.18,0.25,0.12,0.59-0.13,0.77C350.76,249.23,350.65,249.26,350.54,249.26z"/>
		</g>
	</g>
	<g>
		<g>
			<path class="st2" d="M359.43,207.31c-0.13,0-0.27-0.05-0.38-0.15c-5.01-4.69-12.67-2.38-12.74-2.35
				c-0.29,0.09-0.6-0.07-0.69-0.36c-0.09-0.29,0.07-0.6,0.36-0.69c0.34-0.11,8.34-2.53,13.82,2.6c0.22,0.21,0.23,0.56,0.03,0.78
				C359.73,207.25,359.58,207.31,359.43,207.31z"/>
		</g>
	</g>
	<g>
		<g>
			<path class="st2" d="M364.06,175.18c-0.12,0-0.24-0.04-0.34-0.12c-0.03-0.02-2.71-2.11-5.5-1.37c-0.29,0.08-0.6-0.1-0.67-0.39
				c-0.08-0.29,0.1-0.6,0.39-0.67c3.33-0.88,6.34,1.47,6.46,1.57c0.24,0.19,0.28,0.53,0.09,0.77
				C364.38,175.11,364.22,175.18,364.06,175.18z"/>
		</g>
	</g>
	<g>
		<g>
			<path class="st2" d="M384.44,151.72c-0.12,0-0.24-0.04-0.34-0.11l-6-4.62c-0.24-0.19-0.29-0.53-0.1-0.77
				c0.18-0.24,0.53-0.29,0.77-0.1l6,4.62c0.24,0.19,0.29,0.53,0.1,0.77C384.77,151.65,384.61,151.72,384.44,151.72z"/>
		</g>
	</g>
	<g>
		<path class="st11" d="M362.01,208.9c0,0-5.53,13.41-13.24,14.72c0,0,11.93,21.97,19.05,8.29
			C372.51,222.9,362.01,208.9,362.01,208.9z"/>
	</g>
	<g>
		<path class="st11" d="M354.91,195c0,0,11.06-8.43,10.84-18.4c0,0,11.39,6.57,11.72,14.46S371.12,211.75,354.91,195z"/>
	</g>
	<g>
		<path class="st11" d="M379,148.67c0,0-2.23,15.66-9.82,19.05c0,0,11.11,14.68,20.77,3.18C397.62,161.78,379,148.67,379,148.67z"/>
	</g>
	<g>
		<path class="st11" d="M371.17,124.23c0,0,9.92-6.86,11.76-14.46c0,0,10.54,0.86,14.21,10.29S385.75,142.48,371.17,124.23z"/>
	</g>
	<g>
		<path class="st12" d="M71.72,92.29c-8.1,1.42-8.96,9.52-5.79,20.91c0,0-18.85,0.75-19.23,5.97c-0.37,5.23,2.05,7,2.05,7
			s-5.23,3.82-0.19,10.35c0,0-2.43,7.47,1.68,9.33c0,0-0.19,7.09,5.41,6.72c5.6-0.37,10.27-1.12,8.4,2.99s-8.77,20.91-13.81,28.37
			c-5.04,7.47-25.57,38.64-25.39,53.57H79c0,0,10.83-49.46,13.25-58.24c2.43-8.77,13.07-41.44-2.61-61.41
			c-9.19-10.32-12.89-15.22-13.09-18.61C76.35,95.86,75.16,91.69,71.72,92.29z"/>
	</g>
	<g>
		<g>
			<path class="st2" d="M78.68,150.3c-0.03,0-0.07,0-0.1-0.01c-0.3-0.06-0.5-0.34-0.44-0.64c1.83-9.75,2.78-22.97-3.05-30.56
				c-3.46-4.5-7.7-4.88-7.74-4.88c-0.3-0.02-0.53-0.29-0.51-0.59c0.02-0.3,0.29-0.53,0.59-0.51c0.19,0.01,4.78,0.42,8.53,5.31
				c4.88,6.36,5.97,16.93,3.26,31.44C79.17,150.11,78.94,150.3,78.68,150.3z"/>
		</g>
	</g>
	<g>
		<g>
			<path class="st2" d="M49.77,126.72c-0.26,0-0.5-0.19-0.54-0.46c-0.05-0.3,0.15-0.58,0.45-0.63l27.54-4.55
				c0.3-0.05,0.58,0.15,0.63,0.45c0.05,0.3-0.15,0.58-0.45,0.63l-27.54,4.55C49.83,126.72,49.8,126.72,49.77,126.72z"/>
		</g>
	</g>
	<g>
		<g>
			<path class="st2" d="M49.77,136.91c-0.26,0-0.5-0.19-0.54-0.46c-0.05-0.3,0.15-0.58,0.45-0.63l30.12-5.02
				c0.3-0.05,0.58,0.15,0.63,0.45c0.05,0.3-0.15,0.58-0.45,0.63l-30.12,5.02C49.83,136.91,49.8,136.91,49.77,136.91z"/>
		</g>
	</g>
	<g>
		<g>
			<path class="st2" d="M51.16,146.16c-0.28,0-0.52-0.21-0.55-0.49c-0.03-0.3,0.18-0.57,0.49-0.61l28.59-3.15
				c0.3-0.03,0.57,0.18,0.61,0.49c0.03,0.3-0.18,0.57-0.49,0.61l-28.59,3.15C51.2,146.16,51.18,146.16,51.16,146.16z"/>
		</g>
	</g>
	<g>
		<g>
			<path class="st2" d="M95.28,141.7c-0.13,0-0.27-0.05-0.37-0.15c-0.07-0.06-7.01-6.31-14.59-3.19c-0.28,0.12-0.6-0.02-0.72-0.3
				c-0.12-0.28,0.02-0.6,0.3-0.72c8.23-3.39,15.68,3.33,15.76,3.4c0.22,0.21,0.24,0.55,0.03,0.78
				C95.58,141.64,95.43,141.7,95.28,141.7z"/>
		</g>
	</g>
	<g>
		<g>
			<path class="st0" d="M126.23,61.05c-0.07,0-0.14-0.01-0.2-0.03c-0.44-0.11-0.71-0.56-0.6-1c0.03-0.12,0.78-2.98,3.72-4.46
				c2.57-1.3,5.93-1.12,9.98,0.53c0.42,0.17,0.62,0.65,0.45,1.08c-0.17,0.42-0.65,0.63-1.08,0.45c-3.59-1.46-6.48-1.66-8.61-0.59
				c-2.27,1.15-2.86,3.37-2.86,3.39C126.94,60.8,126.6,61.05,126.23,61.05z"/>
		</g>
	</g>
	<g>
		<g>
			<path class="st0" d="M109.2,67.23c-0.16,0-0.32-0.05-0.46-0.14c-0.38-0.26-0.48-0.77-0.22-1.15c0.04-0.06,4.15-5.93,12.37-2.69
				c0.42,0.17,0.63,0.65,0.47,1.07c-0.17,0.42-0.65,0.63-1.07,0.47c-7-2.76-10.37,2.03-10.4,2.08
				C109.73,67.11,109.47,67.23,109.2,67.23z"/>
		</g>
	</g>
	<g>
		<g>
			<path class="st2" d="M124.61,79.04c-0.93,0-1.69-0.21-2.07-0.76c-0.73-1.06,0.24-2.41,1.02-3.34c3.67-4.34-0.52-8.53-0.7-8.7
				c-0.33-0.32-0.33-0.84-0.02-1.17c0.32-0.33,0.84-0.34,1.17-0.02c1.92,1.86,4.56,6.53,0.82,10.96c-0.65,0.77-0.82,1.18-0.87,1.34
				c0.65,0.23,3.07-0.22,5.28-1c0.43-0.15,0.9,0.08,1.05,0.51c0.15,0.43-0.08,0.9-0.51,1.05C128.35,78.42,126.23,79.04,124.61,79.04
				z"/>
		</g>
	</g>
	<g>
		<g>
			<path class="st2" d="M123.12,85.51c-3.84,0-5.3-2.51-5.38-2.66c-0.21-0.38-0.13-0.89,0.19-1.15c0.32-0.25,0.74-0.15,0.96,0.22
				c0.1,0.17,2.27,3.67,8.9,0.81c0.36-0.16,0.76,0.07,0.89,0.5c0.13,0.43-0.06,0.9-0.42,1.06
				C126.21,85.19,124.51,85.51,123.12,85.51z"/>
		</g>
	</g>
	<g>
		<circle class="st13" cx="116.32" cy="70.19" r="2.09"/>
	</g>
	<g>
		<circle class="st13" cx="130.84" cy="65.65" r="2.09"/>
	</g>
	<g>
		<path class="st14" d="M299.6,243.01h-54.1c-3.44,0-5.59-3.72-3.88-6.7h0c0.8-1.39,2.28-2.25,3.88-2.25h54.1
			c3.44,0,5.59,3.72,3.88,6.7l0,0C302.69,242.15,301.21,243.01,299.6,243.01z"/>
	</g>
	<g>
		<path class="st14" d="M289.13,254.04H245.1c-2.8,0-4.55-3.02-3.16-5.45l0,0c0.65-1.13,1.85-1.83,3.16-1.83h44.02
			c2.8,0,4.55,3.02,3.16,5.45l0,0C291.64,253.35,290.43,254.04,289.13,254.04z"/>
	</g>
	<g>
		<path class="st15" d="M252.52,213.37c0-0.16-0.1-0.27-0.26-0.3l-4.72-0.73l-0.82-4.43c-0.04-0.22-0.28-0.31-0.53-0.2
			c-0.1,0.04-0.19,0.11-0.26,0.2l-3.6,4.41l-5.16,0.68c-0.25,0.03-0.49,0.25-0.54,0.49c-0.02,0.1,0,0.2,0.06,0.27l2.49,3.46
			l-2.37,4.85c-0.12,0.24-0.03,0.47,0.2,0.51c0.09,0.02,0.2,0,0.3-0.04l5.14-2.28l3.69,2.31c0.18,0.11,0.48,0.03,0.66-0.18
			c0.07-0.09,0.12-0.18,0.13-0.28l0.69-4.86l4.66-3.44C252.42,213.71,252.52,213.53,252.52,213.37z"/>
	</g>
	<g>
		<path class="st15" d="M270.76,213.44c0-0.16-0.1-0.27-0.26-0.3l-4.72-0.73l-0.82-4.43c-0.04-0.22-0.28-0.31-0.53-0.2
			c-0.1,0.04-0.19,0.11-0.26,0.2l-3.6,4.41l-5.16,0.68c-0.25,0.03-0.49,0.25-0.54,0.49c-0.02,0.1,0,0.2,0.06,0.27l2.49,3.46
			l-2.37,4.85c-0.12,0.24-0.03,0.47,0.2,0.51c0.09,0.02,0.2,0,0.3-0.04l5.14-2.28l3.69,2.31c0.18,0.11,0.48,0.03,0.66-0.18
			c0.07-0.09,0.12-0.18,0.13-0.28l0.69-4.86l4.66-3.44C270.67,213.77,270.77,213.6,270.76,213.44z"/>
	</g>
	<g>
		<path class="st15" d="M289.01,213.51c0-0.16-0.1-0.27-0.26-0.3l-4.72-0.73l-0.82-4.43c-0.04-0.22-0.28-0.31-0.53-0.2
			c-0.1,0.04-0.19,0.11-0.26,0.2l-3.6,4.41l-5.16,0.68c-0.25,0.03-0.49,0.25-0.54,0.49c-0.02,0.1,0,0.2,0.06,0.27l2.49,3.46
			l-2.37,4.85c-0.12,0.24-0.03,0.47,0.2,0.51c0.09,0.02,0.2,0,0.3-0.04l5.14-2.28l3.69,2.31c0.18,0.11,0.48,0.03,0.66-0.18
			c0.07-0.09,0.12-0.18,0.13-0.28l0.69-4.86l4.66-3.44C288.91,213.84,289.01,213.67,289.01,213.51z"/>
	</g>
	<g>
		<path class="st15" d="M307.25,213.57c0-0.16-0.1-0.27-0.26-0.3l-4.72-0.73l-0.82-4.43c-0.04-0.22-0.28-0.31-0.53-0.2
			c-0.1,0.04-0.19,0.11-0.26,0.2l-3.6,4.41l-5.16,0.68c-0.25,0.03-0.49,0.25-0.54,0.49c-0.02,0.1,0,0.2,0.06,0.27l2.49,3.46
			l-2.37,4.85c-0.12,0.24-0.03,0.47,0.2,0.51c0.09,0.02,0.2,0,0.3-0.04l5.14-2.28l3.69,2.31c0.18,0.11,0.48,0.03,0.66-0.18
			c0.07-0.09,0.12-0.18,0.13-0.28l0.69-4.86l4.66-3.44C307.16,213.91,307.26,213.73,307.25,213.57z"/>
	</g>
	<g>
		<path class="st15" d="M325.5,213.64c0-0.16-0.1-0.27-0.26-0.3l-4.72-0.73l-0.82-4.43c-0.04-0.22-0.28-0.31-0.53-0.2
			c-0.1,0.04-0.19,0.11-0.26,0.2l-3.6,4.41l-5.16,0.68c-0.25,0.03-0.49,0.25-0.54,0.49c-0.02,0.1,0,0.2,0.06,0.27l2.49,3.46
			l-2.37,4.85c-0.12,0.24-0.03,0.47,0.2,0.51c0.09,0.02,0.2,0,0.3-0.04l5.14-2.28l3.69,2.31c0.18,0.11,0.48,0.03,0.66-0.18
			c0.07-0.09,0.12-0.18,0.13-0.28l0.69-4.86l4.66-3.44C325.4,213.97,325.5,213.8,325.5,213.64z"/>
	</g>
	<g>
		
			<ellipse transform="matrix(0.771 -0.6368 0.6368 0.771 -29.3073 227.9748)" class="st15" cx="302.37" cy="154.74" rx="50.67" ry="35.09"/>
	</g>
	<g>
		<path class="st5" d="M279.12,146.26l1.31-0.86c2.16-1.42,5.07-0.77,6.42,1.44l4.92,8.03c1.39,2.27,4.42,2.88,6.58,1.33
			l29.89-21.49c2.09-1.5,5-0.99,6.45,1.13l0.8,1.16c1.42,2.06,0.91,4.88-1.13,6.33l-38.77,27.45c-2.11,1.49-5.03,0.95-6.46-1.2
			l-11.3-16.95C276.41,150.52,276.99,147.65,279.12,146.26z"/>
	</g>
</g>
</svg>
