<?xml version="1.0" encoding="utf-8"?>
<!-- Generator: Adobe Illustrator 24.1.0, SVG Export Plug-In . SVG Version: 6.00 Build 0)  -->
<svg version="1.0" xmlns="http://www.w3.org/2000/svg" xmlns:xlink="http://www.w3.org/1999/xlink" x="0px" y="0px"
	 viewBox="0 0 1000 1000" style="enable-background:new 0 0 1000 1000;" xml:space="preserve">
<style type="text/css">
	.st0{fill:#C9BEDE;}
	.st1{fill:#3A3F48;}
	.st2{fill:#247DFF;}
	.st3{fill:#FFFFFF;stroke:#FFFFFF;stroke-width:0.8095;stroke-miterlimit:10;}
	
		.st4{fill:none;stroke:#A8C1EF;stroke-width:1.5;stroke-linecap:round;stroke-linejoin:round;stroke-miterlimit:10;stroke-dasharray:10.8185;}
	.st5{opacity:0.7;fill:#E4F2EA;}
	.st6{fill:#E4F2EA;}
	.st7{fill:#2C799B;}
	.st8{fill:#78C2EA;}
	.st9{fill:#59A7C9;}
	.st10{fill:#7CCFE0;}
	.st11{fill:#FFFFFF;}
	.st12{fill:#FDA6C8;}
	.st13{fill:#6F47DD;}
	.st14{fill:#DC3701;}
	.st15{fill:url(#SVGID_1_);}
	.st16{fill:#4053F2;}
	.st17{fill:#3B00BF;}
	.st18{fill:#FDB2D0;}
	.st19{fill:#E079A8;}
	.st20{fill:#050505;}
	.st21{fill:#C2D3FF;}
	.st22{fill:#D7E3FF;}
	.st23{fill:#F5F9FF;}
	.st24{fill:#100F51;}
	.st25{fill:#161668;}
	.st26{fill:#FEFEFE;}
	.st27{fill:#020001;}
	.st28{fill:#FEFEFE;stroke:#000000;stroke-width:2;stroke-miterlimit:10;}
	.st29{fill:none;stroke:#5911AA;stroke-width:1.7093;stroke-miterlimit:10;}
	.st30{fill:#FF84B3;}
	.st31{fill:#1A137E;}
	.st32{fill:none;stroke:#1A137E;stroke-width:2;stroke-linecap:round;stroke-linejoin:round;stroke-miterlimit:10;}
	.st33{fill:none;stroke:#5911AA;stroke-width:2;stroke-miterlimit:10;}
	.st34{fill:none;stroke:#3B00BF;stroke-width:3;stroke-linecap:round;stroke-miterlimit:10;}
	.st35{fill:#FF9398;}
	.st36{fill:none;stroke:#000000;stroke-width:1.8226;stroke-linecap:round;stroke-linejoin:round;stroke-miterlimit:10;}
	.st37{fill:#303D73;}
	.st38{fill:#FFB1B2;}
	.st39{fill:#00CA9C;}
	.st40{fill:#410FBA;}
	.st41{fill:none;stroke:#FFFFFF;stroke-width:0.5675;stroke-miterlimit:10;}
	.st42{fill:#F79E29;}
</style>
<g id="Layer_3">
</g>
<g id="sketchvalley">
</g>
<g id="Layer_2">
	<g>
		<g>
			<path class="st0" d="M418.1,315.2c2.5,4,1.3,9.4-2.7,11.9l-37,23.1c-4,2.5-9.4,1.3-11.9-2.7l-11.8-18.9c-2.5-4-1.3-9.4,2.7-11.9
				l37-23.1c4-2.5,9.4-1.3,11.9,2.7L418.1,315.2z"/>
			<path class="st1" d="M399.4,292.3c-1.7-0.1-3.5,0.3-5.1,1.3l-37,23.1c-1.5,1-2.7,2.3-3.3,3.9l12.5,2.6l23.7,4.9l6-23.5
				L399.4,292.3z"/>
			<polygon class="st2" points="386,279.9 349.2,303 360.9,321.7 360.9,321.7 361.1,322.1 366.5,323.2 390.2,328.1 396.3,304.6 
				397.8,298.7 397.8,298.7 397.8,298.7 397.8,298.7 394.5,293.5 394.5,293.5 			"/>
			<line class="st3" x1="360.8" y1="305.9" x2="382.3" y2="292.2"/>
			<line class="st3" x1="364.2" y1="311.4" x2="385.7" y2="297.8"/>
			<line class="st3" x1="367.6" y1="317.4" x2="389.1" y2="303.7"/>
		</g>
		<path class="st4" d="M601.5,438.3c0,0-47.4-43.6-9.2-63.8c38.2-20.2,220.9,3,178.9-82.3s-146-98.2-146-98.2"/>
		<g>
			<polyline class="st5" points="607.9,195.3 559.8,178.2 604.5,203.4 			"/>
			<polygon class="st6" points="611.1,183.9 606.8,194 580.5,183 			"/>
			<polygon class="st7" points="611.1,183.9 606.8,194 580.5,183 			"/>
			<polygon class="st8" points="559.8,178.2 602.4,173 611.1,183.9 580.5,183 618.5,190.3 625.2,201.5 			"/>
			<polygon class="st6" points="559.8,178.2 604.5,203.4 607.9,195.3 			"/>
			<polygon class="st9" points="559.8,178.2 604.5,203.4 607.9,195.3 			"/>
		</g>
		<g>
			<path class="st10" d="M802.6,419.6c0,4.2-3.4,7.6-7.6,7.6h-76.4c-4.2,0-7.6-3.4-7.6-7.6v-17c0-4.2,3.4-7.6,7.6-7.6h76.4
				c4.2,0,7.6,3.4,7.6,7.6V419.6z"/>
			<circle class="st11" cx="729" cy="411.1" r="7.4"/>
			<rect x="740.7" y="405.5" class="st11" width="50.5" height="1.4"/>
			<rect x="740.7" y="410.2" class="st11" width="29.4" height="1.4"/>
			<rect x="740.7" y="415.2" class="st11" width="36.7" height="1.4"/>
		</g>
		<g>
			<path class="st12" d="M571.8,438.4c0,0,68,58.3,71.8,53.8c3.8-4.5,11.6-107.8,11.6-107.8l24.5-3.6c0,0,18.7,127.5-10.4,162.4
				c-29.1,34.9-86.5-57.2-86.5-57.2s-21.4-27.4-16.6-33.8C570.9,446,571.8,438.4,571.8,438.4z"/>
			<g>
				<path class="st13" d="M636.6,309.6l4.5,72.6c0.2,3.7,3.3,6.5,7,6.4l24.8-0.6c3.9-0.1,6.9-3.3,6.7-7.2l-3.5-72.1
					c-0.2-3.7-3.2-6.6-6.9-6.5l-25.8,0.1C639.5,302.4,636.3,305.7,636.6,309.6z"/>
				<path d="M648,389.4c-4,0-7.4-3.1-7.6-7.2l-4.5-72.6c-0.1-2.1,0.6-4.1,2-5.7s3.4-2.4,5.5-2.4l25.8-0.1c0,0,0,0,0,0
					c4.1,0,7.4,3.2,7.6,7.3l3.5,72.1c0.1,2.1-0.6,4.1-2,5.6c-1.4,1.5-3.3,2.4-5.4,2.4l-24.8,0.6C648.1,389.4,648,389.4,648,389.4z
					 M669.3,303C669.3,303,669.3,303,669.3,303l-25.9,0.1c-1.7,0-3.3,0.7-4.4,1.9c-1.2,1.2-1.7,2.9-1.6,4.5v0l4.5,72.6
					c0.2,3.3,2.9,5.8,6.2,5.7l24.8-0.6c1.7,0,3.2-0.7,4.3-1.9c1.1-1.2,1.7-2.8,1.6-4.5l-3.5-72.1C675.2,305.5,672.5,303,669.3,303z"
					/>
			</g>
			<circle cx="667.9" cy="309.9" r="2.2"/>
			<path class="st12" d="M668.9,331.8c-1.7,3.5,2.2,6.5,2.2,6.5s-4.1,0.4-4,3.7c0.1,3.3,2.9,5.1,2.9,5.1s-2.8-0.3-3.4,2.6
				c-0.5,3,1.7,5.2,1.7,5.2s-2.6,0.3-2,4.2c0.6,3.9,8.9,9.9,12.7,9.2l1,14.5c0,0,4.1-14.7,4.1-15.3s2-2,0.9-5.9c0,0,3.7-3.1,0.6-8.2
				c0,0,3.5-1.2-0.2-8.1c0,0,3.2-0.5,0.6-7.8C683.6,330.4,670.4,328.7,668.9,331.8z"/>
			<path class="st14" d="M682.2,754.1c-10.6,9-22.4,16.3-35,22.3c-70.9,33.6-165.5,25-188.7,25c-244.9-27.2-149.3-309.2-61.4-379.7
				c8.9-7.1,17.7-12.1,26.1-14.4c91.2-25.3,117.9,24,117.9,24l168.4,159.1C709.5,590.3,752.1,694.9,682.2,754.1z"/>
			<linearGradient id="SVGID_1_" gradientUnits="userSpaceOnUse" x1="322.8072" y1="669.4766" x2="477.0643" y2="615.4532">
				<stop  offset="9.327463e-02" style="stop-color:#FF8415"/>
				<stop  offset="1" style="stop-color:#DC3701"/>
			</linearGradient>
			<path class="st15" d="M647.2,776.4c-70.9,33.6-165.5,25-188.7,25c-244.9-27.2-149.3-309.2-61.4-379.7c10.6,3.6,22.8,11,32,26.1
				c20.3,33.5,71.3,201.6,71.3,201.6s14.3,23.4,26.7,49.4C538.7,723.3,577.4,781.7,647.2,776.4z"/>
			<path class="st16" d="M384.3,583.3l32.8-128.6c0,0,1.4-8,12.7-13.4c11.4-5.5,59.9-29.2,59.9-29.2h32c0,0,13,9.6,17.3,13.9
				c0,0,37.2,0.3,40.5,18.9l64.1,47.3l22.1,53.8L384.3,583.3z"/>
			<path class="st17" d="M370.3,607.3c0,0-1.8-32.1-1-36.5c0.8-4.4,16.5-17.3,37.7-20.1c21.2-2.8,21,15.3,21,15.3L370.3,607.3"/>
			<path class="st18" d="M519.7,414.8c1,8.5,4.1,29.5,4.1,38.2c0,8.5-7.6,30.4-11.2,32.9c-0.1,0.1-0.2,0.1-0.3,0.2
				c0,0-19-7.3-21.5-54.3c-1.7-31.4-3.6-45.3-4.6-51.1c-0.5-2.9-0.8-3.8-0.8-3.8l17.6-1.4l21.6,28
				C524.5,403.6,518.7,406.3,519.7,414.8z"/>
			<path class="st19" d="M512.6,485.9c-0.1,0.1-0.2,0.1-0.3,0.2c0,0-19-7.3-21.5-54.3c-1.7-31.4-3.6-45.3-4.6-51.1l2-0.4l14.2,8.7
				c0,0-1.4,35,0,57.2C503.3,460.6,508.8,476.6,512.6,485.9z"/>
			<path class="st12" d="M523.7,539.6c0,0-117.9,21.4-142.9,48.7c-25,27.3-3.1,33.5,26.5,33.2c29.6-0.3,109.9-66.7,109.9-66.7
				l19.6,4.4l12.9-10.6C549.7,548.6,528.5,538.7,523.7,539.6z"/>
			<polyline class="st20" points="552.4,546.6 496.9,589.6 651.9,592.3 687.9,546.6 552.4,546.6 			"/>
			<path class="st21" d="M706.9,453.1l-19,93.5H552.4c0,0,15.2-83.9,17-97.5c1.8-13.6,9.2-11.4,9.2-11.4s9.4,0.3,23,0.6
				c33.3,0.9,91.8,2.5,98.2,2.5C708.6,440.8,706.9,453.1,706.9,453.1z"/>
			<path class="st22" d="M569.1,450.8l-16.7,95.8l38.5,0l107.3-105.8c-34.7-0.3-113-3.8-119.3-3.5
				C568.9,437.6,569.1,450.8,569.1,450.8z"/>
			
				<ellipse transform="matrix(0.1248 -0.9922 0.9922 0.1248 60.1485 1063.5105)" class="st23" cx="632.9" cy="497.7" rx="10.6" ry="9.2"/>
			<path class="st24" d="M770.4,553.9c0,7.7-0.4,112-35,156.8c-16.6,33.5-43.8,90-46.6,105.1c-0.2,0.9-0.2,1.6-0.2,2.2
				c0,0-9.2-1.3-10.5,2.6c0,0-22.2-25.2-41-24.8c0,0,34.5-39.7,39.9-79.6c5.4-40,8.8-98.1,16.9-116.5c0,0-65,12-75.2,17.9
				l-12.8-28.2c0,0,0.1-0.1,0.4-0.4c6.2-5.9,83.2-77.8,159.4-66.3C774.3,536.8,770.4,546.2,770.4,553.9z"/>
			<path class="st18" d="M688.8,815.8c-0.2,0.9-0.2,1.6-0.2,2.2c0,0-9.2-1.3-10.5,2.6c0,0-22.2-25.2-41-24.8c0,0,4.8-5.5,11.1-14.5
				c3.6,2.7,7.2,5.3,10.8,7.6c9.6,6.3,18.9,12.7,27.6,18.7C687.4,810.5,688.1,813.3,688.8,815.8z"/>
			<path d="M682.3,775c-0.5,9.9,1.8,22.3,4.3,32.5c-8.7-6-18-12.4-27.6-18.7c-3.5-2.3-7.1-4.9-10.8-7.6c4.5-6.4,9.7-14.5,14.5-23.6
				c6.6-12.5,12.4-27,14.3-41.5c5.4-40,8.8-98.1,16.9-116.5c0,0-65,12-75.2,17.9l-12.8-28.2c0,0,0.1-0.1,0.4-0.4
				c30-13.2,129.8-56.8,136.2-51.5c7.5,6.2-3.7,27.9-6.2,39.1c-2.5,11.2-42.8,170.7-51.5,187.4C683.3,766.9,682.5,770.7,682.3,775z"
				/>
			<path class="st25" d="M721.4,776.8c-13.8,14.6-20.4,30.7-23.2,38.9c-11.5-8.2-25.2-17.6-39.2-26.8c-36.8-24.2-79.8-72.9-94.2-94
				c-14.4-21.1-11.1-71.8-11.1-71.8s5.2-3.6-44.5,22.2c-49.7,25.7-82.9,11.3-99.1-10.1c-1.8-2.4-3-4.6-3.8-6.8
				c-6-17.2,18.2-27.2,18.2-27.2c66.8-35.8,89.8-35,138.3-41.8c48.5-6.9,59.8,57,72.4,89.3C645,674.1,699,747.1,721.4,776.8z"/>
			<path d="M707.3,795.8c-4.7,8-7.5,15.2-9.1,19.9c-3.7-2.6-7.6-5.3-11.6-8.2c-8.7-6-18-12.4-27.6-18.7c-3.5-2.3-7.1-4.9-10.8-7.6
				c-34.1-25.7-70.4-67.3-83.5-86.3c-14.4-21.1-11.1-71.8-11.1-71.8s5.2-3.6-44.5,22.2c-49.7,25.7-82.9,11.3-99.1-10.1
				c-1.8-2.4-3-4.6-3.8-6.8c30.6-13.6,110.5-49,124-53c16.8-5,44.1-13,52.8,21.1c8.7,34.1,9.4,75.8,26.1,108.6
				c4.1,8,27.1,28.5,53.6,52.5c6.3,5.7,12.9,11.5,19.6,17.4C690.5,782,698.9,789.1,707.3,795.8z"/>
			<g>
				<path class="st26" d="M764.5,863.7c-3,0-5.9-2.6-8.5-4.9c-0.5-0.4-0.9-0.8-1.4-1.2c-1.1-0.9-1.9-1.5-2.6-1.9
					c-3-1.6-19.7-15.5-28.5-22.9l8.8-39.8l100.2-71.4c0.1,0,0.4,0,0.4,0c3.4,0,5.5,0.8,6.8,2.4c3.5,4.3,1.4,16-2.2,33.4
					c-5.3,25.9-19.4,45.2-26.9,55.6c-0.5,0.7-1,1.4-1.5,2c-6.6,9.3-40.4,45.7-42.9,48.3C765.7,863.6,765.1,863.7,764.5,863.7z"/>
				<path d="M833,722.5C833,722.5,833,722.5,833,722.5c4,0,5.4,1.2,6.1,2c3.2,4,1.1,15.5-2.4,32.6c-5.3,25.7-19.2,44.9-26.7,55.2
					c-0.5,0.7-1,1.4-1.5,2c-6.5,9-39.2,44.3-42.7,48.1c-0.4,0.2-0.9,0.2-1.3,0.2c-2.6,0-5.4-2.5-7.8-4.7c-0.5-0.4-0.9-0.8-1.4-1.2
					c-1.1-1-2-1.6-2.8-2c-2.7-1.4-17.8-13.9-27.8-22.4l8.6-38.8L833,722.5C832.9,722.5,832.9,722.5,833,722.5 M833,720.5
					c-0.2,0-0.5,0-0.8,0l-100.8,71.8l-9.1,40.8c0,0,25.1,21.3,29.1,23.5c0.8,0.4,1.6,1,2.5,1.8c3,2.6,6.6,6.4,10.5,6.4
					c0.8,0,1.7-0.2,2.5-0.6c0,0,36.1-38.9,43.1-48.6c7-9.7,22.8-30.1,28.6-58C844.3,730.2,845.3,720.6,833,720.5L833,720.5z"/>
			</g>
			<path class="st27" d="M753.9,858.3c-0.9-0.8-1.7-1.4-2.5-1.8c-4-2.1-29.1-23.5-29.1-23.5l9.1-40.8l100.8-71.8c0.3,0,0.5,0,0.8,0
				C843.9,777.2,767.9,846.3,753.9,858.3z"/>
			<path class="st27" d="M742.3,901.2c-42.6,30.7-102.5-38.6-118.6-62.4c-9.9-14.7-9.3-22.3-7.4-26c1.2-2.3,2.9-3,2.9-3l20.6-17.2
				l48.9,25.3c5.3,26.9,40.1,57.7,40.1,57.7c3.8,2.5,6.7,5.3,8.9,8.1C743.1,890.6,744.2,897.5,742.3,901.2z"/>
			<path class="st28" d="M742.3,901.2c-42.6,30.7-102.5-38.6-118.6-62.4c-9.9-14.7-9.3-22.3-7.4-26c6.6-1.1,15.5-0.6,21.1,7.7
				c10,14.8,18.8,32.7,40.4,40.9c16.4,6.2,44.8,14,59.9,22.3C743.1,890.6,744.2,897.5,742.3,901.2z"/>
			<path class="st17" d="M469.1,420.8c0,0-4.5,1.2-4.5,9.2s0,42.1,0,42.1s7.6-17.9,16.4-21.7c2.2,0,6.6,0.2,7,7.2
				c0.4,7,4.9,16,12.3,17l-10.9-62.6L469.1,420.8z"/>
			<path class="st17" d="M519.6,411.2c0,0,4.8-1.2,6,3.1c1.2,4.3,6,17.7,10.9,23.6c4.9,5.9,6.6,8.6,6.6,8.6s-5.7-1.6-9.6-6.6
				c0,0-2.9,1.4-2.2,5.1c0.7,3.7-2.1,20.7-9.7,20.7L519.6,411.2z"/>
			<ellipse class="st29" cx="548.4" cy="344.9" rx="7.9" ry="12.6"/>
			<path class="st18" d="M552.5,360.6l2.2,37.2c-3.9,3.4-7.9,5.6-12.1,6.8c-25.2,7.3-52.8-20.9-52.8-20.9c-7.9,10-13.5,5.2-18.1-5.7
				c-4.6-10.9,2.5-18.7,2.5-18.7l1-39.8l42.1-6.4l17.3-2.6c10.2,6,13.2,33.6,13.2,33.6s15.5,3.2,15.1,7.9
				C562.5,356.8,552.5,360.6,552.5,360.6z"/>
			<path class="st30" d="M542.7,404.6c-25.2,7.3-52.8-20.9-52.8-20.9c-7.9,10-13.5,5.2-18.1-5.7c-4.6-10.9,2.5-18.7,2.5-18.7l1-39.8
				l42.1-6.4c-4.3,3.5-9.6,9.2-9,15c1,9.7,2.3,50,11,58.9C525.5,393.3,534.8,400.7,542.7,404.6z"/>
			<path class="st31" d="M545,328c-4.5,2-5.1,4.4-2.8,6.2c3.7-2.5,5.3-3.4,8.4-3c3.1,0.4,1.4-3.1,0.7-3.3
				C550.6,327.7,548.7,326.4,545,328z"/>
			<path class="st31" d="M473.1,372c0,0-23.5-11.6-22-35.4c1.4-23.8,20.6-30.6,20.6-30.6s-2.9-25,18.1-28.5
				c20.9-3.5,24.7,2.4,24.7,2.4s12-6.7,15.5-11.6s25.4-8.1,30.6,5.1s9.5,36.1-27.4,39.9c-36.9,3.8-44.2,11.3-44.2,11.3
				s21.9-2.4,22,7c0.2,9.4-12.2,14.4-12.2,14.4s-2.1,5.2,1,7.9c3,2.7,6.5,9,2.5,11.6s-10,4.6-14.6,0.2
				C483.1,361.2,473.1,372,473.1,372z"/>
			<path class="st31" d="M524,329.9c-5.2,4.4-5.1,8.1-1.4,9.8c3.9-4.9,5.7-6.8,9.9-7.4c4.2-0.6,0.8-4.9-0.2-4.9
				S528.3,326.3,524,329.9z"/>
			<path class="st32" d="M527.2,372c0,0,6.9-3.3,13.2,2.5"/>
			<line class="st33" x1="496.9" y1="356.6" x2="521.6" y2="346.5"/>
			<line class="st33" x1="543.3" y1="342.8" x2="547.7" y2="342.3"/>
			<ellipse class="st33" cx="532.5" cy="344.9" rx="10.9" ry="12.6"/>
			
				<ellipse transform="matrix(0.9889 -0.1486 0.1486 0.9889 -45.6256 82.9386)" class="st31" cx="532.2" cy="346.8" rx="1.6" ry="4.8"/>
			<line class="st34" x1="431.7" y1="558.8" x2="441.4" y2="486.7"/>
			<line class="st34" x1="450.5" y1="490.6" x2="438.3" y2="509.2"/>
			<path class="st34" d="M516.6,490.6l-2.4,15.7c0,0,13.9,1.5,6.3,10.6c0,0,19.9,8.8,19.6,24"/>
			<path class="st30" d="M742.3,821.3l-12.5,18c0,0-4.9-4.4-13.4-10.6c-0.7-0.5-1.4-1-2.1-1.5c-4.6-3.3-10-7.2-15.9-11.4
				c1.5-4.7,4.4-11.9,9.1-19.9C719.2,805.3,731.1,814,742.3,821.3z"/>
			<path class="st18" d="M748.9,811.7l-6.6,9.5c-11.1-7.2-23-16-35-25.5c3.5-6.1,8.2-12.7,14.1-18.9c6,7.9,9.7,12.8,9.7,12.8
				l5.1-0.7C730.8,802.8,748.9,811.7,748.9,811.7z"/>
			<g>
				<path class="st35" d="M222.7,795.8h100.4c0,0,0.4-79.3-8.3-88.8h-86.2C228.6,707,217.6,751.4,222.7,795.8z"/>
				<line class="st36" x1="276.7" y1="407.5" x2="283.7" y2="697.5"/>
				<line class="st36" x1="259.1" y1="371.1" x2="275.9" y2="697.5"/>
				<line class="st36" x1="244.8" y1="694.9" x2="242.5" y2="573.4"/>
				<line class="st36" x1="259.1" y1="487" x2="261" y2="697.5"/>
				<path class="st37" d="M269.3,436.7c-10.2-6.2-40-5.1-55.3,33.3s-23.8,67-9.2,59.6c14.6-7.4,65.3-42.5,71.1-48.5
					S295.3,452.4,269.3,436.7z"/>
				<path class="st37" d="M267.5,614c-27.7-19.8-65.6-8.8-62.7,65.1S339.2,665.3,267.5,614z"/>
				<path class="st38" d="M275.9,697.5c-44.4,0.4-59.5,0-59.5,0s1.1,13.4,6.2,14.6c5.1,1.2,92,1,92,1s7.4-0.9,8.3-15.6H275.9z"/>
				<path class="st39" d="M248.1,658.9c-19.9-7.6-45.9-2.9-61.7,34.9c-15.8,37.8-39.3,96.9,4.8,69.4s65.3-36,73.4-54
					S275.9,669.6,248.1,658.9z"/>
				<path class="st39" d="M274.8,566.8c-35.2,6-38.9,49.9,0,81.1c38.9,31.2,65.3,58,77.4,62c12.1,4,39.3,7.7,27.2-42.9
					S361.1,552.1,274.8,566.8z"/>
				<path class="st39" d="M247,513.6c-23.1-19.6-57.4,7-69.1,42.6s-30.5,97.3,12.1,63.5S295.2,554.3,247,513.6z"/>
				<path class="st39" d="M282.9,453.7c-33.5,16.7-21.3,51.8,8.1,64.2c29.4,12.5,101.5,51,91.5,20.9
					C372.5,508.8,336.9,427,282.9,453.7z"/>
				<path class="st39" d="M272.3,403.8c-1-24.6,24.1-28.6,42.5-25c18.4,3.7,53.3,13.2,47.4,22s-38.3,18.4-47.4,21.7
					C305.7,425.9,273.4,432.1,272.3,403.8z"/>
				<path class="st37" d="M207.3,346.6c22.2-14.4,62.4-7.7,62,12.5c-0.4,20.2-7.5,21.7-22.3,14.3C232.3,366,194.8,354.6,207.3,346.6
					z"/>
			</g>
		</g>
		<g>
			<path class="st40" d="M717.4,295.9c-1.5,2.5-4.8,3.2-7.3,1.7l-22.6-14.1c-2.5-1.5-3.2-4.8-1.7-7.3l7.2-11.5
				c1.5-2.5,4.8-3.2,7.3-1.7l22.6,14.1c2.5,1.5,3.2,4.8,1.7,7.3L717.4,295.9z"/>
			<polyline class="st41" points="697.4,262.1 702.9,284 725,279.5 			"/>
			<circle class="st42" cx="725.2" cy="279.2" r="4.3"/>
		</g>
	</g>
</g>
</svg>
