<?xml version="1.0" encoding="utf-8"?>
<!-- Generator: Adobe Illustrator 25.2.0, SVG Export Plug-In . SVG Version: 6.00 Build 0)  -->
<svg version="1.1" id="Layer_5" xmlns="http://www.w3.org/2000/svg" xmlns:xlink="http://www.w3.org/1999/xlink" x="0px" y="0px"
	 viewBox="0 0 374.94 315.04" style="enable-background:new 0 0 374.94 315.04;" xml:space="preserve">
<style type="text/css">
	.st0{fill:#EDEDED;}
	.st1{fill:#FFFFFF;}
	.st2{fill:#27CCBC;}
	.st3{fill:#EEEFEE;}
	.st4{fill:#FE7058;}
	.st5{fill:#89C5CD;}
	.st6{fill:#FCD462;}
	.st7{fill:#21B3A9;}
	.st8{fill:#E1E6E9;}
	.st9{fill:#EA6453;}
	.st10{fill:#6EAAAD;}
	.st11{fill:#F7BE56;}
	.st12{fill:#323C6B;}
	.st13{fill:#A6C2EB;}
	.st14{fill:#F0F8FF;}
	.st15{fill:#FFC3A8;}
	.st16{fill:#E29179;}
	.st17{fill:#49275A;}
	.st18{fill:#FEBF00;}
	.st19{fill:#FBD26B;}
	.st20{fill:#DB9405;}
	.st21{fill:#FEAE02;}
</style>
<g>
	<g>
		<path class="st0" d="M334.88,263.75H45.5c-16.25,0-29.42-13.17-29.42-29.42V42.82c0-16.25,13.17-29.42,29.42-29.42h289.38
			c16.25,0,29.42,13.17,29.42,29.42v191.51C364.29,250.58,351.12,263.75,334.88,263.75z"/>
	</g>
	<g>
		<path class="st1" d="M334.21,258.74H132.78V78.22h225.28V234.9C358.06,248.07,347.38,258.74,334.21,258.74z"/>
	</g>
	<g>
		<rect x="152.15" y="171.54" class="st0" width="91.02" height="71.79"/>
	</g>
	<g>
		<path class="st0" d="M339.65,243.83h-91.96v-72.79h91.96V243.83z M248.69,242.83h89.96v-70.79h-89.96V242.83z"/>
	</g>
	<g id="line_color">
		<g>
			<path class="st2" d="M179.11,190.36c2.42,0,4.37,1.96,4.37,4.37l0,0v30.64l0,0h-8.75l0,0v-30.64
				C174.74,192.32,176.69,190.36,179.11,190.36L179.11,190.36L179.11,190.36z"/>
		</g>
		<g>
			<path class="st3" d="M187.86,199.29c2.42,0,4.37,1.96,4.37,4.37v21.7l0,0h-8.75l0,0v-21.7
				C183.48,201.25,185.44,199.29,187.86,199.29L187.86,199.29z"/>
		</g>
		<g>
			<path class="st4" d="M205.36,204.78c2.42,0,4.37,1.96,4.37,4.37l0,0v16.22l0,0h-8.75l0,0v-16.22
				C200.98,206.74,202.94,204.78,205.36,204.78L205.36,204.78z"/>
		</g>
		<g>
			<path class="st5" d="M214.11,192.87c2.42,0,4.37,1.96,4.37,4.37l0,0v28.13l0,0h-8.75l0,0v-28.13
				C209.73,194.83,211.69,192.87,214.11,192.87L214.11,192.87z"/>
		</g>
		<g>
			<path class="st6" d="M196.61,182.38c2.42,0,4.37,1.96,4.37,4.37l0,0v38.62l0,0h-8.75l0,0v-38.62
				C192.23,184.33,194.19,182.38,196.61,182.38z"/>
		</g>
		<g>
			<path class="st7" d="M183.49,194.74v2.5c0-2.42-1.96-4.37-4.38-4.37c-2.42,0-4.37,1.96-4.37,4.37v-2.5
				c0-2.42,1.96-4.37,4.37-4.38C181.53,190.36,183.49,192.32,183.49,194.74C183.49,194.74,183.49,194.74,183.49,194.74z"/>
		</g>
		<g>
			<path class="st8" d="M192.24,203.66v2.17c0-2.42-1.96-4.37-4.38-4.37c-2.42,0-4.37,1.96-4.37,4.37v-2.17
				c0-2.42,1.96-4.37,4.38-4.37C190.28,199.29,192.24,201.25,192.24,203.66z"/>
		</g>
		<g>
			<path class="st9" d="M209.73,209.15v1.91c0-2.42-1.96-4.38-4.37-4.38c-2.42,0-4.38,1.96-4.38,4.37c0,0,0,0,0,0.01v-1.91
				c0-2.42,1.96-4.37,4.37-4.37C207.77,204.78,209.73,206.73,209.73,209.15L209.73,209.15L209.73,209.15z"/>
		</g>
		<g>
			<path class="st10" d="M218.48,197.25v28.13h-2.08v-26.22c0-2.41-1.95-4.37-4.36-4.37c-0.61,0-1.21,0.13-1.77,0.37
				c1.15-2.12,3.81-2.91,5.93-1.76C217.6,194.16,218.48,195.64,218.48,197.25L218.48,197.25z"/>
		</g>
		<g>
			<path class="st11" d="M196.51,184.69c2.22-0.01,4.08,1.66,4.32,3.86h0.15v-1.81c0-2.41-1.96-4.37-4.37-4.37s-4.37,1.96-4.37,4.37
				v1.37C192.68,186.12,194.46,184.7,196.51,184.69z"/>
		</g>
		<g>
			<g>
				<path class="st12" d="M224.91,229.83H168.3c-0.23,0-0.42-0.19-0.42-0.42s0.19-0.42,0.42-0.42h56.61c0.23,0,0.42,0.19,0.42,0.42
					S225.14,229.83,224.91,229.83z"/>
			</g>
			<g>
				<path class="st12" d="M174.24,235.39c-0.23,0-0.42-0.19-0.42-0.42v-2c0-0.23,0.19-0.42,0.42-0.42s0.42,0.19,0.42,0.42v2
					C174.66,235.21,174.47,235.39,174.24,235.39z"/>
			</g>
			<g>
				<path class="st12" d="M180.63,234.4c-0.23,0-0.42-0.19-0.42-0.42v-1.01c0-0.23,0.19-0.42,0.42-0.42s0.42,0.19,0.42,0.42v1.01
					C181.05,234.21,180.86,234.4,180.63,234.4z"/>
			</g>
			<g>
				<path class="st12" d="M187.02,235.39c-0.23,0-0.42-0.19-0.42-0.42v-2c0-0.23,0.19-0.42,0.42-0.42s0.42,0.19,0.42,0.42v2
					C187.44,235.21,187.25,235.39,187.02,235.39z"/>
			</g>
			<g>
				<path class="st12" d="M193.41,234.4c-0.23,0-0.42-0.19-0.42-0.42v-1.01c0-0.23,0.19-0.42,0.42-0.42c0.23,0,0.42,0.19,0.42,0.42
					v1.01C193.83,234.21,193.64,234.4,193.41,234.4z"/>
			</g>
			<g>
				<path class="st12" d="M199.8,235.39c-0.23,0-0.42-0.19-0.42-0.42v-2c0-0.23,0.19-0.42,0.42-0.42s0.42,0.19,0.42,0.42v2
					C200.22,235.21,200.03,235.39,199.8,235.39z"/>
			</g>
			<g>
				<path class="st12" d="M206.19,234.4c-0.23,0-0.42-0.19-0.42-0.42v-1.01c0-0.23,0.19-0.42,0.42-0.42s0.42,0.19,0.42,0.42v1.01
					C206.61,234.21,206.42,234.4,206.19,234.4z"/>
			</g>
			<g>
				<path class="st12" d="M212.58,235.39c-0.23,0-0.42-0.19-0.42-0.42v-2c0-0.23,0.19-0.42,0.42-0.42s0.42,0.19,0.42,0.42v2
					C213,235.21,212.81,235.39,212.58,235.39z"/>
			</g>
			<g>
				<path class="st12" d="M218.98,234.4c-0.23,0-0.42-0.19-0.42-0.42v-1.01c0-0.23,0.19-0.42,0.42-0.42s0.42,0.19,0.42,0.42v1.01
					C219.39,234.21,219.21,234.4,218.98,234.4L218.98,234.4z"/>
			</g>
			<g>
				<path class="st12" d="M220.72,195.84c-0.19,0-0.35-0.13-0.4-0.31c-0.77-2.8-3.32-4.74-6.22-4.75c-0.23,0-0.42-0.19-0.42-0.42
					s0.19-0.42,0.42-0.42c3.28,0.01,6.15,2.2,7.02,5.36c0.06,0.22-0.07,0.45-0.29,0.51C220.8,195.83,220.76,195.84,220.72,195.84
					L220.72,195.84z"/>
			</g>
			<g>
				<path class="st12" d="M220.98,198.41c-0.23,0-0.42-0.19-0.42-0.42v-0.39c0-0.23,0.19-0.42,0.42-0.42c0.23,0,0.42,0.19,0.42,0.42
					V198C221.39,198.23,221.21,198.41,220.98,198.41z"/>
			</g>
			<g>
				<path class="st12" d="M189.74,189.13c-0.23,0-0.42-0.19-0.42-0.42v-0.27c0-0.23,0.19-0.42,0.42-0.42s0.42,0.19,0.42,0.42v0.28
					C190.15,188.94,189.96,189.13,189.74,189.13z"/>
			</g>
			<g>
				<path class="st12" d="M189.74,187.17c-0.23,0-0.42-0.19-0.42-0.42c-0.02-3.94,3.12-7.18,7.07-7.28c0.23,0,0.42,0.18,0.43,0.4
					c0.01,0.23-0.17,0.42-0.4,0.43c0,0,0,0,0,0c-3.49,0.09-6.27,2.95-6.26,6.45C190.15,186.98,189.97,187.17,189.74,187.17
					L189.74,187.17z"/>
			</g>
		</g>
		<g>
			<path class="st1" d="M195.36,216.99c-0.3,0-0.54-0.24-0.54-0.54l0,0v-7.88c0-0.3,0.24-0.54,0.54-0.54c0.3,0,0.54,0.24,0.54,0.54
				c0,0,0,0,0,0v7.87C195.9,216.74,195.66,216.99,195.36,216.99C195.36,216.99,195.36,216.99,195.36,216.99L195.36,216.99z"/>
		</g>
		<g>
			<path class="st1" d="M195.36,206.73c-0.3,0-0.54-0.24-0.54-0.54l0,0v-0.82c0-0.3,0.24-0.54,0.54-0.54c0.3,0,0.54,0.24,0.54,0.54
				v0.82C195.9,206.49,195.66,206.73,195.36,206.73L195.36,206.73L195.36,206.73z"/>
		</g>
		<g>
			<path class="st12" d="M183.48,225.79h-8.75c-0.23,0-0.42-0.19-0.42-0.42v-30.64c0.03-2.65,2.21-4.76,4.85-4.73
				c2.6,0.03,4.69,2.13,4.73,4.73v30.64C183.9,225.6,183.71,225.79,183.48,225.79z M175.15,224.96h7.92v-30.22
				c-0.03-2.19-1.83-3.93-4.02-3.9c-2.14,0.03-3.87,1.76-3.9,3.9V224.96z"/>
		</g>
		<g>
			<path class="st12" d="M192.23,225.79h-8.75c-0.23,0-0.42-0.19-0.42-0.42v-21.7c-0.03-2.65,2.08-4.82,4.73-4.85
				c2.65-0.03,4.82,2.08,4.85,4.73c0,0.04,0,0.08,0,0.13v21.7C192.65,225.6,192.46,225.79,192.23,225.79L192.23,225.79z
				 M183.9,224.96h7.92v-21.29c0.03-2.19-1.71-3.98-3.9-4.02c-2.19-0.03-3.98,1.71-4.02,3.9c0,0.04,0,0.08,0,0.11V224.96z"/>
		</g>
		<g>
			<path class="st12" d="M209.73,225.79h-8.75c-0.23,0-0.42-0.19-0.42-0.42v-16.22c0.03-2.65,2.21-4.76,4.85-4.73
				c2.6,0.03,4.69,2.13,4.73,4.73v16.22C210.15,225.6,209.96,225.79,209.73,225.79z M201.4,224.96h7.92v-15.8
				c-0.03-2.19-1.83-3.93-4.02-3.9c-2.14,0.03-3.87,1.76-3.9,3.9V224.96z"/>
		</g>
		<g>
			<path class="st12" d="M218.48,225.79h-8.75c-0.23,0-0.42-0.19-0.42-0.42v-28.13c-0.03-2.65,2.08-4.82,4.73-4.85
				c2.65-0.03,4.82,2.08,4.85,4.73c0,0.04,0,0.08,0,0.13v28.13C218.9,225.6,218.71,225.79,218.48,225.79z M210.15,224.96h7.92
				v-27.71c0.03-2.19-1.71-3.98-3.9-4.02c-2.19-0.03-3.98,1.71-4.02,3.9c0,0.04,0,0.08,0,0.11V224.96z"/>
		</g>
		<g>
			<path class="st12" d="M200.98,225.79h-8.75c-0.23,0-0.42-0.19-0.42-0.42v-38.62c0-2.65,2.15-4.79,4.79-4.79
				c2.65,0,4.79,2.15,4.79,4.79v38.62C201.4,225.6,201.21,225.79,200.98,225.79z M192.65,224.96h7.92v-38.2
				c0-2.19-1.77-3.96-3.96-3.96s-3.96,1.77-3.96,3.96V224.96z"/>
		</g>
	</g>
	<g>
		<path class="st0" d="M279.3,202.99h-22.03c-1.95,0-3.52-1.58-3.52-3.52v-16.98c0-1.95,1.58-3.52,3.52-3.52h22.03
			c1.95,0,3.52,1.58,3.52,3.52v16.98C282.82,201.41,281.25,202.99,279.3,202.99z"/>
	</g>
	<g>
		<path class="st0" d="M311.26,202.99h-22.03c-1.95,0-3.52-1.58-3.52-3.52v-16.98c0-1.95,1.58-3.52,3.52-3.52h22.03
			c1.95,0,3.52,1.58,3.52,3.52v16.98C314.78,201.41,313.21,202.99,311.26,202.99z"/>
	</g>
	<g>
		<path class="st0" d="M333.26,178.78h-13.08c-1.95,0-3.52,1.58-3.52,3.52v16.98c0,1.95,1.58,3.52,3.52,3.52h13.08V178.78z"/>
	</g>
	<g>
		<path class="st4" d="M329.58,162.81h-36.92c-5.29,0-9.57-4.29-9.57-9.57v0c0-5.29,4.29-9.57,9.57-9.57h36.92
			c5.29,0,9.57,4.29,9.57,9.57v0C339.15,158.53,334.86,162.81,329.58,162.81z"/>
	</g>
	<g>
		<rect x="152.15" y="97.93" class="st0" width="187" height="4.27"/>
	</g>
	<g>
		<rect x="152.15" y="105.91" class="st0" width="187" height="4.27"/>
	</g>
	<g>
		<rect x="152.15" y="114.46" class="st0" width="187" height="4.27"/>
	</g>
	<g>
		<rect x="152.15" y="123.8" class="st0" width="187" height="4.27"/>
	</g>
	<g>
		<rect x="152.15" y="132.07" class="st0" width="151.92" height="4.27"/>
	</g>
	<g>
		<path class="st0" d="M331.12,211.22h-75.25c-1.18,0-2.13-0.96-2.13-2.13l0,0c0-1.18,0.96-2.13,2.13-2.13h75.25
			c1.18,0,2.13,0.96,2.13,2.13l0,0C333.26,210.27,332.3,211.22,331.12,211.22z"/>
	</g>
	<g>
		<path class="st0" d="M331.12,217.89h-75.25c-1.18,0-2.13-0.96-2.13-2.13v0c0-1.18,0.96-2.13,2.13-2.13h75.25
			c1.18,0,2.13,0.96,2.13,2.13v0C333.26,216.93,332.3,217.89,331.12,217.89z"/>
	</g>
	<g>
		<path class="st0" d="M298.11,224.55h-42.23c-1.18,0-2.13-0.96-2.13-2.13l0,0c0-1.18,0.96-2.13,2.13-2.13h42.23
			c1.18,0,2.13,0.96,2.13,2.13l0,0C300.24,223.59,299.29,224.55,298.11,224.55z"/>
	</g>
	<g>
		<path class="st1" d="M297.36,68.59H47.84c-13.21,0-23.92-10.71-23.92-23.92v0c0-13.21,10.71-23.92,23.92-23.92h249.52
			c13.21,0,23.92,10.71,23.92,23.92v0C321.28,57.88,310.57,68.59,297.36,68.59z"/>
	</g>
	<g>
		<g>
			<path class="st13" d="M47.98,68.87l243.79-45.74c12.01-2.25,23.57,5.66,25.81,17.67v0c2.24,12-5.68,23.55-17.68,25.79
				l-243.83,45.5c-12.18,2.27-23.82-5.96-25.75-18.19l0,0C28.47,82.15,36.29,71.06,47.98,68.87z"/>
		</g>
	</g>
	<g>
		<g>
			<path class="st1" d="M298.13,27.52c-7.99,0-14.47,6.48-14.47,14.47c0,7.99,6.48,14.47,14.47,14.47c7.99,0,14.47-6.48,14.47-14.47
				C312.6,34,306.12,27.52,298.13,27.52z M298.13,52.47c-5.79,0-10.48-4.69-10.48-10.48c0-5.79,4.69-10.48,10.48-10.48
				c5.79,0,10.48,4.69,10.48,10.48C308.61,47.78,303.91,52.47,298.13,52.47z"/>
		</g>
	</g>
	<g>
		<g>
			<path class="st1" d="M288.4,51.38l-4.84,6.93c-0.89,1.28-0.5,3.04,0.84,3.83l0,0c1.18,0.69,2.7,0.37,3.5-0.74l4.76-6.58
				L288.4,51.38z"/>
		</g>
	</g>
	<g>
		<g>
			<path class="st14" d="M49.91,73.29l224.7-42.07l6.25,32.44L56.28,106.73c-9.36,1.8-18.38-4.43-20-13.83l0,0
				C34.7,83.74,40.77,75.01,49.91,73.29z"/>
		</g>
	</g>
	<g>
		<g>
			<path class="st15" d="M185.25,78.22c-1.44,6.19,16.35,16.96,14.69,20.9c-1.67,3.94-31.34,48-31.34,48l26.8,19.99
				c0,0,42.85-68.74,46.18-71.77c0,0,3.03-3.71,0.93-8.37c0,0,2.56-3.29,3.29-6.57l6.76-4.2c0,0,1-0.91,0.82-2.19
				c-0.18-1.28-0.73-4.66-5.66-2.92c-4.93,1.73-35.72,12.74-36.72,13.15C204.44,86.87,186.74,71.8,185.25,78.22z"/>
		</g>
	</g>
	<g>
		<g>
			<path class="st16" d="M226.7,89.04c-0.22,0-0.43-0.13-0.52-0.34c-0.12-0.29,0.01-0.61,0.3-0.73l18.22-7.69
				c0.28-0.12,0.61,0.01,0.73,0.3s-0.01,0.61-0.3,0.73l-18.22,7.69C226.84,89.02,226.77,89.04,226.7,89.04z"/>
		</g>
	</g>
	<g>
		<g>
			<path class="st17" d="M57.73,207.58c0,0-0.6-11.4,9.94-15.24c0,0-6.76-22.53,15.11-30.28s36.97-1.19,33.39,14.71l-1.79,35.78
				L57.73,207.58z"/>
		</g>
	</g>
	<g>
		<g>
			<path class="st15" d="M42.25,139.72l14.66-16.06c0,0-16.38-2.48-18.86-12.18c-2.48-9.7,0.83-8.08,2.3-7.76
				c0,0-4.36-8.69,4.49-13.19c1.08-0.55,2.38,0.11,2.6,1.3c1.02,5.32,3.79,18.36,6.45,18.79c2.69,0.43-0.84-13.44-2.31-18.88
				c-0.32-1.19,0.37-2.42,1.56-2.76h0c1.11-0.32,2.28,0.24,2.72,1.31l8.39,20.22l18.54-3.23c0,0-1.91,10.13-4.57,16.6
				s-14.62,28.02-14.62,28.02L42.25,139.72z"/>
		</g>
	</g>
	<g>
		<g>
			<path class="st18" d="M73.25,201.99l-28.28,10.56c0,0-37.23-32.35-12.68-60.8c0,0-3.09-1.3-1.95-3.58
				c1.14-2.28,9.1-11.38,9.1-11.38s1.46-0.33,3.74,1.14c2.28,1.46,23.25,11.22,23.25,11.22s2.11,1.63,1.46,2.77
				c-0.65,1.14-10.16,13.82-10.16,13.82l0.07,0.16L73.25,201.99z"/>
		</g>
	</g>
	<g>
		<g>
			<path class="st19" d="M67.89,151.91c-0.65,1.14-10.16,13.82-10.16,13.82l0.07,0.16l-25.51-14.14c0,0-3.09-1.3-1.95-3.58
				c1.14-2.28,9.1-11.38,9.1-11.38s1.46-0.33,3.74,1.14c2.28,1.46,23.25,11.22,23.25,11.22S68.54,150.77,67.89,151.91z"/>
		</g>
	</g>
	<g>
		<g>
			<path class="st18" d="M188.59,184.3c0,0-1.65,0.86-3.42-0.56l-42.2,59.31c0,0,4.12,23.38-16.47,33.06c0,0-10.68,28.47-9.8,30.29
				H52.16l3-45.58l0.94-14.23c0,0-18.82-10.56-15.32-36.47c0,0,1.77-8.47,7.18-8.24c5.42,0.24,29.33,5.88,36.04,6
				c6.71,0.12,34.86-0.35,36.51-0.12l36.62-47.46c0,0-2.71-2.94-1.06-5.18c1.65-2.24,10.6-11.42,10.6-11.42s2.24-0.35,2.94,1.77
				l27.09,20.85c0,0,1.53,0.24,1.88,1.88S188.59,184.3,188.59,184.3z"/>
		</g>
	</g>
	<g>
		<g>
			<path class="st19" d="M188.59,184.3c0,0-1.65,0.86-3.42-0.56l-28.03-23.44c0,0-2.71-2.94-1.06-5.18
				c1.65-2.24,10.6-11.42,10.6-11.42s2.24-0.35,2.94,1.77l27.09,20.85c0,0,1.53,0.24,1.88,1.88S188.59,184.3,188.59,184.3z"/>
		</g>
	</g>
	<g>
		<g>
			<g>
				<path class="st20" d="M41.5,210.95c-0.06,0-0.11-0.01-0.17-0.02c-0.45-0.1-0.74-0.54-0.65-0.99c0.08-0.37,1.97-9.17,7.97-8.91
					c2.5,0.11,8.78,1.35,15.44,2.65c7.83,1.54,16.7,3.28,20.26,3.35c3.04,0.06,10.61-0.02,17.94-0.08
					c10.83-0.1,17.47-0.15,18.35-0.03c0.46,0.07,0.77,0.49,0.71,0.95s-0.49,0.78-0.94,0.71c-0.82-0.12-10-0.03-18.1,0.04
					c-7.34,0.07-14.93,0.14-17.99,0.08c-3.71-0.07-12.27-1.75-20.55-3.38c-6.59-1.3-12.82-2.52-15.19-2.63
					c-4.6-0.18-6.25,7.49-6.27,7.57C42.23,210.68,41.88,210.95,41.5,210.95z"/>
			</g>
		</g>
	</g>
	<g>
		<g>
			<path class="st21" d="M111.14,240.07c0,0-15.64,33.6-55.99,20.75l0.94-14.23C56.09,246.59,85.1,267.36,111.14,240.07z"/>
		</g>
	</g>
	<g>
		<g>
			<path class="st19" d="M188.59,184.3c0,0-1.65,0.86-3.42-0.56l-28.03-23.44c0,0-2.71-2.94-1.06-5.18
				c1.65-2.24,10.6-11.42,10.6-11.42s2.24-0.35,2.94,1.77l27.09,20.85c0,0,1.53,0.24,1.88,1.88S188.59,184.3,188.59,184.3z"/>
		</g>
	</g>
	<g>
		<g>
			<path class="st20" d="M102.34,232.95c-0.12,0-0.23-0.04-0.33-0.11c-0.25-0.18-0.3-0.54-0.12-0.78l17.61-23.7
				c0.19-0.25,0.54-0.3,0.78-0.12c0.25,0.18,0.3,0.54,0.12,0.78l-17.61,23.7C102.68,232.87,102.51,232.95,102.34,232.95z"/>
		</g>
	</g>
	<g>
		<g>
			<path class="st20" d="M123.26,267.74c-0.12,0-0.25-0.04-0.35-0.13c-0.24-0.2-0.27-0.55-0.08-0.79l19.06-23.29
				c0.2-0.24,0.55-0.27,0.79-0.08c0.24,0.2,0.27,0.55,0.08,0.79l-19.06,23.29C123.58,267.67,123.42,267.74,123.26,267.74z"/>
		</g>
	</g>
	<g>
		<g>
			<path class="st15" d="M96.5,164.92c0,0,12.39-1.52,17.3,10.29c0,0,2.34,1.05,5.38,0c3.04-1.05,1.87,7.83,1.87,7.83
				s1.26,0.7,0.22,3.74c0,0,0.36,11.64-6.18,16.22l0.47,3.65l-4.68-0.7c0,0,0.23-5.96-3.86-6.66c0,0-2.57,3.39-7.13,1.05
				c-4.56-2.34-2.45-10.29,3.27-10.29c0,0,2.1-9.47-0.58-14.26S96.5,164.92,96.5,164.92z"/>
		</g>
	</g>
	<g>
		<g>
			<circle class="st17" cx="62.3" cy="173.62" r="15.9"/>
		</g>
	</g>
	<g>
		<g>
			<path class="st17" d="M106.79,184.3c-0.28,0-0.52-0.2-0.56-0.49c-0.03-0.23-0.71-5.7,3.49-7.49c0.29-0.12,0.61,0.01,0.74,0.3
				c0.12,0.29-0.01,0.61-0.3,0.74c-3.41,1.45-2.83,6.26-2.82,6.31c0.04,0.31-0.18,0.59-0.48,0.63
				C106.84,184.3,106.81,184.3,106.79,184.3z"/>
		</g>
	</g>
	<g>
		<g>
			<path class="st16" d="M117.77,188.51c-0.23,0-0.44-0.14-0.53-0.37c-0.11-0.29,0.04-0.61,0.33-0.72c0.04-0.02,1.69-0.7,2.93-3.52
				c0.12-0.28,0.46-0.41,0.74-0.29c0.28,0.12,0.41,0.46,0.29,0.74c-1.46,3.31-3.48,4.09-3.56,4.12
				C117.9,188.5,117.84,188.51,117.77,188.51z"/>
		</g>
	</g>
	<g>
		<g>
			<path class="st16" d="M100.39,197c-0.2,0-0.39-0.11-0.49-0.29c-0.15-0.27-0.05-0.61,0.22-0.76l5.03-2.73
				c0.27-0.15,0.61-0.05,0.76,0.22c0.15,0.27,0.05,0.61-0.22,0.76l-5.03,2.73C100.57,196.98,100.48,197,100.39,197z"/>
		</g>
	</g>
	<g>
		<g>
			<ellipse transform="matrix(0.8265 -0.5629 0.5629 0.8265 -83.3715 94.1927)" cx="111.14" cy="182.37" rx="0.94" ry="2.06"/>
		</g>
	</g>
</g>
</svg>
