<?xml version="1.0" encoding="utf-8"?>
<!-- Generator: Adobe Illustrator 24.3.0, SVG Export Plug-In . SVG Version: 6.00 Build 0)  -->
<svg version="1.1" xmlns="http://www.w3.org/2000/svg" xmlns:xlink="http://www.w3.org/1999/xlink" x="0px" y="0px"
	 viewBox="0 0 460.92 293.79" style="enable-background:new 0 0 460.92 293.79;" xml:space="preserve">
<style type="text/css">
	.st0{fill:#D1CFD0;}
	.st1{fill:#D62800;}
	.st2{fill:#F97F23;}
	.st3{fill:#0F6D66;}
	.st4{fill:#3F8CFC;}
	.st5{fill:#54D6E5;}
	.st6{fill:#F5AB9D;}
	.st7{fill:#FFFFFF;}
	.st8{fill:#252525;}
	.st9{fill:#F4A79C;}
	.st10{fill:#E58177;}
	.st11{fill:#092547;}
	.st12{fill:#C537E2;}
	.st13{fill:#886D69;}
	.st14{fill:#0074FF;}
	.st15{fill:#B7824E;}
	.st16{fill:#A06B3C;}
	.st17{fill:#242B29;}
	.st18{fill:#5AD3E5;}
	.st19{fill:#844618;}
	.st20{fill:#022E42;}
	.st21{fill:#F4A99D;}
	.st22{fill:#C45853;}
	.st23{fill:#C9827B;}
	.st24{fill:#185FED;}
	.st25{fill:#F4A89C;}
	.st26{fill:#0B3C89;}
</style>
<g id="Layer_1">
</g>
<g id="Layer_25">
</g>
<g id="Layer_31">
</g>
<g id="Layer_26">
</g>
<g id="Layer_27">
</g>
<g id="Layer_30">
</g>
<g id="Layer_28">
</g>
<g id="Layer_29">
</g>
<g id="Layer_23">
</g>
<g id="Layer_24">
</g>
<g id="Layer_33">
</g>
<g id="Layer_20">
</g>
<g id="Layer_32">
</g>
<g id="Layer_22">
</g>
<g id="Layer_21">
</g>
<g id="Layer_16">
</g>
<g id="Layer_18">
</g>
<g id="Layer_17">
</g>
<g id="Layer_11">
</g>
<g id="Layer_12">
</g>
<g id="Layer_19">
</g>
<g id="Layer_13">
</g>
<g id="Layer_14">
</g>
<g id="Layer_15">
</g>
<g id="Layer_9">
</g>
<g id="Layer_2">
</g>
<g id="Layer_6">
</g>
<g id="Layer_7">
</g>
<g id="Layer_3">
</g>
<g id="Layer_8">
</g>
<g id="Layer_4">
</g>
<g id="Layer_5">
</g>
<g id="Layer_10">
	<g>
		<g>
			<rect x="59.51" y="93.61" class="st0" width="299.88" height="1.73"/>
		</g>
		<g>
			<circle class="st1" cx="79.7" cy="83.76" r="2.68"/>
		</g>
		<g>
			<circle class="st2" cx="91.83" cy="83.76" r="2.68"/>
		</g>
		<g>
			<circle class="st3" cx="103.52" cy="83.76" r="2.68"/>
		</g>
		<g>
			<path class="st0" d="M389.35,282.21H70.1c-6.32,0-11.46-5.14-11.46-11.46v-36.43h32.13c3.94,0,7.14-3.2,7.14-7.14v-66.83
				c0-3.94-3.2-7.14-7.14-7.14H58.64v-70.9c0-6.32,5.14-11.46,11.46-11.46h319.25c6.32,0,11.46,5.14,11.46,11.46v5.29h-33.15
				c-3.93,0-7.14,3.2-7.14,7.14v66.83c0,3.94,3.2,7.14,7.14,7.14h33.15v102.04C400.81,277.07,395.67,282.21,389.35,282.21z
				 M60.37,236.04v34.71c0,5.37,4.37,9.73,9.73,9.73h319.25c5.37,0,9.73-4.37,9.73-9.73V170.43h-31.42c-4.89,0-8.86-3.98-8.86-8.86
				V94.74c0-4.89,3.98-8.86,8.86-8.86h31.42v-3.57c0-5.37-4.37-9.73-9.73-9.73H70.1c-5.37,0-9.73,4.37-9.73,9.73v69.18h30.41
				c4.89,0,8.86,3.98,8.86,8.86v66.83c0,4.89-3.98,8.86-8.86,8.86H60.37z"/>
		</g>
		<g>
			<path class="st0" d="M440.41,170.43h-72.75c-4.89,0-8.86-3.98-8.86-8.86V94.74c0-4.89,3.98-8.86,8.86-8.86h72.75
				c4.89,0,8.86,3.98,8.86,8.86v66.83C449.27,166.46,445.29,170.43,440.41,170.43z M367.66,87.6c-3.93,0-7.14,3.2-7.14,7.14v66.83
				c0,3.94,3.2,7.14,7.14,7.14h72.75c3.94,0,7.14-3.2,7.14-7.14V94.74c0-3.94-3.2-7.14-7.14-7.14H367.66z"/>
		</g>
		<g>
			<path class="st0" d="M90.77,236.04H18.03c-4.89,0-8.86-3.98-8.86-8.86v-66.83c0-4.89,3.98-8.86,8.86-8.86h72.75
				c4.89,0,8.86,3.98,8.86,8.86v66.83C99.64,232.07,95.66,236.04,90.77,236.04z M18.03,153.21c-3.94,0-7.14,3.2-7.14,7.14v66.83
				c0,3.94,3.2,7.14,7.14,7.14h72.75c3.94,0,7.14-3.2,7.14-7.14v-66.83c0-3.94-3.2-7.14-7.14-7.14H18.03z"/>
		</g>
		<g>
			<path class="st4" d="M71.42,217.13H39.03c-4.57,0-8.27-3.7-8.27-8.27v-30.18c0-4.57,3.7-8.27,8.27-8.27h32.39
				c4.57,0,8.27,3.7,8.27,8.27v30.18C79.69,213.42,75.99,217.13,71.42,217.13z"/>
		</g>
		<g>
			<path class="st2" d="M420.23,148.34h-32.39c-4.57,0-8.27-3.7-8.27-8.27v-25.74c0-4.57,3.7-8.27,8.27-8.27h32.39
				c4.57,0,8.27,3.7,8.27,8.27v25.74C428.5,144.64,424.8,148.34,420.23,148.34z"/>
		</g>
		<g>
			<path class="st5" d="M177.38,51.22h-26.3c-4.57,0-8.27-3.7-8.27-8.27V18.22c0-4.57,3.7-8.27,8.27-8.27h26.3
				c4.57,0,8.27,3.7,8.27,8.27v24.72C185.65,47.51,181.95,51.22,177.38,51.22z"/>
		</g>
		<g>
			<path class="st6" d="M348.6,29.78H280.7c-1.34,0-2.42,1.08-2.42,2.42v15.94c0,1.34,1.08,2.42,2.42,2.42h6.15l-1,5.38l5.99-5.38
				h56.76c1.34,0,2.42-1.08,2.42-2.42V32.2C351.01,30.86,349.93,29.78,348.6,29.78z"/>
		</g>
		<g>
			<path class="st7" d="M412.6,135.82h-17.14c-1.66,0-3.01-1.35-3.01-3.01v-12.86c0-1.66,1.35-3.01,3.01-3.01h17.14
				c1.66,0,3.01,1.35,3.01,3.01v12.86C415.61,134.47,414.26,135.82,412.6,135.82z M395.46,118.68c-0.71,0-1.28,0.57-1.28,1.28v12.86
				c0,0.71,0.57,1.28,1.28,1.28h17.14c0.71,0,1.28-0.57,1.28-1.28v-12.86c0-0.71-0.57-1.28-1.28-1.28H395.46z"/>
		</g>
		<g>
			<path class="st7" d="M404.03,128.32c-0.17,0-0.35-0.05-0.49-0.16l-10.71-7.5c-0.39-0.27-0.49-0.81-0.21-1.2
				c0.27-0.39,0.81-0.49,1.2-0.21l10.22,7.15l10.22-7.15c0.39-0.27,0.93-0.18,1.2,0.21c0.27,0.39,0.18,0.93-0.21,1.2l-10.71,7.5
				C404.38,128.27,404.2,128.32,404.03,128.32z"/>
		</g>
		<g>
			<path class="st7" d="M171.08,40.05c-0.07,0-0.15,0-0.22-0.01c-2.79-0.3-5.5-1.27-7.84-2.79c-2.17-1.38-4.05-3.26-5.44-5.44
				c-1.52-2.35-2.48-5.07-2.78-7.85c-0.06-0.7,0.15-1.37,0.59-1.9c0.44-0.53,1.07-0.86,1.75-0.92c0.07-0.01,0.15-0.01,0.22-0.01h2.6
				c0.01,0,0.02,0,0.02,0c1.28,0,2.38,0.95,2.56,2.23c0.1,0.77,0.29,1.52,0.56,2.24c0.35,0.94,0.13,2.01-0.58,2.73l-0.62,0.62
				c1.01,1.59,2.37,2.94,3.96,3.96l0.62-0.62c0.72-0.71,1.79-0.94,2.74-0.59c0.72,0.27,1.47,0.46,2.23,0.56
				c1.31,0.18,2.26,1.31,2.23,2.62v2.58c0.01,1.42-1.15,2.59-2.58,2.6C171.09,40.05,171.09,40.05,171.08,40.05z M159.98,22.85
				C159.98,22.85,159.98,22.85,159.98,22.85h-2.61c-0.55,0.05-0.9,0.47-0.86,0.94c0.27,2.51,1.14,4.96,2.51,7.09
				c1.25,1.97,2.95,3.67,4.92,4.92c2.12,1.38,4.57,2.25,7.08,2.52c0.54,0,0.93-0.39,0.93-0.86v-2.59c0-0.01,0-0.01,0-0.02
				c0.01-0.44-0.31-0.81-0.74-0.88c-0.88-0.12-1.76-0.34-2.61-0.65c-0.32-0.12-0.67-0.04-0.91,0.19l-1.09,1.09
				c-0.27,0.27-0.7,0.33-1.04,0.14c-2.29-1.3-4.2-3.21-5.5-5.5c-0.19-0.34-0.13-0.76,0.14-1.04l1.1-1.1
				c0.23-0.24,0.31-0.59,0.19-0.91c-0.31-0.84-0.53-1.72-0.65-2.62C160.78,23.17,160.41,22.85,159.98,22.85z"/>
		</g>
		<g>
			<path class="st7" d="M338.19,37.44h-50.38c-0.48,0-0.86-0.39-0.86-0.86s0.39-0.86,0.86-0.86h50.38c0.48,0,0.86,0.39,0.86,0.86
				S338.66,37.44,338.19,37.44z"/>
		</g>
		<g>
			<path class="st7" d="M316.23,43.72h-28.42c-0.48,0-0.86-0.39-0.86-0.86s0.39-0.86,0.86-0.86h28.42c0.48,0,0.86,0.39,0.86,0.86
				S316.71,43.72,316.23,43.72z"/>
		</g>
		<g>
			<path class="st7" d="M67.91,198.17c0.48-1.38,0.75-2.86,0.75-4.4c0-1.54-0.26-3.02-0.75-4.4c-0.01-0.04-0.03-0.08-0.04-0.12
				c-1.86-5.16-6.81-8.86-12.6-8.86s-10.74,3.7-12.6,8.86c-0.02,0.04-0.03,0.08-0.04,0.12c-0.48,1.38-0.75,2.86-0.75,4.4
				c0,1.54,0.26,3.02,0.75,4.4c0.01,0.04,0.03,0.08,0.04,0.12c1.86,5.16,6.81,8.86,12.6,8.86s10.74-3.7,12.6-8.86
				C67.88,198.25,67.9,198.21,67.91,198.17z M55.26,205.23c-0.51,0-1.33-0.92-2.02-2.98c-0.33-0.99-0.6-2.14-0.79-3.38h5.62
				c-0.19,1.24-0.46,2.39-0.79,3.38C56.6,204.31,55.77,205.23,55.26,205.23z M52.22,196.95c-0.09-1.02-0.14-2.09-0.14-3.18
				c0-1.09,0.05-2.16,0.14-3.18h6.09c0.09,1.02,0.14,2.09,0.14,3.18c0,1.09-0.05,2.16-0.14,3.18H52.22z M43.79,193.76
				c0-1.1,0.16-2.17,0.45-3.18h6.05c-0.09,1.04-0.14,2.11-0.14,3.18s0.05,2.14,0.14,3.18h-6.05
				C43.95,195.94,43.79,194.87,43.79,193.76z M55.26,182.29c0.51,0,1.33,0.92,2.02,2.98c0.33,0.99,0.6,2.14,0.79,3.38h-5.62
				c0.19-1.24,0.46-2.39,0.79-3.38C53.93,183.22,54.75,182.29,55.26,182.29z M60.23,190.58h6.05c0.29,1.01,0.45,2.08,0.45,3.18
				s-0.16,2.17-0.45,3.18h-6.05c0.09-1.04,0.14-2.11,0.14-3.18S60.32,191.62,60.23,190.58z M65.53,188.66h-5.52
				c-0.34-2.35-0.93-4.47-1.75-5.97C61.45,183.56,64.09,185.76,65.53,188.66z M52.27,182.69c-0.82,1.5-1.41,3.61-1.75,5.97h-5.52
				C46.44,185.76,49.08,183.56,52.27,182.69z M44.99,198.87h5.52c0.34,2.35,0.93,4.47,1.75,5.97
				C49.08,203.97,46.44,201.77,44.99,198.87z M58.26,204.83c0.82-1.5,1.41-3.61,1.75-5.97h5.52
				C64.09,201.77,61.45,203.97,58.26,204.83z"/>
		</g>
		<g>
			<path class="st8" d="M184.49,280.96c0,0,2.65-54.62-3.84-71.64c-6.49-17.01-47.98-0.93-47.98-0.93s-8.97,32.54-4.6,72.57h23.72
				l4.16-43.07h2.23l3.7,43.07H184.49z"/>
		</g>
		<g>
			<path class="st9" d="M129.18,189.26c0,0-1.2,4.98-2.65,10.94c-1.67,6.88-3.68,15.07-4.58,18.4c-1.68,6.22-4.88,30.11-4.88,30.11
				c3.87,5.05,3.87,9.76,3.42,11.11c-0.46,1.35-1.91-0.67-1.91-2.02c0-1.35-1.68-4.2-2.63-2.87c-0.95,1.35-0.9,5.38,1.29,7.58
				c2.19,2.18,2.36,5.04,2.36,5.04c-14.8-5.04-7.7-18.67-7.7-18.67c-3.33-6.89,1.81-42.56,2.99-49.96
				c0.51-3.23,1.09-7.96,1.57-12.26c0.64-5.59,1.12-10.48,1.12-10.48L129.18,189.26z"/>
		</g>
		<g>
			<path class="st10" d="M129.18,189.26c0,0-1.2,4.98-2.65,10.94l-10.08-13.54c0.64-5.59,1.12-10.48,1.12-10.48L129.18,189.26z"/>
		</g>
		<g>
			<path class="st11" d="M151.66,79.84c-17.37,2.95-17.33,16.26-17.04,20.88c0.29,4.62-32.49,25.67,5.59,38.41h25.92
				c0,0,27.21-4.44,15.04-29.64c-2.58-3.69-8.74-11.75-9.59-14.54S165.98,77.41,151.66,79.84z"/>
		</g>
		<g>
			<path class="st9" d="M183.42,150.13l-3.84,59.58l-46.92-1.33l-16.47-30.91c0,0-1.26-20.87,2.01-25.85
				c1.61-2.47,8.26-6.01,14.57-8.96c6.45-3.02,12.56-5.43,12.56-5.43l-0.41-13.13c-4.75-2.34-5.72-9.59-5.72-9.59
				c-6.69-1.36-7.67-6.48-5.72-8.95c1.27-1.61,4.64,1.29,4.97,1.55c-0.02-0.03-0.04-0.05-0.08-0.09c-0.85-0.85-0.78-2.67-0.13-4.09
				c2.86-3.18,3.7-11.03,3.7-11.03c4.6,5.57,23.68,6.16,23.68,6.16c0,2.99,3.5,5.51,3.5,5.51s-0.24,2.11-0.42,3.22
				c0.28-0.54,0.86-1.11,1.14-1.53c0.39-0.59,5.77-1.95,3.89,3.69c-1.88,5.64-5.9,5.13-5.9,5.13c-1.56,5.84-6.49,9.54-6.49,9.54
				l-0.2,12.4c5.63,2.09,10.04,4.44,13.4,6.63C180.79,146.69,183.42,150.13,183.42,150.13z"/>
		</g>
		<g>
			<path class="st12" d="M183.42,150.13l-3.84,59.58l-46.92-1.33l-16.47-30.91c0,0-1.26-20.87,2.01-25.85
				c1.61-2.47,8.26-6.01,14.57-8.96c0,0,18.11,12.4,41.78,0C180.79,146.69,183.42,150.13,183.42,150.13z"/>
		</g>
		<g>
			<path class="st10" d="M153.27,125.85c-2.67-0.04-5.57-0.46-8-1.69c0.16,0.08-0.09-0.15,0,0c0.41,0.74,1.59,1.97,2.15,2.61
				c4.32,4.94,11.53,2.75,13.63-3.07c-0.11,0.29-1.49,0.72-1.79,0.85c-0.69,0.3-1.39,0.56-2.11,0.78
				C155.87,125.71,154.57,125.88,153.27,125.85z"/>
		</g>
		<g>
			<path class="st11" d="M141.75,103.06c-0.12,0-0.23-0.03-0.34-0.1c-0.3-0.19-0.4-0.58-0.21-0.88c0.09-0.15,2.27-3.59,8.56-2.84
				c0.35,0.04,0.61,0.36,0.57,0.72c-0.04,0.35-0.36,0.61-0.72,0.57c-5.42-0.65-7.23,2.11-7.3,2.23
				C142.18,102.95,141.97,103.06,141.75,103.06z"/>
		</g>
		<g>
			<path class="st11" d="M163.75,102.39c-0.19,0-0.39-0.09-0.51-0.25c-2-2.6-7.18-1.73-7.23-1.72c-0.35,0.06-0.69-0.17-0.75-0.53
				c-0.06-0.35,0.17-0.69,0.52-0.75c0.24-0.04,6-1.02,8.48,2.2c0.22,0.28,0.17,0.69-0.12,0.91
				C164.03,102.34,163.89,102.39,163.75,102.39z"/>
		</g>
		<g>
			<path class="st10" d="M153.34,112.09c-0.67,0-1.26-0.21-1.64-0.63c-0.52-0.57-0.54-1.41-0.06-2.32c0.95-1.79,0.36-4.54,0.35-4.56
				c-0.05-0.23,0.09-0.46,0.33-0.51c0.23-0.05,0.46,0.09,0.51,0.33c0.03,0.12,0.67,3.08-0.43,5.16c-0.21,0.4-0.4,0.96-0.06,1.33
				c0.34,0.36,1.19,0.51,2.17,0.09c0.22-0.1,0.47,0.01,0.57,0.23c0.09,0.22-0.01,0.47-0.23,0.57
				C154.33,111.98,153.81,112.09,153.34,112.09z"/>
		</g>
		<g>
			<path class="st7" d="M147.06,113.75c1.93,0.46,6.72,1.3,11.56-0.22c0.03-0.01,0.05,0.01,0.04,0.04c-0.26,0.5-1.57,4.47-5.62,4.47
				c-3.1,0-5.55-2.55-6.37-3.71C146.47,114.05,146.73,113.67,147.06,113.75z"/>
		</g>
		<g>
			<path class="st10" d="M169.38,110.4c-0.05,0-0.11-0.01-0.16-0.03c-0.22-0.09-0.33-0.34-0.24-0.56c0.14-0.35,1.45-3.42,3.41-3.48
				c0.22,0,0.44,0.18,0.44,0.42c0.01,0.24-0.18,0.44-0.42,0.44c-1.19,0.04-2.31,2.13-2.64,2.94
				C169.71,110.3,169.55,110.4,169.38,110.4z"/>
		</g>
		<g>
			<path class="st10" d="M138.17,110.4c-0.16,0-0.32-0.09-0.39-0.25c-0.95-2.06-3.01-1.68-3.1-1.66c-0.23,0.05-0.46-0.1-0.51-0.34
				c-0.05-0.23,0.1-0.46,0.34-0.51c0.97-0.2,3.07-0.01,4.06,2.14c0.1,0.22,0.01,0.47-0.21,0.57
				C138.29,110.39,138.23,110.4,138.17,110.4z"/>
		</g>
		<g>
			<circle class="st11" cx="146.56" cy="105.65" r="1.54"/>
		</g>
		<g>
			<circle class="st11" cx="159.51" cy="105.65" r="1.54"/>
		</g>
		<g>
			<path class="st13" d="M323.39,205.55l1.1,2.26c0,0,3.77,11.42,4.72,23.52c0.94,12.11,0.79,50.01,0.79,50.01h-23.9l-2.83-40.58
				h-3.3l-3.62,40.58h-10.69l6.37-73.53h32.46"/>
		</g>
		<g>
			<path class="st14" d="M370.22,157.8l-10.29,19.17c-0.61,1.13-0.17,2.54,0.98,3.13l6.96,3.54c1.1,0.56,2.45,0.15,3.05-0.94
				l10.59-19.28c0.64-1.16,0.17-2.61-1.03-3.17l-7.26-3.44C372.12,156.29,370.8,156.72,370.22,157.8z"/>
			<path d="M368.92,184.76c-0.48,0-0.98-0.11-1.44-0.35l-6.96-3.54c-0.76-0.39-1.32-1.05-1.58-1.87c-0.26-0.82-0.17-1.68,0.23-2.43
				l10.29-19.17v0c0.8-1.48,2.61-2.08,4.13-1.36l7.26,3.44c0.78,0.37,1.39,1.06,1.65,1.88s0.18,1.73-0.24,2.49l-10.59,19.28
				C371.1,184.17,370.03,184.76,368.92,184.76z M372.24,157.45c-0.51,0-1,0.27-1.26,0.75v0l-10.29,19.17
				c-0.18,0.34-0.22,0.73-0.1,1.1c0.12,0.37,0.37,0.67,0.72,0.85l6.96,3.54c0.69,0.35,1.53,0.09,1.9-0.59l10.59-19.28
				c0.19-0.35,0.23-0.75,0.11-1.13c-0.12-0.38-0.39-0.68-0.75-0.85l-7.26-3.44C372.66,157.5,372.45,157.45,372.24,157.45z"/>
		</g>
		<g>
			<path class="st15" d="M368.12,184.7c0,0-2.79,3.27-7.39,2.77c0,0-8.72,17.85-11.23,21.95c-2.5,4.11-6.71,9.92-10.92,9.22
				c-4.21-0.71-6.22-6.53-7.92-13.09c-1.71-6.56-5.01-22.6-5.01-22.6s0.2-6.32,3.21-6.82c3-0.5,12.23,0.3,12.23,0.3l2.05,11.68
				l0.96,5.45c0,0,10.73-10.82,10.73-12.23s0.2-15.14,13.43-10.12c0,0,1.3,1.7-0.8,2.2c-2.11,0.5-4.3-2.68-6.61,1.32
				c-1.21,2.11-1.72,3.44-1.97,4.06c-0.12,0.3,0.56,0.96,0.92,1.17L368.12,184.7z"/>
		</g>
		<g>
			<path class="st16" d="M344.09,193.57c0,0-6.13,9.6-6.13,7.59c0-1.39,3.18-8.64,5.17-13.04L344.09,193.57z"/>
		</g>
		<g>
			<circle class="st17" cx="317.35" cy="80.19" r="11.33"/>
		</g>
		<g>
			<ellipse class="st17" cx="302.91" cy="101.11" rx="18.38" ry="19.09"/>
		</g>
		<g>
			<path class="st15" d="M344.7,177.72l-16.3,2.22c0,0-1.36,8.1-1.82,10.82c-0.45,2.73-2.44,15.23-2.08,17.05h-32.46l-21.12-54.22
				c0,0,8.45-10.83,21.37-15.58c0.12-0.05,0.24-0.09,0.36-0.14c0,0,2.68-0.33,2.84-2.25c0.17-1.92-0.25-10.11-0.25-10.11
				s-5.35-3.76-6.6-9.36c0,0-4.51,0.41-6.02-5.1c-1.49-5.51,3.66-4.25,4.82-1.98c-0.04-0.29-0.38-2.61,0.44-3.61
				c0.88-1.06,3.94-5.38,3.94-6.45c0,0,15.44-0.56,21.26-4.87c-0.07,0.2-1.35,3.37-2.61,3.75c0,0,2.25,0.25,3.75-2.5
				c0,0,0.19,4.5,1.63,6.22c1.43,1.73,3,4.66,1.75,7.48c0,0,1.31,0.5,2.06-2.19c0,0,2.69-1.44,3.44,1.37
				c0.75,2.82-2.69,7.2-6.14,7.95c0,0-1.25,6.95-6.2,9.76c0,0-0.75,9.7,0.5,10.52c0.28,0.18,1.48,0.72,3.25,1.6
				c6.14,3.03,19.1,10.11,24.07,20.27C344.99,171.46,344.7,177.72,344.7,177.72z"/>
		</g>
		<g>
			<path class="st18" d="M344.7,177.72l-16.3,2.22c0,0-1.36,8.1-1.82,10.82c-0.45,2.73-2.44,15.23-2.08,17.05h-32.46l-21.12-54.22
				c0,0,8.45-10.83,21.37-15.58c1.18,1.27,3.26,3.31,4.92,3.96c2.49,0.99,5.01,2.1,5.78,5.3c0,0,0.76-4.19,4.82-5.17
				c3.1-0.75,5.56-2.58,6.71-4c6.14,3.03,19.1,10.11,24.07,20.27C344.99,171.46,344.7,177.72,344.7,177.72z"/>
		</g>
		<g>
			<path class="st16" d="M302.91,127.85c-2.67-0.14-5.3-1.04-7.68-2.35c0.15,0.08,0.34,0.78,0.42,0.93
				c0.38,0.76,0.85,1.48,1.38,2.13c4.14,5.09,11.42,3.15,13.73-2.59c-0.12,0.29-1.51,0.67-1.82,0.79c-0.7,0.27-1.41,0.52-2.14,0.7
				C305.52,127.8,304.21,127.92,302.91,127.85z"/>
		</g>
		<g>
			<path class="st19" d="M303.39,114.54c-0.47,0-0.95-0.02-1.37-0.08c-0.24-0.03-0.45-0.17-0.59-0.39c-0.7-1.05,0.14-4.51,0.32-5.2
				c0.06-0.23,0.3-0.37,0.53-0.31c0.23,0.06,0.37,0.29,0.31,0.53c-0.54,2.1-0.74,4.25-0.42,4.52c1.09,0.15,2.87-0.01,2.89-0.01
				c0.22-0.02,0.45,0.15,0.47,0.39c0.02,0.24-0.15,0.45-0.39,0.47C305.08,114.47,304.28,114.54,303.39,114.54z"/>
		</g>
		<g>
			<path class="st7" d="M297.82,116.05h10.32c0,0-2.02,3.94-5.33,3.69C299.5,119.49,297.82,116.05,297.82,116.05z"/>
		</g>
		<g>
			<path class="st17" d="M291.3,103.87c-0.16,0-0.31-0.04-0.46-0.13c-0.4-0.25-0.53-0.78-0.28-1.18c0.03-0.05,2.91-4.58,8.99-1.4
				c0.42,0.22,0.58,0.74,0.36,1.16c-0.22,0.42-0.74,0.59-1.16,0.36c-4.62-2.42-6.64,0.65-6.73,0.78
				C291.87,103.73,291.59,103.87,291.3,103.87z"/>
		</g>
		<g>
			<path class="st17" d="M314.13,103.29c-0.26,0-0.52-0.12-0.69-0.35c-2.1-2.8-6.76-1.25-6.81-1.24c-0.45,0.15-0.94-0.09-1.09-0.54
				c-0.15-0.45,0.09-0.94,0.54-1.1c0.24-0.08,5.89-1.97,8.75,1.83c0.29,0.38,0.21,0.92-0.17,1.21
				C314.49,103.23,314.31,103.29,314.13,103.29z"/>
		</g>
		<g>
			<circle class="st17" cx="295.73" cy="107.52" r="1.46"/>
		</g>
		<g>
			<circle class="st17" cx="309.27" cy="107.52" r="1.46"/>
		</g>
		<g>
			<path class="st19" d="M287.12,113.14c-0.19,0-0.37-0.13-0.42-0.32c-0.65-2.52-2.34-2.28-2.36-2.27
				c-0.24,0.04-0.46-0.12-0.49-0.36c-0.04-0.24,0.12-0.46,0.36-0.49c0.03-0.01,2.49-0.36,3.33,2.91c0.06,0.23-0.08,0.47-0.31,0.53
				C287.19,113.13,287.16,113.14,287.12,113.14z"/>
		</g>
		<g>
			<path class="st19" d="M317.8,113.14c-0.07,0-0.14-0.02-0.21-0.05c-0.21-0.12-0.28-0.38-0.17-0.59c0.22-0.39,2.16-3.77,4.09-3.21
				c0.23,0.07,0.36,0.3,0.3,0.53c-0.06,0.23-0.3,0.36-0.53,0.3c-0.96-0.28-2.41,1.57-3.1,2.81
				C318.1,113.06,317.96,113.14,317.8,113.14z"/>
		</g>
		<g>
			<path class="st7" d="M294.87,114.92c-3.6,0-6.53-2.93-6.53-6.53s2.93-6.53,6.53-6.53c3.6,0,6.53,2.93,6.53,6.53
				S298.47,114.92,294.87,114.92z M294.87,102.72c-3.13,0-5.67,2.54-5.67,5.67s2.54,5.67,5.67,5.67s5.67-2.54,5.67-5.67
				S298,102.72,294.87,102.72z"/>
		</g>
		<g>
			<path class="st7" d="M310.24,114.59c-3.6,0-6.53-2.93-6.53-6.53c0-3.6,2.93-6.53,6.53-6.53c3.6,0,6.53,2.93,6.53,6.53
				C316.77,111.66,313.84,114.59,310.24,114.59z M310.24,102.38c-3.13,0-5.67,2.54-5.67,5.67c0,3.13,2.54,5.67,5.67,5.67
				c3.13,0,5.67-2.54,5.67-5.67C315.91,104.93,313.37,102.38,310.24,102.38z"/>
		</g>
		<g>
			<rect x="300.97" y="107.96" class="st7" width="3.16" height="0.86"/>
		</g>
		<g>
			<rect x="190.38" y="261.69" class="st20" width="77.35" height="19.65"/>
		</g>
		<g>
			<path class="st17" d="M216.04,67.06c0,0,5.66-11.02,16.99-7.04c11.33,3.98,17.3,8.42,15.31,20.97c-1.99,12.55-2.91,15-2.91,15
				l-38.73-1.07c0,0-0.46-8.27-1.22-10.41S199.5,65.23,216.04,67.06z"/>
		</g>
		<g>
			<path class="st21" d="M94.8,137.29L94.8,137.29c0.46-0.34,1.12-0.25,1.47,0.21l6.28,8.13c0.27,0.34,0.76,0.41,1.1,0.14l0,0
				c0.29-0.23,0.38-0.62,0.22-0.95l-5.12-10.68c-0.3-0.68-0.04-1.48,0.61-1.84l0,0c0.68-0.38,1.53-0.15,1.93,0.51l5.91,9.77
				c0.25,0.42,0.79,0.58,1.23,0.37l0.06-0.03c0.44-0.21,0.65-0.7,0.51-1.16l-4.09-12.94c-0.21-0.67,0.11-1.39,0.76-1.67h0
				c0.68-0.3,1.48,0,1.8,0.68l5.57,12.01c0.25,0.53,0.9,0.72,1.39,0.4l0,0c0.3-0.2,0.47-0.54,0.43-0.9l-1.2-11.3
				c-0.08-0.76,0.52-1.42,1.28-1.42l0,0c0.6,0,1.12,0.41,1.25,0.99c0.84,3.64,3.74,16.16,4.3,18.65c0.66,2.92,2.43-6.89,5.9-7.82
				c4.98-1.33-1.56,10.92-1.75,12.43c-0.19,1.51-1.98,8.21-3.3,10.76l29.35,34.07l8.4-10.85l24.33,18.31
				c0,0-18.31,23.74-26.22,26.06c-7.91,2.33-13.03-1.4-18.46-10.24c-5.43-8.84-28.55-51.66-28.55-51.66s-10.24-9-10.86-19.55
				l-4.84-9.12C94.24,138.18,94.37,137.6,94.8,137.29z"/>
		</g>
		<g>
			<path class="st22" d="M111.9,158.13c-0.23,0-0.42-0.18-0.43-0.42c0-0.1-0.26-9.79,8.96-11.11c0.23-0.04,0.45,0.13,0.49,0.37
				c0.03,0.24-0.13,0.45-0.37,0.49c-8.44,1.21-8.23,9.85-8.22,10.22c0.01,0.24-0.18,0.44-0.42,0.45
				C111.91,158.12,111.9,158.13,111.9,158.13z"/>
		</g>
		<g>
			<path class="st9" d="M298.15,202.81l-24.91,4.61l-1.85,56.66l-82.87,0.74l-1.29-62.75l-3.68,4.06c0,0-24.18-14.58-27.32-23.26
				c0,0,13.11-36.17,49.46-45.59c0,0,7.75-1.1,7.75-4.43c0-0.53,0.01-1.37,0.03-2.42c0.09-5.51,0.35-16.59,0.35-16.59
				s-4.12-6.01-4.5-9.6c0,0-3.97,2.84-7-1.14c-3.04-3.98-2.3-10.86,4.39-8.18c0,0,1.48,1.08,1.38-1.38
				c-0.09-2.46-2.63-16.5,6.01-21.83c0,0,6.39,9.28,19.39,8.25c13-1.04,12.37,8.77,11.45,12.69c-0.93,3.92,0.98,1.51,0.98,1.51
				s3.75-1.87,5.71,0.73c1.97,2.6,1.35,11.57-7.73,9.61c0,0-1.03,7.12-3.81,10c0,0-0.03,0.54-0.07,1.46
				c-0.07,1.56-0.17,4.2-0.23,6.98c-0.09,4.87-0.04,10.15,0.61,10.85c0.41,0.44,3.79,1.73,8.51,3.81
				c9.6,4.24,24.72,11.74,31.52,22.01C290.58,174.94,296.49,189.7,298.15,202.81z"/>
		</g>
		<g>
			<path class="st23" d="M240.09,114.51c0,0-0.03,0.54-0.07,1.46c0,0-13.42,23.33-24.3,0.02
				C216.13,116.49,226.51,129.09,240.09,114.51z"/>
		</g>
		<g>
			<path class="st24" d="M298.15,202.81l-24.91,4.61l-1.85,56.66l-82.87,0.74l-1.29-62.75l-3.68,4.06c0,0-24.18-14.58-27.32-23.26
				c0,0,13.11-36.17,49.46-45.59l18.34,12.96c1.91,1.35,4.44,1.36,6.36,0.05l18.53-12.69c9.6,4.24,24.72,11.74,31.52,22.01
				C290.58,174.94,296.49,189.7,298.15,202.81z"/>
		</g>
		<g>
			<polygon class="st25" points="269.37,207.81 270.92,281.34 288.61,281.34 293.01,203.76 			"/>
		</g>
		<g>
			<path class="st17" d="M211,88.27c-0.13,0-0.26-0.03-0.38-0.09c-0.43-0.21-0.6-0.73-0.39-1.15c0.03-0.07,3.53-6.94,12.09-3.94
				c0.45,0.16,0.69,0.65,0.53,1.1c-0.16,0.45-0.65,0.68-1.1,0.53c-7.09-2.49-9.86,2.85-9.97,3.07
				C211.62,88.1,211.32,88.27,211,88.27z"/>
		</g>
		<g>
			<path class="st17" d="M240.69,88.27c-0.31,0-0.61-0.17-0.76-0.46c-2.61-4.95-9.2-2.87-9.48-2.78c-0.45,0.15-0.94-0.1-1.09-0.55
				c-0.15-0.45,0.1-0.94,0.55-1.09c2.84-0.93,8.91-1.38,11.55,3.61c0.22,0.42,0.06,0.94-0.36,1.17
				C240.96,88.24,240.82,88.27,240.69,88.27z"/>
		</g>
		<g>
			<path class="st22" d="M226.95,107.59c-4,0-6.93-2.82-6.97-2.86c-0.17-0.17-0.17-0.44-0.01-0.61c0.17-0.17,0.44-0.17,0.61-0.01
				c0.25,0.24,6.08,5.82,12.39-0.01c0.17-0.16,0.45-0.15,0.61,0.02c0.16,0.18,0.15,0.45-0.02,0.61
				C231.24,106.87,228.96,107.59,226.95,107.59z"/>
		</g>
		<g>
			<path class="st22" d="M226.91,102.95c-0.52,0-0.94-0.15-1.27-0.46c-1.83-1.69,0.47-7.53,0.74-8.19c0.09-0.22,0.34-0.33,0.56-0.24
				c0.22,0.09,0.33,0.34,0.24,0.56c-0.93,2.28-2,6.26-0.95,7.23c0.54,0.5,1.71,0.09,2.59-0.35c0.21-0.11,0.47-0.02,0.58,0.19
				c0.11,0.21,0.02,0.47-0.19,0.58C228.3,102.73,227.54,102.95,226.91,102.95z"/>
		</g>
		<g>
			<path class="st22" d="M244.74,101.15c-0.06,0-0.13-0.01-0.19-0.05c-0.21-0.11-0.3-0.37-0.19-0.58c0.9-1.8,3.41-4.86,6.48-3.59
				c0.22,0.09,0.32,0.34,0.23,0.56c-0.09,0.22-0.34,0.32-0.56,0.23c-3.09-1.28-5.36,3.14-5.38,3.18
				C245.05,101.06,244.9,101.15,244.74,101.15z"/>
		</g>
		<g>
			<path class="st22" d="M208.93,102.17c-0.21,0-0.39-0.15-0.43-0.36c-0.52-3.19-5.31-4.32-5.36-4.33
				c-0.23-0.05-0.38-0.28-0.32-0.52c0.05-0.23,0.28-0.38,0.52-0.33c0.22,0.05,5.41,1.27,6.02,5.03c0.04,0.24-0.12,0.46-0.36,0.5
				C208.98,102.17,208.95,102.17,208.93,102.17z"/>
		</g>
		<g>
			<circle class="st17" cx="218.46" cy="93.09" r="1.85"/>
		</g>
		<g>
			<circle class="st17" cx="234.18" cy="93.09" r="1.85"/>
		</g>
		<g>
			<path class="st7" d="M216.61,102.73c-4.73,0-8.58-3.85-8.58-8.58c0-4.73,3.85-8.58,8.58-8.58s8.58,3.85,8.58,8.58
				C225.19,98.87,221.34,102.73,216.61,102.73z M216.61,86.85c-4.02,0-7.29,3.27-7.29,7.29c0,4.02,3.27,7.29,7.29,7.29
				s7.29-3.27,7.29-7.29C223.9,90.12,220.63,86.85,216.61,86.85z"/>
		</g>
		<g>
			<path class="st7" d="M236.03,102.73c-4.73,0-8.58-3.85-8.58-8.58c0-4.73,3.85-8.58,8.58-8.58c4.73,0,8.58,3.85,8.58,8.58
				C244.62,98.87,240.77,102.73,236.03,102.73z M236.03,86.85c-4.02,0-7.29,3.27-7.29,7.29c0,4.02,3.27,7.29,7.29,7.29
				c4.02,0,7.29-3.27,7.29-7.29C243.32,90.12,240.05,86.85,236.03,86.85z"/>
		</g>
		<g>
			<rect x="224.54" y="93.49" class="st7" width="3.55" height="1.29"/>
		</g>
		<g>
			<path class="st26" d="M245.33,192.46c-3.42,0-6.61-1.36-8.98-3.82c-2.37-2.47-3.6-5.71-3.47-9.13l0.47-12.11h24.44V180
				C257.79,186.87,252.2,192.46,245.33,192.46z M235.01,169.13l-0.41,10.45c-0.12,2.94,0.95,5.74,2.99,7.86
				c2.04,2.12,4.79,3.29,7.74,3.29c5.92,0,10.74-4.82,10.74-10.74v-10.87H235.01z"/>
		</g>
		<g>
			
				<rect x="251.58" y="188.4" transform="matrix(0.0415 -0.9991 0.9991 0.0415 69.8319 451.3111)" class="st26" width="37.12" height="1.73"/>
		</g>
		<g>
			
				<rect x="185.28" y="169.72" transform="matrix(0.9978 -0.0666 0.0666 0.9978 -11.9705 12.8123)" class="st26" width="1.73" height="32.39"/>
		</g>
	</g>
</g>
</svg>
