<?xml version="1.0" encoding="utf-8"?>
<!-- Generator: Adobe Illustrator 24.0.3, SVG Export Plug-In . SVG Version: 6.00 Build 0)  -->
<svg version="1.0" xmlns="http://www.w3.org/2000/svg" xmlns:xlink="http://www.w3.org/1999/xlink" x="0px" y="0px"
	 viewBox="0 0 617.9 544.4" style="enable-background:new 0 0 617.9 544.4;" xml:space="preserve">
<style type="text/css">
	.st0{fill:#B6D4FF;stroke:#000000;stroke-miterlimit:10;}
	.st1{fill:#FFFFFF;stroke:#000000;stroke-miterlimit:10;}
	.st2{fill:none;stroke:#000000;stroke-linecap:round;stroke-linejoin:round;stroke-miterlimit:10;}
	.st3{fill:#202020;}
	.st4{fill:#FFFFFF;}
	.st5{fill:#144EF2;stroke:#000000;stroke-miterlimit:10;}
	.st6{stroke:#000000;stroke-miterlimit:10;}
	.st7{fill:#0E1A2B;stroke:#000000;stroke-miterlimit:10;}
	.st8{fill:none;stroke:#000000;stroke-linejoin:round;stroke-miterlimit:10;}
	.st9{fill:#191919;}
	.st10{fill:none;stroke:#000000;stroke-miterlimit:10;}
	.st11{fill:#FFFFFF;stroke:#000000;stroke-width:0.9958;stroke-linejoin:round;stroke-miterlimit:10;}
	.st12{fill:#FFFFFF;stroke:#000000;stroke-linejoin:round;stroke-miterlimit:10;}
	.st13{fill:#424242;}
	.st14{fill:#FF66F4;stroke:#000000;stroke-miterlimit:10;}
	.st15{fill:#FF7D4B;}
	.st16{fill:#721BE2;stroke:#000000;stroke-miterlimit:10;}
	.st17{fill:none;stroke:#FFFFFF;stroke-width:2;stroke-linecap:round;stroke-linejoin:round;stroke-miterlimit:10;}
	.st18{fill:#144EF2;}
</style>
<g id="Layer_9">
	<path class="st0" d="M298.7,243.5l-55.9,7.1c0,0-23.2,109.5-24.9,122.7c-1.8,13.2,4.5,23.2,4.5,23.2l28.1,49.7l3.2-2.5
		c2.9,4.9,3.6,8.4,3,11.2c-1.1,5.3-6.6,8.4-10.6,13.9c-6.1,8.4,2.7,10.6,2.7,10.6h14.5l-0.2,2.8l45.5-1.2c0.8-10-8-13.5-10.8-14.3
		c-2.8-0.8-8-6.1-8-6.1l0.4-10.8c0,0,23-162.6,23-164.1c0-1.6,4.5-5.3,4.5-5.3L298.7,243.5z M268.8,313.6l-5.3,92.1l-8.9-28.2
		L268.8,313.6z"/>
	<path class="st1" d="M308.3,480.8l-45.5,1.2l0.2-2.8h-14.5c0,0-8.8-2.2-2.7-10.6c4-5.5,9.5-8.6,10.6-13.9c0.6-2.9-0.1-6.4-3-11.2
		l8-6v11.3l28.6,0.7l-0.4,10.8c0,0,5.3,5.3,8,6.1C300.2,467.3,309.1,470.8,308.3,480.8z"/>
</g>
<g id="Layer_64">
	<line class="st2" x1="265.4" y1="455.8" x2="266.1" y2="449"/>
</g>
<g id="Layer_10">
	<path class="st3" d="M308.7,480.8l-45.5,1.2l0.2-2.8h-14.5c0,0-8.8-2.2-2.7-10.6c4-5.5,9.5-8.6,10.6-13.9c3.4,0.1,8,0.3,9.2,1.1
		v7.2c0,0,3.1,1.6,4.3,4c1.3,2.3,3.2,0.9,6.3-1.4c3.1-2.3,7.3-5,13.4-5.1c0,0,5.3,5.3,8,6.1C300.7,467.3,309.5,470.8,308.7,480.8z"
		/>
</g>
<g id="Layer_8">
	<path class="st1" d="M248.8,256.9c0,0,18.7,20.2,46.3-11.6l4.5-76.1l-1.5-21.2l-47,1.9L248.8,256.9z"/>
</g>
<g id="Layer_12">
	<path class="st1" d="M232.9,168.3l7.7,79.6l48.1-17l-4.3-62.5c0,0,0.2-4.8-1.9-4.8S232.9,168.3,232.9,168.3"/>
</g>
<g id="Layer_11">
	<path class="st1" d="M227.3,173.9l44.3-7.5c0,0,5.3-1.4,5.8,1.2c0.5,2.6,10.9,65.6,10.9,65.6s1.7,7-2.4,7.4
		c-4.1,0.4-48.2,7.7-48.2,7.7L227.3,173.9"/>
</g>
<g id="Layer_7">
	<path class="st3" d="M234.3,233.3c0,0-1.4,27.5-3.6,37.4c-2.2,9.9-4,21.2-4,21.2s-0.8,5,7.6-0.6c8.4-5.6,16.4-12.6,16.4-12.6
		l3.9-33.3l-16.8,2.9l-0.9-15.1H234.3L234.3,233.3"/>
</g>
<g id="Layer_6">
	<path class="st3" d="M338.3,219.3c-0.2-3.5-1.6-11.8-3.3-20.3c-1.9-10-4.1-20.3-4.6-23.1c-1-5.3-4.1-23-11.5-26.5
		c-7.4-3.6-13.2-4.9-17.2-5.5c-4.1-0.6-9.3-5.1-11.2-5.6c-1.9-0.5-4.4-2.3-4.4-2.3s0.2,10,1.7,10.2c1.4,0.2,4.1,5.7,5.4,8.7
		c1.3,3,2,38.4,2,38.4l-1.7,52c0,0,0.8,14.3,2.4,16.4c1.3,1.6,6.7,4.5,9.8,6.5c0,0,1.9-13.2,1.9-15c0-1.8,0.9-17.9,0.9-21
		c0-3.1,1.1-20.6,1.1-20.6c1.8,0.4,2.9,4.7,3.6,10c0.9,7.6,0.8,17.3,0.1,20.6c-1.3,5.6-7.5,26.1-7.5,26.1c0.9,0.5,1.5,1,1.9,1.4
		c1.7,1.7,7.8,7.1,7.8,7.1l1.1-4.6l17.1-32.8c0,0,3-7.1,4.2-13.8C338.1,223.3,338.3,221.2,338.3,219.3z"/>
</g>
<g id="Layer_5">
	<path class="st3" d="M293.4,196.9c-0.1,1.5-4.1,3.5-4.1,3.5c0,3.5-1.4,6.2-1.4,6.2c0.1,14.3-22.2,15.1-22.2,15.1s-10.2,4.4-23.9,9
		c-4.5,1.5-9.3,3-14.2,4.5c-20.2,5.8-13.9-22.5-13.9-22.5s9.6-32.7,13.6-49.1c4-16.4,18.4-20.6,21.8-20.6c3.4,0,14.1-1.1,15.5-2.6
		c1.4-1.5,11.2-4.5,11.2-4.5l0.1,9.1c0,0-7.9,8.5-8,9.8c-0.1,1.3-0.8,9.6-0.8,9.6l-34.4,3.8l0.1,5.2l-5.7,0.5l4.8,34.6h8.1
		c0,0,19.6-4.8,20.9-5.2s6.6-8.8,6.9-9.8s4.2-1.6,5.2-1.6c1,0,7.5-4.2,7.5-4.2c0.3,4.9-3.5,6.3-4.5,6.8c-1,0.5-2.7,5-2.7,5
		s15.1-5,16.9-5.5C292.2,193.5,293.5,195.4,293.4,196.9z"/>
	<g>
		<path class="st4" d="M241.8,230.3c-3.8-1.2-7.7-5.2-7.7-11.1c0-4,2.5-7.7,4.7-10.2h1.5l0.1,0c0.8-0.2,19.6-4.8,21-5.2
			c1.7-0.5,7-9.4,7.3-10.2c0.2-0.6,3.4-1.3,4.7-1.3c0.9,0,4.9-2.5,7-3.7c-0.2,3.5-2.8,4.8-4,5.3l-0.3,0.1c-1.1,0.6-2.5,4.2-2.9,5.3
			l-0.4,1l1-0.3c0.2-0.1,15.1-5.1,16.9-5.5c0.2,0,0.3-0.1,0.4-0.1c0.5,0,0.9,0.3,1.2,0.6c0.5,0.5,0.7,1.2,0.7,1.9
			c-0.1,0.8-2.3,2.3-3.8,3.1l-0.3,0.1v0.3c0,3.4-1.3,5.9-1.3,6l-0.1,0.1l0,0.1c0.1,13.6-21.5,14.6-21.7,14.6l-0.1,0l-0.1,0
			C265.4,221.3,255.2,225.7,241.8,230.3z"/>
		<path d="M279.6,189.6c-0.6,2.5-2.5,3.4-3.6,3.9c-0.1,0-0.2,0.1-0.3,0.1c-1.2,0.6-2.5,3.8-3.1,5.6l-0.7,1.9l2-0.7
			c0.2-0.1,15.1-5,16.9-5.5c0.1,0,0.2,0,0.3,0c0.3,0,0.5,0.1,0.8,0.4c0.4,0.4,0.6,1,0.6,1.5c-0.1,0.5-1.8,1.8-3.5,2.7l-0.5,0.3v0.6
			c0,3.2-1.3,5.7-1.3,5.7l-0.1,0.2l0,0.3c0.1,13.1-21,14.1-21.2,14.1l-0.2,0l-0.2,0.1c-0.1,0-10.2,4.4-23.5,8.9
			c-3.5-1.2-7.2-5-7.2-10.6c0-3.7,2.4-7.3,4.5-9.7h1.2h0.1l0.1,0c0.8-0.2,19.6-4.8,21-5.2c2-0.5,7.1-9.3,7.6-10.4
			c0.5-0.5,3.2-1.1,4.3-1.1C274,192.9,276.1,191.8,279.6,189.6 M280.7,187.7c0,0-6.5,4.2-7.5,4.2c-1,0-4.8,0.6-5.2,1.6
			s-5.5,9.5-6.9,9.8s-20.9,5.2-20.9,5.2h-1.6c-2.3,2.5-5,6.4-5,10.7c0,6,4,10.3,8.2,11.6c13.7-4.7,23.9-9,23.9-9s22.3-0.9,22.2-15.1
			c0,0,1.4-2.7,1.4-6.2c0,0,4-2,4.1-3.5c0.1-1.3-0.9-3-2.4-3c-0.2,0-0.4,0-0.6,0.1c-1.8,0.5-16.9,5.5-16.9,5.5s1.6-4.5,2.7-5
			C277.2,194,281,192.6,280.7,187.7L280.7,187.7z"/>
	</g>
</g>
<g id="Layer_65">
	<path class="st2" d="M288.7,200.1c-3.8,1.7-8.3,3-8.3,3"/>
	<line class="st2" x1="287.2" y1="206.3" x2="282.5" y2="208.1"/>
</g>
<g id="Layer_4">
	<g>
		<path class="st4" d="M281.5,159c-4.1,0-8.5-1.5-12.9-4.4c0.1-1.3,0.6-7.2,2.9-9.3c2.6-2.5,2.5-8.1,2.4-10.8c0-0.3,0-0.6,0-0.9
			c0-1.7,0-4.1,0-5.1l13.9-1.2c-0.2,2.6-1,12.4,0.1,15.3c0.5,1.4,1.4,2.2,2.2,3c1.1,1,2.1,2,2.5,4.6c0.4,3.3,0.2,4.2,0.2,4.3l0,0.1
			C292.7,154.6,288.6,159,281.5,159z"/>
		<path d="M287.3,127.8c-0.3,3.3-0.8,12.1,0.2,14.9c0.6,1.5,1.5,2.4,2.3,3.2c1.1,1,2,1.9,2.3,4.3c0.4,2.8,0.3,3.8,0.2,4
			c-0.4,0.4-4.3,4.3-10.8,4.3c-4,0-8.1-1.4-12.4-4.2c0.2-2.3,0.8-7,2.7-8.7c2.8-2.7,2.7-8.2,2.6-11.2c0-0.3,0-0.6,0-0.9
			c0-1.4,0-3.5,0-4.6L287.3,127.8 M288.4,126.7l-15,1.3c0,0,0,3.4,0,5.6c0,2.1,0.5,8.7-2.3,11.4c-2.8,2.7-3,10-3,10
			c5.2,3.5,9.7,4.7,13.4,4.7c7.4,0,11.6-4.7,11.6-4.7s0.6-0.1,0-4.8c-0.6-4.7-3.5-4.5-4.7-7.7C287.3,139.2,288.4,126.7,288.4,126.7
			L288.4,126.7z"/>
	</g>
</g>
<g id="Layer_3">
	<path class="st1" d="M260,112c0,0-3,3-1.8,6.6c1.3,3.5,4.4,5.4,8,4.2c0,0,3.8,9.5,13.6,8.8c9.8-0.6,15.4-11.5,15.5-12.5
		c0.1-1,4.7-2.1,5-4.8c0.4-2.7,0-7.4-4.3-6.2s0,0,0,0l-3.4-16l-5.9-3.5l-26.5,8L260,112z"/>
</g>
<g id="Layer_2">
	<path class="st3" d="M260.9,88.7c-10,8.6-2,25.1-2,25.1s3-0.8,3.7,1c0.6,1.8,1.1,3.7,1.1,3.7l1.8-1.3c0,0,0-11.9-1.1-13.6
		c-1.1-1.8-1.9-5.2-0.1-5.7c1.8-0.5,8.6,1.6,12.6,0.5c4-1.1,8.5-6.2,10.6-6.1c2.1,0.1,4.5,1.4,5.2,5.4c0.6,4,1.3,9.1,1.8,10.1
		s1.8,0.1,1.8,0.1s1-11.9-0.5-14.9c0,0,4.3,0.1,4.3-1s-5.6-6.9-7.3-6.9c-1.8,0,4.4-5.7,3.8-5.9c-0.6-0.3-15-0.5-16.7,1.9
		c-1.6,2.4,0-4.8-1.5-3.8c-1.5,1-4.5,4.7-8.2,6.6C266.3,85.8,263.5,86.6,260.9,88.7z"/>
</g>
<g id="Layer_13">
	<path class="st2" d="M267.2,108.7c0,0,3.5-4.3,9-1.8"/>
	<path class="st2" d="M291.2,103.1c0,0-8.7-2-10.4,3.7c-1.7,5.7,1.4,8.6,2.3,8.8c0.9,0.2,3.3,0.9,2.7,2c-0.6,1.1-1.5,2.1-1.5,2.1"/>
	<path class="st2" d="M282.5,122.5c0,0-5.8,0.5-7.3-0.7c-1.6-1.2,0,2.4,0,2.4s2.1,2.9,5,2.6"/>
	
		<ellipse transform="matrix(0.9759 -0.2183 0.2183 0.9759 -18.0377 62.1768)" class="st3" cx="272.4" cy="112.7" rx="1.4" ry="2.7"/>
	
		<ellipse transform="matrix(0.9759 -0.2183 0.2183 0.9759 -17.0685 65.0056)" class="st3" cx="285.7" cy="109.8" rx="1.4" ry="2.7"/>
</g>
<g id="Layer_36">
	<path class="st5" d="M517.8,250.7c0,0-5.4-13-19.2-12.8l6.1-7.8l-6.7-28.7l-13.8,17.8l2,13.6l0.6,4.3l6.1,41.5l-55.3-28l0.1-8
		l0.1-4.6l0.5-45.2l-33.5,12.9c0,0-15.2,4.1-16.8-1.9c-1.5-6-3.1-26-3.1-26s15,4.6,22.2-5.1l1,5c0,0,25.8-32.5,45.6-32.1
		c19.8,0.3,48-1.3,48-1.3c0.3,0,18.8,0.1,21.4,19.6c2.6,19.7,8.2,62.2,8.2,62.2S532.9,243.7,517.8,250.7z"/>
	<g>
		<polygon class="st4" points="438.2,238.4 485.8,233.3 486.3,236.6 438.2,241.9 		"/>
		<path d="M485.4,233.8l0.3,2.3l-47,5.2l0-2.5L485.4,233.8 M486.2,232.7l-48.5,5.2l-0.1,4.6l49.2-5.5L486.2,232.7L486.2,232.7z"/>
	</g>
</g>
<g id="Layer_66">
	<polygon class="st6" points="488,245 472,246.3 476.6,269.1 491.1,266.5 	"/>
</g>
<g id="Layer_59">
	<path class="st6" d="M460.6,479.2h-43.2c0,0,0.6-13.5,14.3-14.8h27C459.8,473.6,460.6,479.2,460.6,479.2z"/>
</g>
<g id="Layer_37">
	<path class="st7" d="M490.3,464.3v-8.5h-5l-18.1-107.6l-4,103.4h-4.5v10.1h-23.3l2.2-211.2l2.8-3.4l35.2-4c0,0-0.2,21.6,16.9,32.4
		c3,1.8,5.7,1.3,4.2,5.2c-1.5,4-3.6,1-1.6,14.8c1.5,10.6,15,113.4,21.1,160.3c0.4,3,0.8,5.9,1.1,8.4c1.2,9.2,1.9,14.8,1.9,14.8H476
		C476,479.2,476.6,465.7,490.3,464.3z"/>
	<g>
		<path class="st4" d="M490.8,455.9l24.8,0c0.2,1.5,0.5,3,0.8,4.5c0.2,1.3,0.5,2.5,0.6,3.6l-26.3,0.3V455.9z"/>
		<path d="M515.2,456.4c0.2,1.4,0.5,2.8,0.7,4.1c0.2,1.1,0.4,2.1,0.5,3l-25.2,0.3v-7.4L515.2,456.4 M516.1,455.4l-25.8,0v9.4
			l27.3-0.3C517.3,461.9,516.5,458.4,516.1,455.4L516.1,455.4z"/>
	</g>
	<path class="st6" d="M519.2,479.2H476c0,0,0.6-13.5,14.3-14.8h27C518.5,473.6,519.2,479.2,519.2,479.2z"/>
</g>
<g id="Layer_42">
	<polygon class="st4" points="507.7,453.6 483.6,284.5 489.3,274.9 492.7,277.1 487.9,285.5 511.7,453.6 	"/>
</g>
<g id="Layer_41">
	<path class="st8" d="M379.3,134c0,0-0.9-4.7,1.3-6.5c2.2-1.8,6.9-4.7,7.8-4.8c0.9-0.1,0,11.4,0,11.4l-7.5,2.4L379.3,134z"/>
</g>
<g id="Layer_39">
	<g>
		<path class="st4" d="M394.2,178.9c-4.1,0-7.7-1.1-8.8-1.4l0.6-26c0-0.2-0.1-0.4-0.3-0.5c-1.8-0.6-4.9-6-5.7-8.8
			c-0.6-2.1-2.6-3.4-4.8-4.7c-1-0.6-2-1.3-3-2c-1.6-1.2-1.7-1.9-1.7-2.2c0.1-0.4,0.6-0.8,1.5-1.1c0.4-0.1,0.9-0.2,1.4-0.2
			c1.4,0,3.2,0.5,4.7,0.9c1.4,0.4,2.6,0.7,3.6,0.7c0.5,0,0.9-0.1,1.2-0.3c1.8-1,4.9-5,4.4-8.2c-0.5-3.2-4.5-3.9-6-3.9l-0.2,0
			c-0.8,0-3.5,0.7-7.3,1.5c-2.1,0.5-4,0.9-4.6,1c0,0,0,0,0,0c-0.5,0-1.2-0.5-1.4-1.2c-0.2-0.9,0.4-1.8,1.7-2.6
			c3.7-2.1,9.6-3.4,15.9-3.4c2.6,0,4.8,0.2,6.2,0.6c2.4,0.7,4.8,8.6,6.5,21.3c0.4,3,7.6,31.7,8.4,34.6
			C404.1,176.9,399.9,178.9,394.2,178.9z"/>
		<path d="M385.6,117c2.5,0,4.8,0.2,6.1,0.6c1.6,0.5,4.1,6.2,6.1,20.9c0.4,3,7.4,30.5,8.3,34.4c-2.5,3.6-6.5,5.5-11.9,5.5
			c-3.6,0-6.9-0.9-8.3-1.3l0.6-25.6c0-0.4-0.3-0.8-0.7-1c-1.3-0.4-4.5-5.1-5.4-8.5c-0.6-2.3-2.7-3.6-5-5c-1-0.6-2-1.2-3-2
			c-1.6-1.2-1.5-1.7-1.5-1.8c0-0.1,0.3-0.4,1.2-0.7c0.3-0.1,0.8-0.2,1.3-0.2c1.4,0,3.1,0.5,4.6,0.9c1.4,0.4,2.7,0.7,3.7,0.7
			c0.6,0,1-0.1,1.4-0.3c1.9-1.1,5.2-5.3,4.6-8.7c-0.5-3.2-4.1-4.3-6.5-4.3c-0.1,0-0.1,0-0.2,0c-0.9,0-3.5,0.6-7.4,1.5
			c-2,0.5-4,0.9-4.5,1c-0.2,0-0.7-0.3-0.9-0.9c-0.2-0.9,0.8-1.7,1.5-2.1C373.5,118.2,379.3,117,385.6,117 M385.6,116
			c-5.2,0-11.8,0.9-16.2,3.5c-3.7,2.2-1.5,4.8-0.1,4.8c0,0,0.1,0,0.1,0c1.3-0.2,10.4-2.5,11.8-2.5c0.1,0,0.1,0,0.2,0
			c1.5,0,5.1,0.7,5.5,3.5c0.4,2.8-2.4,6.7-4.2,7.7c-0.2,0.1-0.6,0.2-0.9,0.2c-2,0-5.5-1.6-8.3-1.6c-0.6,0-1.1,0.1-1.6,0.2
			c-1.9,0.6-3.1,1.8,0,4.2s6.9,3.6,7.6,6.4c0.8,2.8,3.9,8.5,6,9.2l-0.6,26.4c0,0,4.3,1.5,9.3,1.5c4.6,0,9.9-1.3,13-6.3
			c0,0-8-31.7-8.4-34.8c-0.4-3.1-2.8-20.6-6.9-21.7C390.5,116.2,388.2,116,385.6,116L385.6,116z"/>
	</g>
</g>
<g id="Layer_40">
	<path class="st2" d="M388.3,138.4c0,0-1.7-4.2-5.9-4.8"/>
</g>
<g id="Layer_38">
	<g>
		<path class="st4" d="M491.1,273.7c-0.5,0-0.9-0.1-1.3-0.4c-3.9-2.5-12.9-9.4-12.7-18.4c0-0.6,0.2-0.9,0.9-0.9c1.1,0,3,0.8,5.4,2.3
			c0.3,0.2,0.6,0.3,0.9,0.3c1.5,0,3.1-2.1,5-4.7c0.8-1.1,1.6-2.2,2.5-3.2c2.5-3,5-7.5,6.4-9.9c0.3-0.6,0.9-1,1.5-1.2l5.9-1.6
			c0.2-0.1,0.4-0.1,0.6-0.1c0.6,0,1.2,0.2,1.7,0.7L518,246c0.7,0.7,1,1.8,0.6,2.7L518,250c-0.1,0.3-0.3,0.6-0.6,0.9L492.8,273
			C492.3,273.4,491.7,273.7,491.1,273.7z"/>
		<path d="M506.2,236.3c0.5,0,1,0.2,1.3,0.5l10.2,9.6c0.6,0.6,0.8,1.4,0.5,2.2l-0.5,1.3c-0.1,0.3-0.3,0.5-0.5,0.7l-24.6,22.2
			c-0.4,0.3-0.8,0.5-1.3,0.5c-0.4,0-0.7-0.1-1.1-0.3c-3.8-2.5-12.6-9.2-12.5-18c0-0.3,0.1-0.3,0.1-0.3l0,0c0,0,0.1-0.1,0.3-0.1
			c0.5,0,1.9,0.2,5.1,2.2c0.4,0.2,0.8,0.3,1.2,0.3c1.8,0,3.3-2,5.4-4.9c0.8-1.1,1.6-2.2,2.5-3.2c2.5-3,5.1-7.6,6.4-10
			c0.2-0.5,0.7-0.8,1.2-1l5.9-1.6C505.8,236.3,506,236.3,506.2,236.3 M506.2,235.3c-0.3,0-0.5,0-0.8,0.1l-5.9,1.6
			c-0.8,0.2-1.4,0.7-1.8,1.4c-1.1,2.1-3.8,6.8-6.3,9.9c-3,3.6-5.3,7.7-7.1,7.7c-0.2,0-0.4-0.1-0.6-0.2c-1.3-0.8-4-2.3-5.6-2.3
			c-0.8,0-1.4,0.4-1.4,1.4c-0.1,9.2,8.9,16.2,13,18.8c0.5,0.3,1.1,0.5,1.6,0.5c0.7,0,1.4-0.3,2-0.8l24.6-22.2c0.3-0.3,0.6-0.6,0.7-1
			l0.5-1.3c0.5-1.1,0.2-2.4-0.7-3.3l-10.2-9.6C507.6,235.5,506.9,235.3,506.2,235.3L506.2,235.3z"/>
	</g>
</g>
<g id="Layer_35">
	<path class="st1" d="M453.8,145.5c0,0,2.9,11.8,21.5,9.9c18.6-1.9,26.5-11.2,26.5-11.2s-22.9,1.8-19.7-23.6c0,0,10.5,0.2,7-8.8
		c-3.5-9-8.7-0.8-8.7-0.8l-13.7,27.2C466.6,138.3,466.8,147,453.8,145.5z"/>
</g>
<g id="Layer_31">
	<path d="M446.8,101.3c0,0,3.6-6.6,3.1-7.2s-9.1-2.8-1.7-8.4s33.4-15.1,43.2,3.4c1,3.7,3.8,14.9-2.4,22.8c0,0-5.8-3-8.6,1.8
		c-2.8,4.8-2.2,7.5-2.2,10.4c0,2.9-1.1,12.6-11.7,14.3c-10.6,1.7-20.9-1.5-21.5-8.9c-0.5-7.4,3.2-10.2,4.4-11.4
		C449.5,118,452.4,107.6,446.8,101.3z"/>
</g>
<g id="Layer_33">
	<g>
		<path class="st4" d="M456.8,123.4c-4,0-4.7-2.5-4.6-3c0.1-0.5,1.6-0.6,2.3,0c0.6,0.6,3.6,0.5,4.4,0.2c0.8-0.3,1.7-0.5,1.7,0.3
			C460.7,121.7,460.4,123.3,456.8,123.4z"/>
	</g>
</g>
<g id="Layer_32">
	<g>
		<path class="st4" d="M451.8,94.1c0,0,14.2,4.2,20.4,1.2c0,0,1,8.3,6.1,8.3c0,0-6.6,6.3-6.6,10.6s0.4,8.3-1.6,9.1
			c-2.1,0.8-9-9.7-15.9-6.5c0,0,3.8-15.1-5.4-15.9L451.8,94.1z"/>
	</g>
</g>
<g id="Layer_58">
	<path class="st4" d="M449,101.6c0,0,4.4,1.4,4.6,7.5c0.2,6.1-0.5,8.2-0.5,8.2s-1.8,0-2.7,0.5c-0.4,0.2,2.6-10-1.4-14.6
		c-0.8-1-0.7-1.5-0.7-1.5L449,101.6z"/>
</g>
<g id="Layer_34">
	<path class="st2" d="M459.2,101.6c0,0,8.7-2.6,12,3.5"/>
	<ellipse cx="464.3" cy="108.1" rx="1.6" ry="3"/>
	<ellipse cx="453.1" cy="107.7" rx="1.6" ry="3"/>
</g>
<g id="Layer_63">
	<polyline class="st2" points="262.6,278.9 270.7,284.5 261.6,437.1 	"/>
</g>
<g id="Layer_17">
	<path class="st9" d="M456.8,349.6v27.7c-15.2,7.5-55.7-1.4-55.7-1.4l-31.6-5.5l-2,83.3l-0.1,4.4l-0.3,10.9l-0.3,11.4H321
		c0.2-5.2,6.3-9.2,11.5-11.4c2-0.8,3.8-1.4,5.1-1.6c4.7-0.9,5.6-9.2,5.6-9.2l0-0.2l-0.5-4.4l-9-77.8l-18.5,16l0,0l-2-3.9l-6.3,5.5
		l-0.1,0.1l-7.7,6.6l-9.3,8l-29.7-34.8c3.6-4.1,10.3-2.8,16.5-0.3c7.1,2.9,13.4,7.4,13.4,7.4l4.6-5.1l0.3-0.4l6.4-7.2l55.2-61.8
		L456.8,349.6z"/>
	<polygon class="st1" points="301.4,367.8 313.3,388.1 306.8,393.6 295,375 	"/>
	<polygon class="st10" points="315.3,391.9 315.2,392 313.3,388.1 	"/>
	<g>
		<polygon class="st4" points="343.7,457.5 343.3,454.1 367.1,454.1 367,457.5 		"/>
		<path d="M366.5,454.6l-0.1,2.4h-22.4l-0.3-2.4H366.5 M367.6,453.6h-24.9l0.5,4.4h24.3L367.6,453.6L367.6,453.6z"/>
	</g>
	<g>
		<path class="st4" d="M321.6,479.9c0.6-5.5,8.3-9.2,11-10.3c4.4,1.1,11.5,3.5,11.5,7c0,0.3,0.2,0.5,0.5,0.5h13.9
			c0.2,0,0.4-0.1,0.5-0.3c0-0.1,2.8-6,7.8-7.2l-0.3,10.3H321.6z"/>
		<path d="M332.6,470.1c6.9,1.8,11,4.2,11,6.5c0,0.6,0.4,1,1,1h13.9c0.4,0,0.7-0.2,0.9-0.6c0-0.1,2.5-5.3,6.8-6.8l-0.2,9.2h-43.8
			C323.2,474.6,330,471.2,332.6,470.1 M367.2,469c-5.6,0.9-8.7,7.7-8.7,7.7h-13.9c0-3.8-7.1-6.3-12-7.6c-5.2,2.2-11.3,6.2-11.5,11.4
			h45.9L367.2,469L367.2,469z"/>
	</g>
	<path class="st11" d="M298.5,400.8l-8.8,7.3l-29.9-34.3c12.9-6.5,21.1,11.9,18.2,15.1l9.1,10.4
		C287.1,399.3,294.2,397.2,298.5,400.8z"/>
</g>
<g id="Layer_25">
	<path class="st10" d="M406.9,323.2c-0.9-1-2.9-20.6-2.1-21.8"/>
</g>
<g id="Layer_30">
	<circle class="st12" cx="407.5" cy="471.8" r="7.4"/>
	<circle class="st12" cx="425.6" cy="471.8" r="7.4"/>
	<circle class="st12" cx="443.6" cy="471.8" r="7.4"/>
	<circle class="st12" cx="461.6" cy="471.8" r="7.4"/>
</g>
<g id="Layer_23">
	<polyline class="st13" points="388.6,396.5 395.7,401.2 427.2,401.2 427.2,458.6 403.1,458.6 403.1,465.7 465.7,465.7 465.7,458.6 
		441.2,458.6 441.2,400.5 472.1,400.5 478.3,396.5 388.6,396.5 	"/>
</g>
<g id="Layer_22">
	<g>
		<path class="st4" d="M389.1,396v-8.4c0-5.8,4.7-10.5,10.5-10.5h67.7c5.8,0,10.5,4.7,10.5,10.5v8.4H389.1z"/>
		<path d="M467.3,377.6c5.5,0,10,4.5,10,10v7.9h-87.8v-7.9c0-5.5,4.5-10,10-10H467.3 M467.3,376.6h-67.7c-6.1,0-11,4.9-11,11v8.9
			h89.8v-8.9C478.3,381.6,473.4,376.6,467.3,376.6L467.3,376.6z"/>
	</g>
</g>
<g id="Layer_14">
	<path d="M369.9,280.2c-7.2,0-29.1,2-11-24.3c-0.2-3.6-1.8-14.4,6.5-19.1c8.3-4.7,5.2-7.7,4.5-9.9c-0.7-2.3-2.9-36,41.5-34
		c4.5,0.9,21.9,4.1,20.3,29.3c-1.6,25.2-1.6,33.6-1.6,33.6L369.9,280.2z"/>
</g>
<g id="Layer_29">
	<g>
		<path class="st4" d="M313.1,269.7c-0.1,0-15.2-2.5-16.9-9.1l0-0.1l-0.1-0.1c0,0-1.2-1.6-1.1-3c0.1-0.6,0.4-1.2,1-1.6l0.1-0.1
			l0-0.1c0,0,0.9-2.6,2.6-2.6c0.7,0,3.8,0.4,7.3,0.9c6.3,0.9,14,2,17.2,2c0.5,0,0.9,0,1.1-0.1c0,0,0,0,0,0c1.2,0,2.5,7.3,2.9,16
			L313.1,269.7z"/>
		<path d="M298.8,253.5c0.6,0,3.8,0.5,7.2,0.9c6.3,0.9,14.1,2,17.3,2c0.5,0,0.8,0,1.1-0.1c1,0.9,2.1,7.5,2.4,14.9l-13.7-2.1
			c0,0-3.8-0.6-7.8-2.1c-3.5-1.3-7.9-3.5-8.7-6.7l-0.1-0.2l-0.1-0.2c-0.3-0.4-1.1-1.6-1-2.7c0.1-0.5,0.3-0.9,0.8-1.3l0.2-0.2
			l0.1-0.3C296.9,255.1,297.7,253.5,298.8,253.5 M298.8,252.5c-2.1,0-3.1,2.9-3.1,2.9c-2.7,2.1,0,5.4,0,5.4c1.9,7,17.3,9.5,17.3,9.5
			l14.9,2.3c0,0-0.6-17.1-3.4-17.1c0,0-0.1,0-0.1,0c-0.2,0.1-0.6,0.1-1,0.1C318.3,255.5,300.7,252.5,298.8,252.5L298.8,252.5z"/>
	</g>
</g>
<g id="Layer_56">
	<line class="st2" x1="310.6" y1="259.2" x2="296.6" y2="255.7"/>
	<path class="st2" d="M296.2,261.1c0,0,0.2-3.4,1.4-2.7c1.5,0.8,3,2.3,3.7,2.6c1.6,0.7,4.3,2.4,5.1,2.7"/>
</g>
<g id="Layer_28">
	<g>
		<path class="st4" d="M328.1,274.6c-2-0.6-11.8-3.8-12.9-3.8c-0.1,0-5.6-0.3-11-7.7c-0.2-0.3-0.3-0.6-0.2-0.9
			c0.1-0.3,0.2-0.6,0.5-0.8c0.2-0.2,0.5-0.2,0.7-0.2c0.3,0,0.6,0.1,0.8,0.3c2.9,2.7,4.9,4.1,6,4.2c0.1,0,0.3,0,0.5,0
			c1.8,0,5.2-0.3,6.9-1.5c1.5-1.1,3.6-1.9,3.6-1.9l0.4-0.2l-0.1-0.4c0,0-0.9-3.7-0.7-5.5c0.3-2.1-0.8-4.2-1.6-5
			c-0.5-0.5-1.6-2.6-1.6-4.5c0-0.9,0.3-1.6,0.8-2.2c0.2-0.1,0.7-0.3,1.1-0.3c0.2,0,0.2,0.1,0.2,0.1c0.4,1,3.2,5.9,4.3,7.6
			c0.4,0.5,1.5,1.9,3,3.7c3.4,4.1,8.5,10.2,9.4,12.5c0.9,2.4-1.7,7.1-3,9.1L328.1,274.6z"/>
		<path d="M321.2,244.6c0.6,1.4,3.2,5.8,4.3,7.5c0.4,0.6,1.5,1.9,3,3.8c3.2,3.8,8.5,10.2,9.3,12.4c0.7,1.9-1.2,5.9-2.8,8.3l-6.8-2.4
			c-3.6-1.2-11.9-3.8-13-3.8c-1.1,0-6-1.3-10.6-7.5c-0.1-0.2-0.2-0.4-0.1-0.5c0-0.2,0.1-0.4,0.3-0.5c0.1-0.1,0.3-0.1,0.4-0.1
			c0.2,0,0.4,0.1,0.5,0.2c4.5,4.2,5.9,4.3,6.3,4.3c0.2,0,0.3,0,0.5,0c1.8,0,5.4-0.3,7.2-1.6c1.5-1.1,3.5-1.8,3.5-1.8l0.8-0.3
			l-0.2-0.8c-0.2-1-0.8-3.9-0.7-5.3c0.3-2.1-0.7-4.4-1.8-5.5c-0.3-0.3-1.5-2.3-1.4-4.1c0-0.8,0.2-1.3,0.6-1.8
			C320.7,244.7,321,244.6,321.2,244.6 M321.3,243.6c-0.6,0-1.4,0.4-1.4,0.4c-2.3,2.2-0.1,6.6,0.7,7.4c0.8,0.8,1.7,2.8,1.5,4.6
			c-0.2,1.9,0.7,5.7,0.7,5.7s-2.1,0.8-3.7,2c-1.5,1.1-4.7,1.4-6.6,1.4c-0.2,0-0.3,0-0.5,0c-1.3,0-4.2-2.6-5.7-4
			c-0.3-0.3-0.8-0.5-1.2-0.5c-0.4,0-0.7,0.1-1,0.3c-0.8,0.6-0.9,1.7-0.4,2.4c5.1,6.9,10.4,7.9,11.4,7.9c1,0,12.7,3.8,12.7,3.8
			l7.5,2.7c0,0,4.6-6.5,3.3-9.9c-1.3-3.4-11.3-14.6-12.5-16.4c-1.2-1.7-3.9-6.6-4.3-7.5C321.9,243.7,321.6,243.6,321.3,243.6
			L321.3,243.6z"/>
	</g>
</g>
<g id="Layer_18">
	<path class="st14" d="M327.9,275.1c0,0,8.5-1.2,10.8-7.2l19.7,20L371,270c0,0,9.3-13.8,17.8-14c8.6-0.2,46.5-8.9,46.5-8.9
		s2.8-0.8,13.3,5.9c10.5,6.7,31.3,28.8,31.3,28.8s5.5,12.2-3.5,16.3h-29.8l10.2,51.5l-55.6-24.2c0,0,4.1-15.4,2.8-23.1
		c0,0-13,3.9-17.4-8.8c0,0-18.9,17.9-22.5,19.7c-3.7,1.8-12.4,4.3-18.8-7.3C338.9,294.5,327.9,275.1,327.9,275.1z"/>
</g>
<g id="Layer_26">
	<g>
		<path class="st4" d="M414.5,322.6c-0.9-0.2-4.3-1.8-4.5-15.6l-1,0l-0.5,15.4c-0.7-0.4-2-1.3-2.2-4.1c-0.3-4.1-0.9-15.8-1-17
			c0.5-1.4,7.3-18.7,23.8-19.4c1,1.1,6.4,7.2,2.3,14.7L414.5,322.6z"/>
		<path d="M428.8,282.5c1.2,1.4,5.8,7.1,2.1,13.9l-16.7,25.7c-1.3-0.6-3.6-3.9-3.8-15l-2,0l-0.5,14.5c-0.5-0.5-1.1-1.5-1.3-3.2
			c-0.3-4-0.9-15.2-1-16.9C406.5,299.6,413.1,283.4,428.8,282.5 M429.3,281.5c-17.8,0.6-24.5,19.8-24.5,19.8s0.6,12.8,1,17.1
			c0.4,4.3,3.2,4.7,3.2,4.7l0.5-16.1c0.2,15.6,4.6,16.1,5.2,16.1c0,0,0.1,0,0.1,0l17-26.3C436.4,288.5,429.3,281.5,429.3,281.5
			L429.3,281.5z"/>
	</g>
</g>
<g id="Layer_24">
	<line class="st10" x1="429.3" y1="281.5" x2="458.7" y2="280.3"/>
	<path class="st10" d="M433.6,273.8c0,0,11.1,3.2,13.5,6.9"/>
	<path class="st10" d="M385.7,275.4c0,0,3.5,0.9,6.1,4.2c0,0-7.9,4.3-5.3,14.1"/>
</g>
<g id="Layer_19">
	<path class="st1" d="M468.2,352.5h-40c-7.4,0-13.4-6-13.4-13.4v-28.7c0-7.4,6-13.4,13.4-13.4h40c7.4,0,13.4,6,13.4,13.4v28.7
		C481.6,346.5,475.6,352.5,468.2,352.5z"/>
</g>
<g id="Layer_20">
	<path class="st13" d="M460.8,346.8h-8c-5.7,0-10.4-4.7-10.4-10.4v0c0-5.7,4.7-10.4,10.4-10.4h8c5.7,0,10.4,4.7,10.4,10.4v0
		C471.2,342.2,466.6,346.8,460.8,346.8z"/>
</g>
<g id="Layer_21">
	<g>
		<path class="st4" d="M460.6,392.7c-2.5,0-4.6-2.1-4.6-4.6v-49.5c0-2.5,2.1-4.6,4.6-4.6s4.6,2.1,4.6,4.6v49.5
			C465.2,390.6,463.1,392.7,460.6,392.7z"/>
		<path d="M460.6,334.5c2.3,0,4.1,1.8,4.1,4.1v49.5c0,2.3-1.8,4.1-4.1,4.1s-4.1-1.8-4.1-4.1v-49.5
			C456.4,336.3,458.3,334.5,460.6,334.5 M460.6,333.5c-2.8,0-5.1,2.3-5.1,5.1v49.5c0,2.8,2.3,5.1,5.1,5.1s5.1-2.3,5.1-5.1v-49.5
			C465.7,335.8,463.4,333.5,460.6,333.5L460.6,333.5z"/>
	</g>
</g>
<g id="Layer_15">
	<g>
		<path class="st4" d="M398.9,267.3c-3,0-7-0.5-8.9-3.1c-1.3-1.7-1.5-4.1-0.6-7.2c1.7-0.1,8.8-0.6,13.8-3.9c0.2-0.1,0.2-0.3,0.2-0.5
			l-1.9-13.3c0-0.1-0.1-0.3-0.2-0.3c-0.1-0.1-0.2-0.1-0.3-0.1c0,0-0.1,0-0.1,0c0,0-1.3,0.3-3.1,0.3c-2.2,0-5.3-0.5-7.6-2.9
			c-2.4-2.6-3.5-6.8-3.2-12.5c0.5-7.8,2.8-15,16.6-15c0.8,0,1.7,0,2.6,0.1c-0.2,2.5-0.8,12.9,3.1,17.2c1.2,1.3,2.6,1.9,4.3,1.9h2
			c0.3,0,1.5,0.1,1.5,1.5l0,0.3c0,0.9,0,2-0.7,2.7c-0.9,0.9-2.6,1.3-5.2,1.3c-0.5,0-1.1,0-1.7-0.1c0,0,0,0,0,0
			c-0.1,0-0.3,0.1-0.4,0.2c-0.1,0.1-0.2,0.3-0.1,0.4c0.4,3.5,1.7,15,3,16.2c0.7,0.7,1.7,1,2.9,1c1.1,0,2.4-0.3,3.7-0.9
			c0.2-0.1,0.5-0.3,0.8-0.4c2.1-1.1,5-2.6,12.8-2.6c0.6,0,1.3,0,1.9,0c-3,2.9-13.3,12.6-18.6,15.7
			C412.8,264.9,405.4,267.3,398.9,267.3z"/>
		<path d="M403.7,209.2c0.7,0,1.4,0,2.1,0.1c-0.2,3.2-0.5,12.8,3.3,17.1c1.3,1.4,2.8,2.1,4.7,2.1l2,0c0.5,0,1,0.2,1,1l0,0.3
			c0,0.9,0,1.7-0.6,2.4c-0.8,0.8-2.4,1.2-4.9,1.2c-0.5,0-1.1,0-1.6-0.1c0,0,0,0-0.1,0c-0.3,0-0.5,0.1-0.7,0.3
			c-0.2,0.2-0.3,0.5-0.3,0.8c0.8,6.9,1.9,15.4,3.1,16.5c0.8,0.7,1.9,1.1,3.3,1.1c1.2,0,2.6-0.3,3.9-1c0.3-0.1,0.5-0.3,0.8-0.4
			c2.1-1.1,4.9-2.5,12.5-2.5c0.2,0,0.5,0,0.7,0c-3.8,3.6-12.8,11.9-17.6,14.8c-2.8,1.6-10.1,3.9-16.5,3.9c-2.9,0-6.7-0.5-8.5-2.9
			c-1.1-1.5-1.3-3.7-0.6-6.4c2.2-0.1,8.9-0.8,13.7-4c0.3-0.2,0.5-0.6,0.4-1l-1.9-13.3c0-0.3-0.2-0.5-0.4-0.7
			c-0.2-0.1-0.4-0.2-0.6-0.2c-0.1,0-0.2,0-0.2,0c0,0-1.2,0.3-2.9,0.3c-2.1,0-5.1-0.5-7.2-2.8c-2.3-2.5-3.4-6.6-3-12.2
			C388.1,215,391,209.2,403.7,209.2 M403.7,208.2c-13.8,0-16.6,7.1-17.1,15.5c-0.8,14,6.8,16,11.2,16c1.8,0,3.2-0.3,3.2-0.3
			l1.9,13.3c-5.6,3.7-13.9,3.8-13.9,3.8c-2.6,8.6,3,11.3,9.9,11.3c6.4,0,13.9-2.3,17-4.1c6.4-3.7,19.5-16.6,19.5-16.6
			c-1.1-0.1-2.2-0.1-3.1-0.1c-8.8,0-11.5,1.9-13.7,3c-1.2,0.6-2.4,0.9-3.5,0.9c-1.1,0-2-0.3-2.6-0.9c-1.2-1.1-2.8-15.9-2.8-15.9
			c0.6,0,1.2,0.1,1.7,0.1c6.8,0,6.5-2.9,6.5-4.8c0-2-2-2-2-2h-2c-8.9,0-6.9-19.1-6.9-19.1C405.7,208.2,404.7,208.2,403.7,208.2
			L403.7,208.2z"/>
	</g>
</g>
<g id="Layer_27">
	<path class="st2" d="M386.7,222.3c0,0,4.6,0.5,6.2-2.5c1.6-2.9,0-6-3.1-6.1"/>
	<path class="st2" d="M398.8,217.3c0,0,5.4-2.3,8.3,1.8"/>
	<path class="st2" d="M390.1,230.1c0,0,3.9,1.7,6.9,0c0,0-1.2,3.8-4.8,4.2"/>
	<path class="st2" d="M401,239.3c0,0,2.8,0,5-2.1"/>
	<ellipse transform="matrix(0.4237 -0.9058 0.9058 0.4237 28.8292 492.2368)" cx="401.2" cy="223.5" rx="2.4" ry="1.7"/>
	<ellipse transform="matrix(0.4237 -0.9058 0.9058 0.4237 27.3217 480.627)" cx="391.4" cy="218.8" rx="1.9" ry="1.4"/>
</g>
<g id="Layer_50">
	<path class="st9" d="M95.6,479.2h49c0,0,2.6-13.2-17.1-14.7V357.1h31.1l6-11.2H75.1l10.6,10.6h27.9v108.1
		C113.6,464.7,96.1,463.4,95.6,479.2z"/>
</g>
<g id="Layer_49">
	<path class="st15" d="M108.8,244.9H89.3c0,0-15.6,1-18.6,23.2c-3,22.2-3.8,66.7-3.8,66.7s0.2,11.4,8.2,12h69.5L108.8,244.9z"/>
</g>
<g id="Layer_45">
	<line class="st2" x1="93.7" y1="318.9" x2="134.8" y2="318.9"/>
</g>
<g id="Layer_47">
	<path class="st16" d="M235.4,451.2c-0.9,0.2-1.8,0.5-2.8,0.8c0,0-10,2.9-12.9-5.5c-0.5-1.4-1.1-3.1-1.9-4.8
		c-3.2-7.9-8-17.7-8.6-18.8c0-0.1-0.1-0.1-0.1-0.1l2.1-1l-0.2-0.6l-6-14l-1.7,0.7l0-0.1l-22.9-59.8h2.9c0,0,0,0.2,0.1,0.6v0
		c0.1,0.5,0.3,1.3,0.6,2c0.3,0.8,0.7,1.4,1.3,1.5c1.4,0.2,9-1.4,9-1.4s-0.5-1.4-0.8-3.8c-0.3-2.4,21.5-2.4,25.1-3.1
		c3.6-0.7,24.6-10.2,17-23.8c-7.6-13.6-23.6-35.2-64.4-47.4c0,0-11.5-22.9-15.1-26.4c-3.6,0-30.8,0-30.8,0l-11.8,23.5l-3.1,18.4
		c0,0,2.6,14.8,12.6,33.7c10,18.9,53.5,98.1,53.5,98.1l0,0l-2.6,1.2c0,0-2.7,1-1,5.2c1.7,4.1,4,8.6,4,8.6s2.4,2.2,4.7,1
		s2.2-1.2,2.2-1.2l0.1,0.1l0.5,0.9l9.5,17.3l8.8,16l7,12.8l31.8-14.3c0,0,10-7.9,10.8-13.6C252.3,453.6,244.7,449.1,235.4,451.2z
		 M170.9,323.9l-6.4-16.6l27.5,12.6l-4.3,0.9c0,0-0.4-1.3-1.3-1.2c-0.9,0.1-10.1,1.2-10.1,1.2s-0.5,1.5-0.3,2.4c0,0.1,0,0.1,0,0.2
		c-0.4,0.5-3,0.5-4.3,0.5C171.2,323.9,170.9,323.9,170.9,323.9z"/>
	<g>
		<path class="st4" d="M180.1,435.6c-1.3,0-2.5-1-2.8-1.2c-0.3-0.6-2.3-4.7-3.9-8.5c-0.6-1.4-0.7-2.5-0.3-3.4c0.3-0.8,1-1.1,1-1.1
			l2.6-1.2c0,0,0.1,0,0.1-0.1l26.5-12c0,0,0.1,0,0.1,0c0,0,0.1,0,0.1,0l1.3-0.5l5.8,13.7l-1.6,0.8c-0.1,0.1-0.2,0.1-0.2,0.3
			l-24.3,12.4l-0.3-0.5c-0.1-0.2-0.3-0.3-0.4-0.3c-0.1,0-0.2,0-0.2,0.1l-2.2,1.2C180.9,435.5,180.5,435.6,180.1,435.6z"/>
		<path d="M204.6,408.3l5.5,12.9l-1.2,0.6c-0.2,0.1-0.3,0.2-0.4,0.3l-23.7,12.1l-0.1-0.1c-0.2-0.3-0.5-0.5-0.9-0.5
			c-0.2,0-0.3,0-0.5,0.1l-2.2,1.2c-0.3,0.2-0.6,0.2-1,0.2c-1.1,0-2.1-0.7-2.4-1c-0.4-0.9-2.3-4.8-3.8-8.4c-1.3-3,0.3-3.8,0.4-3.8
			c0,0,0,0,0.1,0l2.6-1.2c0,0,0.1,0,0.1,0l26.4-11.9c0.1,0,0.2,0,0.4-0.1L204.6,408.3 M205.1,407l-1.7,0.7l0-0.1l-26.8,12.1l0,0
			l-2.6,1.2c0,0-2.7,1-1,5.2c1.7,4.1,4,8.6,4,8.6s1.5,1.4,3.2,1.4c0.5,0,0.9-0.1,1.4-0.4c2.2-1.2,2.2-1.2,2.2-1.2l0.5,1l25-12.7
			c0-0.1-0.1-0.1-0.1-0.1l2.1-1L205.1,407L205.1,407z"/>
	</g>
	<g>
		<path class="st4" d="M185.7,351.5c-0.1,0-0.1,0-0.2,0c-0.6-0.1-1.3-2-1.6-3.7l-7.5-24.7c-0.1-0.5,0-1.3,0.2-1.8
			c1.6-0.2,9-1.1,9.8-1.2c0,0,0,0,0,0c0.4,0,0.7,0.7,0.8,0.9l5.9,26c0.2,1.5,0.5,2.7,0.7,3.3C192.1,350.5,187.2,351.5,185.7,351.5z"
			/>
		<path d="M186.4,320.6c0.1,0.1,0.2,0.3,0.3,0.5l5.9,25.9c0.2,1.2,0.4,2.2,0.6,2.8c-2.3,0.4-6.2,1.2-7.4,1.2c0,0-0.1,0-0.1,0
			c-0.4-0.3-1-1.8-1.2-3.3c0,0,0-0.1,0-0.1l-7.5-24.6c-0.1-0.3,0-0.8,0.1-1.3C179.9,321.4,185.6,320.7,186.4,320.6 M186.4,319.6
			C186.4,319.6,186.4,319.6,186.4,319.6c-1,0.1-10.2,1.2-10.2,1.2s-0.5,1.5-0.3,2.4l7.5,24.6c0,0,0.6,4,2,4.1c0.1,0,0.2,0,0.3,0
			c1.9,0,8.7-1.4,8.7-1.4s-0.5-1.4-0.8-3.8l-5.9-26C187.6,320.8,187.3,319.6,186.4,319.6L186.4,319.6z"/>
	</g>
	<g>
		<path class="st4" d="M176.2,323.9l7,23.3l-2.6,0.1l-8.9-22.9C173,324.5,175.8,324.5,176.2,323.9z"/>
	</g>
	<path class="st10" d="M184.2,350.5c-0.3-0.7-0.5-1.5-0.6-2L184.2,350.5z"/>
</g>
<g id="Layer_57">
	<path class="st1" d="M252.3,453.6c-0.9,5.8-10.8,13.6-10.8,13.6l-31.8,14.3l-7-12.8l-8.8-16l-9.5-17.3l-0.5-0.9l27.2-13.6l0.2,0.6
		l-2.1,1c0,0,0,0,0.1,0.1c0.5,1.1,5.3,10.9,8.6,18.8c0.7,1.7,1.4,3.4,1.9,4.8c2.9,8.4,12.9,5.5,12.9,5.5c0.9-0.3,1.9-0.6,2.8-0.8
		C244.7,449.1,252.3,453.6,252.3,453.6z"/>
	<path d="M227,466.2l-16.2,8.4c0,0-3.9-6.1-8.2-5.9l-8.8-16l24.1-11.2c0.7,1.7,1.4,3.4,1.9,4.8c2.9,8.4,12.9,5.5,12.9,5.5
		c0.9-0.3,1.9-0.6,2.8-0.8C235.2,451.4,225.5,459.5,227,466.2z"/>
</g>
<g id="Layer_52">
	<path class="st4" d="M114.4,280.3c0,0,4.9,19.1,8.6,27c3.7,8,19.6,37.8,19.6,37.8l38.9,72l4.8-1.6c0,0-45.9-85.3-48.8-91.5
		s-10.4-20.2-11-23.8c-0.6-3.5-5.6-14.7-5.8-17c-0.2-2.3-3.3-13.6-3.3-13.6L114.4,280.3"/>
</g>
<g id="Layer_51">
	<path class="st8" d="M163.1,280.3c0,0-2.7,6.1-6.3,7.2l46.6,120.3"/>
</g>
<g id="Layer_48">
	<path class="st5" d="M174.3,271.1l-0.5-0.3l-3-0.7c0,0-8.8-15.4-9.2-15.4c-0.3,0,0.3-6.8,0.2-8.6c-0.2-1.8-2.4-4.5-2.4-4.5
		l7.8-40.6c0,0,1.2-6.3-6.2-11.2c0,0,11.5-0.3,15.7,5.3c4.2,5.6,5.1,11.7,5.3,24.1c0.2,12.4,0,31,0,31l6.2,7.6"/>
	<path class="st12" d="M219.6,304.5c-1.1,1.6-3.3-0.5-3.5-1.1c-0.2-0.6-2.3,1.3-3.6-0.6c-1.3-1.9-2.6-7.4-3.8-8.2
		c-1.2-0.9-7.2-9-8-8.2c-0.9,0.8-1,2.1-0.2,3.6c0.8,1.5,2.5,5.3,1.1,6.4c-1.4,1.1-4.1-4.3-5.7-5.7c-1.6-1.5-4.9-5.9-4-9.8l-17.5-9.8
		c3.5-4.5,8.8-10.6,14-13.2l18.6,23.1c0,0,12.1,5.5,13.6,8.5C222,292.4,220.7,302.9,219.6,304.5z"/>
</g>
<g id="Layer_46">
	<g>
		<path class="st4" d="M126.3,245.6l22.9-41.4c1.7,0.9,7.9,4,10.1,4.7c0,0,0.1,0,0.2,0c0,0,0.1,0,0.1,0c5.3-1.6,7-5,7.5-7
			c1.9,4,7,14.7,8.5,17.2c1.3,5.3,0.8,9.4-1.5,12.3c-3.5,4.5-10.2,4.6-11,4.6c-0.2,0-0.4,0.1-0.5,0.2l-6.6,9.4H126.3z"/>
		<path d="M167.2,203.1c2.2,4.6,6.5,13.6,8,16c1.2,5.1,0.7,9-1.5,11.8c-3.4,4.3-9.9,4.5-10.6,4.5l-0.1,0c0,0,0,0,0,0
			c-0.3,0-0.6,0.2-0.8,0.4l-6.5,9.2h-28.6l22.3-40.3c2.2,1.1,7.7,3.8,9.7,4.5c0.1,0,0.2,0,0.3,0c0.1,0,0.2,0,0.3,0
			c4.3-1.3,6.3-3.7,7.2-5.5C167,203.6,167.1,203.4,167.2,203.1 M166.8,200.1c0,0,0.2,6-7.4,8.3c-2.5-0.8-10.4-4.9-10.4-4.9
			l-23.5,42.6h30.8l6.8-9.6c0,0,0,0,0.1,0c1.3,0,17.2-0.3,13-17.6C174.3,215.9,166.8,200.1,166.8,200.1L166.8,200.1z"/>
	</g>
</g>
<g id="Layer_55">
	<path class="st5" d="M149,203.5l-29.5,59.2c0,0-1.2,4.6-2.7,10.7c-3.1,12.3-7.9,30.8-8.4,31.7c-0.8,1.4,5.1,2.5,5,6.4
		c-0.1,4,0.3,7.6-4.6,7.8c-4.8,0.1-11.4,0-11.4,0s-2.4-4.5,2.9-4.7h-7.8c0,0,0.1,4.3-0.5,5.2c-0.6,0.8-4.4,1-5,0c0,0-4.5,1.1-5-2
		c0,0-5.2,1.7-5.6-0.5c0,0-0.8-10.2,6.5-10.8c0,0,1.2-1.7,4.1-1h6.5c0,0,3.5-29.6,3.5-31.5c0-0.2,0.1-1.1,0.4-2.6
		c2.8-14.5,18.2-82.2,40-80.1C139.6,195.3,149,203.5,149,203.5z"/>
	<g>
		<path class="st4" d="M89.4,320c-1.2,0-1.8-0.3-1.9-0.4c-0.1-0.2-0.3-0.2-0.4-0.2c0,0-0.1,0-0.1,0c0,0-0.7,0.2-1.6,0.2
			c-1.6,0-2.6-0.6-2.7-1.7c0-0.1-0.1-0.3-0.2-0.3c-0.1,0-0.2-0.1-0.3-0.1c-0.1,0-0.1,0-0.2,0c0,0-1.9,0.6-3.3,0.6
			c-1,0-1.5-0.2-1.6-0.7c0-0.3-0.6-9.7,6-10.2c0.1,0,0.3-0.1,0.4-0.2c0,0,0.7-0.9,2.3-0.9c0.4,0,0.8,0.1,1.3,0.2c0,0,0.1,0,0.1,0
			h6.4c0.3,0,0.5-0.2,0.5-0.4c0.1-1.2,3.5-29.7,3.5-31.6c0-0.1,0.1-0.7,0.3-2.1c6.5,1.2,12.7,1.8,18.4,1.9
			c-6.3,24.7-7.9,30.5-8.2,31c-0.5,1,0.5,1.7,1.7,2.4c1.5,1,3.3,2.2,3.2,4.2c0,0.4,0,0.7,0,1.1c-0.1,3.9-0.3,6.1-4.1,6.2
			c-1.4,0-3.1,0.1-5.1,0.1c-2.7,0-5.2,0-6-0.1c-0.2-0.5-0.6-1.7-0.1-2.5c0.4-0.7,1.3-1.1,2.8-1.1c0.3,0,0.5-0.2,0.5-0.5
			s-0.2-0.5-0.5-0.5h-7.8c-0.1,0-0.3,0.1-0.4,0.2c-0.1,0.1-0.1,0.2-0.1,0.4c0,2-0.1,4.4-0.4,4.9C91.5,319.7,90.6,320,89.4,320z"/>
		<path d="M98.2,272.5c6.1,1.1,12,1.7,17.3,1.8c-6.1,23.8-7.7,29.7-8,30.3c-0.7,1.4,0.7,2.3,1.8,3.1c1.7,1.1,3.1,2.2,3,3.8
			c0,0.4,0,0.7,0,1.1c-0.1,3.9-0.3,5.6-3.6,5.7c-1.4,0-3.1,0.1-5.1,0.1c-2.4,0-4.6,0-5.6,0c-0.2-0.5-0.3-1.3,0-1.8
			c0.4-0.7,1.5-0.8,2.4-0.9c0.5,0,1-0.5,1-1c0-0.5-0.5-1-1-1h-7.8c-0.3,0-0.5,0.1-0.7,0.3c-0.2,0.2-0.3,0.5-0.3,0.7
			c0,2-0.1,4.1-0.3,4.5c-0.2,0.1-0.9,0.3-1.9,0.3c-0.9,0-1.4-0.2-1.5-0.3c-0.2-0.3-0.5-0.4-0.8-0.4c-0.1,0-0.2,0-0.2,0
			c0,0-0.7,0.2-1.5,0.2c-2,0-2.2-1-2.3-1.3c0-0.3-0.2-0.5-0.5-0.7c-0.2-0.1-0.3-0.1-0.5-0.1c-0.1,0-0.2,0-0.3,0.1
			c0,0-1.8,0.6-3.2,0.6c-0.2,0-1,0-1.1-0.3c-0.1-1-0.4-9.2,5.5-9.7c0.3,0,0.6-0.2,0.7-0.4c0,0,0.6-0.7,1.9-0.7
			c0.4,0,0.7,0.1,1.1,0.2c0.1,0,0.2,0,0.3,0h6.5c0.5,0,0.9-0.4,1-0.9c0.4-3,3.5-29.7,3.5-31.6C97.9,274,98,273.5,98.2,272.5
			 M97.4,271.4c-0.3,1.5-0.4,2.5-0.4,2.6c0,1.9-3.5,31.5-3.5,31.5H87c-0.5-0.1-1-0.2-1.4-0.2c-1.9,0-2.7,1.1-2.7,1.1
			c-7.2,0.6-6.5,10.8-6.5,10.8c0.2,0.9,1.1,1.1,2.1,1.1c1.6,0,3.5-0.6,3.5-0.6c0.3,1.8,1.9,2.2,3.2,2.2c1,0,1.7-0.2,1.7-0.2
			c0.3,0.5,1.3,0.7,2.3,0.7c1.1,0,2.3-0.3,2.7-0.7c0.6-0.8,0.5-5.2,0.5-5.2h7.8c-5.4,0.2-2.9,4.7-2.9,4.7s2.9,0.1,6.3,0.1
			c1.7,0,3.5,0,5.1-0.1c4.9-0.1,4.4-3.8,4.6-7.8c0.1-3.9-5.7-5-5-6.4c0.5-0.9,5.3-19.5,8.4-31.7C110,273.3,103.2,272.5,97.4,271.4
			L97.4,271.4z"/>
	</g>
</g>
<g id="Layer_54">
	<path class="st2" d="M90.5,306c0,0-3-0.4-3.2,2.4c-0.2,2.8,0,10.5,0,10.5"/>
	<line class="st2" x1="82.5" y1="307.7" x2="82" y2="317"/>
</g>
<g id="Layer_44">
	<g>
		<path class="st4" d="M159.2,208.2c-1.9,0-18.2-8.9-21-16.3c0.3,0,0.6,0,1.1,0c2.1,0,6-0.5,9.1-3.6c2.9-3,4.4-7.6,4.4-13.8
			c0-0.3-0.2-0.5-0.5-0.5c-3.2,0-5.1-0.7-5.1-0.7l-14-6.6l35-23.1l7.4,7.5c0.5,1.1,5.4,13.3,0.7,20.7c-2.3,3.6-6.5,5.5-12.5,5.7
			c-0.2,0-0.4,0.1-0.5,0.3c-1.8,5.2-3.7,11.6-2.3,12.4c1.1,0.6,6.9,5.9,5.8,11.3C165.6,206.9,160.9,207.9,159.2,208.2L159.2,208.2z"
			/>
		<path d="M167.9,144.4l7,7.1c0.6,1.5,5.2,13.1,0.7,20.1c-2.2,3.4-6.2,5.3-12.1,5.4c-0.4,0-0.8,0.3-0.9,0.7
			c-4.2,11.9-2.8,12.6-2.1,13c1,0.5,6.6,5.7,5.6,10.8c-1,4.9-5.2,5.8-7,6.2c-2.3-0.1-16.9-8.4-20.2-15.3c0.1,0,0.2,0,0.3,0
			c2.2,0,6.3-0.5,9.5-3.7c3-3.1,4.6-7.8,4.5-14.2c0-0.5-0.5-1-1-1c-2.9,0-4.7-0.5-4.9-0.6l-13.2-6.2L167.9,144.4 M168.1,143.1
			L132,166.9l14.9,7c0,0,1.9,0.7,5.3,0.7c0.1,15.2-9,16.9-13,16.9c-1.1,0-1.8-0.1-1.8-0.1c2,7.7,19.4,17.4,21.8,17.4
			c0,0,0.1,0,0.1,0c1.8-0.4,6.8-1.4,7.9-7c1.1-5.6-4.7-11.2-6.1-11.9c-1.4-0.7,2.5-11.8,2.5-11.8c23.7-0.7,12.2-27.1,12.2-27.1
			L168.1,143.1L168.1,143.1z"/>
	</g>
</g>
<g id="Layer_53">
	<path class="st2" d="M169.2,166.3c0,0,2.2-1,1.3-2.1s-5-3.1-4.7-6.8s2.7-6.6,8.9-5.7"/>
	<path class="st2" d="M162.4,168.1c0,0,1.9,3.3,7.1,1.9"/>
	<ellipse transform="matrix(0.9498 -0.3129 0.3129 0.9498 -40.9784 61.7635)" cx="171.9" cy="158.6" rx="1.4" ry="2.4"/>
	<ellipse transform="matrix(0.9498 -0.3129 0.3129 0.9498 -42.0838 58.2971)" cx="160.6" cy="160.3" rx="1.4" ry="2.4"/>
	<path class="st2" d="M147.2,169.2c0,0,3.1,1.2,4.8,0"/>
	<path class="st2" d="M163.6,178.1c0,0-3-0.1-4.2-1.2"/>
</g>
<g id="Layer_43">
	<path d="M157.9,161.4c-2.2,2.4-4.3,4.3-6,4.8l-6,0.1c0,0-3.9,7.1,6.3,8.3c0,0-5.7,1.9-11.6-2.7c0,0-1.1,3.1-0.5,11.3
		c0.5,8.1,1.8,46.5-22.9,50.3c-1,0.1-22.3,12.2-25.5-13c0,0-14.1-6.2-3.8-20.7c2.5-2.5,7.5-6.1,12.7-7.9c5.2-1.8,10.9-8.5,11.8-18.9
		c0.8-10.3-3.1-47.6,23.3-42.6c2.1,1.7,6.4,4.8,6.4,4.8s37.6-11.7,33.7,15.8c0,0-5.8-1.6-6.6-4.8c0,0-4,6.4-8.5,11.9"/>
</g>
<g id="Layer_61">
	<path class="st17" d="M89.7,202.3c0,0,7.7-5.4,15.6-9.4c7.9-3.9,10.7-18,11.9-33.9s4.5-28.6,17.8-24.5"/>
	<path class="st17" d="M139.2,139.7c0,0,17-10,31.1,0"/>
	<path class="st17" d="M259.8,94.8c0,0,5.1-6.1,9.7-8.2s5.8-2,7-4.4"/>
	<path class="st17" d="M278.7,85.8c0,0,8-4.2,13.9-4.6"/>
	<path class="st17" d="M449.8,87.9c0,0,14.1-9.3,33.5-4.7"/>
</g>
<g id="Layer_60">
	<path class="st18" d="M129.3,150.5c-0.8-4.3,2.8-14.2,9.7-16.5c6.9-2.3,5.8,0.7,3.1,3.1s-7.7,6.8-8.9,9.6
		C132,149.5,129.8,153.5,129.3,150.5z"/>
</g>
<g id="Layer_62">
</g>
</svg>
